STARTFONT 2.1
COMMENT Generated offline from Noto Sans CJK SC for MSYS
FONT -msys-msyscjk-medium-r-normal--14-140-75-75-p-138-iso10646-1
SIZE 14 75 75
FONTBOUNDINGBOX 15 18 -1 -4
STARTPROPERTIES 17
FOUNDRY "MSYS"
FAMILY_NAME "msyscjk"
WEIGHT_NAME "Medium"
SLANT "R"
SETWIDTH_NAME "Normal"
ADD_STYLE_NAME ""
PIXEL_SIZE 14
POINT_SIZE 140
RESOLUTION_X 75
RESOLUTION_Y 75
SPACING "P"
AVERAGE_WIDTH 138
CHARSET_REGISTRY "ISO10646"
CHARSET_ENCODING "1"
FONT_ASCENT 14
FONT_DESCENT 4
DEFAULT_CHAR 9633
ENDPROPERTIES
CHARS 7542
STARTCHAR uni0020
ENCODING 32
SWIDTH 214 0
DWIDTH 3 0
BBX 1 1 0 0
BITMAP
00
ENDCHAR
STARTCHAR uni0021
ENCODING 33
SWIDTH 357 0
DWIDTH 5 0
BBX 2 11 1 0
BITMAP
40
40
40
40
40
40
40
40
00
C0
C0
ENDCHAR
STARTCHAR uni0022
ENCODING 34
SWIDTH 500 0
DWIDTH 7 0
BBX 4 4 1 7
BITMAP
D0
D0
90
90
ENDCHAR
STARTCHAR uni0023
ENCODING 35
SWIDTH 571 0
DWIDTH 8 0
BBX 6 10 1 0
BITMAP
00
48
48
FC
48
48
FC
50
90
90
ENDCHAR
STARTCHAR uni0024
ENCODING 36
SWIDTH 571 0
DWIDTH 8 0
BBX 6 14 1 -2
BITMAP
20
20
78
C0
80
40
30
18
0C
04
8C
78
20
20
ENDCHAR
STARTCHAR uni0025
ENCODING 37
SWIDTH 929 0
DWIDTH 13 0
BBX 11 11 1 0
BITMAP
E100
9100
9200
9200
94C0
9520
6920
0920
1120
1120
20C0
ENDCHAR
STARTCHAR uni0026
ENCODING 38
SWIDTH 714 0
DWIDTH 10 0
BBX 9 11 0 0
BITMAP
1C00
2400
2400
2400
3800
3080
5880
4D00
4700
4700
3C80
ENDCHAR
STARTCHAR uni0027
ENCODING 39
SWIDTH 286 0
DWIDTH 4 0
BBX 2 4 1 7
BITMAP
C0
C0
80
80
ENDCHAR
STARTCHAR uni0028
ENCODING 40
SWIDTH 357 0
DWIDTH 5 0
BBX 3 14 1 -3
BITMAP
20
40
40
40
C0
80
80
80
80
40
40
40
20
20
ENDCHAR
STARTCHAR uni0029
ENCODING 41
SWIDTH 357 0
DWIDTH 5 0
BBX 2 14 1 -3
BITMAP
80
80
40
40
40
40
40
40
40
40
40
40
80
80
ENDCHAR
STARTCHAR uni002A
ENCODING 42
SWIDTH 500 0
DWIDTH 7 0
BBX 5 5 1 6
BITMAP
20
A0
70
70
00
ENDCHAR
STARTCHAR uni002B
ENCODING 43
SWIDTH 571 0
DWIDTH 8 0
BBX 6 7 1 2
BITMAP
20
20
20
FC
20
20
20
ENDCHAR
STARTCHAR uni002C
ENCODING 44
SWIDTH 286 0
DWIDTH 4 0
BBX 2 5 1 -3
BITMAP
C0
C0
40
C0
00
ENDCHAR
STARTCHAR uni002D
ENCODING 45
SWIDTH 357 0
DWIDTH 5 0
BBX 3 1 1 3
BITMAP
E0
ENDCHAR
STARTCHAR uni002E
ENCODING 46
SWIDTH 286 0
DWIDTH 4 0
BBX 2 2 1 0
BITMAP
C0
C0
ENDCHAR
STARTCHAR uni002F
ENCODING 47
SWIDTH 357 0
DWIDTH 5 0
BBX 5 14 0 -3
BITMAP
08
08
10
10
10
10
20
20
20
40
40
40
80
80
ENDCHAR
STARTCHAR uni0030
ENCODING 48
SWIDTH 571 0
DWIDTH 8 0
BBX 6 11 1 0
BITMAP
70
C8
8C
84
84
84
84
84
8C
C8
70
ENDCHAR
STARTCHAR uni0031
ENCODING 49
SWIDTH 571 0
DWIDTH 8 0
BBX 6 11 1 0
BITMAP
30
70
10
10
10
10
10
10
10
10
FC
ENDCHAR
STARTCHAR uni0032
ENCODING 50
SWIDTH 571 0
DWIDTH 8 0
BBX 6 11 1 0
BITMAP
70
88
0C
0C
08
08
10
30
60
C0
FC
ENDCHAR
STARTCHAR uni0033
ENCODING 51
SWIDTH 571 0
DWIDTH 8 0
BBX 7 11 0 0
BITMAP
3C
44
06
06
04
38
04
02
02
C6
3C
ENDCHAR
STARTCHAR uni0034
ENCODING 52
SWIDTH 571 0
DWIDTH 8 0
BBX 7 11 0 0
BITMAP
0C
0C
14
34
24
64
44
FE
04
04
04
ENDCHAR
STARTCHAR uni0035
ENCODING 53
SWIDTH 571 0
DWIDTH 8 0
BBX 7 11 0 0
BITMAP
7E
60
60
40
7C
06
02
02
02
C4
38
ENDCHAR
STARTCHAR uni0036
ENCODING 54
SWIDTH 571 0
DWIDTH 8 0
BBX 6 11 1 0
BITMAP
38
44
80
80
B8
CC
84
84
84
4C
38
ENDCHAR
STARTCHAR uni0037
ENCODING 55
SWIDTH 571 0
DWIDTH 8 0
BBX 6 11 1 0
BITMAP
FC
0C
08
10
10
10
30
20
20
20
20
ENDCHAR
STARTCHAR uni0038
ENCODING 56
SWIDTH 571 0
DWIDTH 8 0
BBX 6 11 1 0
BITMAP
78
CC
84
84
48
70
8C
84
84
8C
78
ENDCHAR
STARTCHAR uni0039
ENCODING 57
SWIDTH 571 0
DWIDTH 8 0
BBX 6 11 1 0
BITMAP
70
88
8C
84
84
8C
74
04
08
88
F0
ENDCHAR
STARTCHAR uni003A
ENCODING 58
SWIDTH 286 0
DWIDTH 4 0
BBX 2 8 1 0
BITMAP
C0
C0
00
00
00
00
C0
C0
ENDCHAR
STARTCHAR uni003B
ENCODING 59
SWIDTH 286 0
DWIDTH 4 0
BBX 2 10 1 -3
BITMAP
C0
C0
00
00
00
C0
C0
40
C0
00
ENDCHAR
STARTCHAR uni003C
ENCODING 60
SWIDTH 571 0
DWIDTH 8 0
BBX 6 6 1 2
BITMAP
0C
30
C0
C0
38
04
ENDCHAR
STARTCHAR uni003D
ENCODING 61
SWIDTH 571 0
DWIDTH 8 0
BBX 6 4 1 3
BITMAP
FC
00
00
FC
ENDCHAR
STARTCHAR uni003E
ENCODING 62
SWIDTH 571 0
DWIDTH 8 0
BBX 6 6 1 2
BITMAP
C0
70
0C
1C
60
80
ENDCHAR
STARTCHAR uni003F
ENCODING 63
SWIDTH 500 0
DWIDTH 7 0
BBX 5 11 1 0
BITMAP
70
98
08
18
10
20
20
60
00
60
60
ENDCHAR
STARTCHAR uni0040
ENCODING 64
SWIDTH 929 0
DWIDTH 13 0
BBX 11 12 1 -2
BITMAP
0F80
3040
4020
C720
8920
9120
9120
9320
8DC0
C000
6000
1F00
ENDCHAR
STARTCHAR uni0041
ENCODING 65
SWIDTH 643 0
DWIDTH 9 0
BBX 8 11 0 0
BITMAP
18
18
14
34
24
26
62
7E
43
41
C1
ENDCHAR
STARTCHAR uni0042
ENCODING 66
SWIDTH 643 0
DWIDTH 9 0
BBX 8 11 1 0
BITMAP
FC
C6
C2
C2
C6
FC
C2
C3
C3
C2
FC
ENDCHAR
STARTCHAR uni0043
ENCODING 67
SWIDTH 643 0
DWIDTH 9 0
BBX 7 11 1 0
BITMAP
3C
62
C0
80
80
80
80
80
C0
62
3C
ENDCHAR
STARTCHAR uni0044
ENCODING 68
SWIDTH 714 0
DWIDTH 10 0
BBX 8 11 1 0
BITMAP
F8
C6
C2
C3
C3
C3
C3
C3
C2
C6
F8
ENDCHAR
STARTCHAR uni0045
ENCODING 69
SWIDTH 571 0
DWIDTH 8 0
BBX 6 11 1 0
BITMAP
FC
C0
C0
C0
C0
FC
C0
C0
C0
C0
FC
ENDCHAR
STARTCHAR uni0046
ENCODING 70
SWIDTH 571 0
DWIDTH 8 0
BBX 6 11 1 0
BITMAP
FC
C0
C0
C0
C0
FC
C0
C0
C0
C0
C0
ENDCHAR
STARTCHAR uni0047
ENCODING 71
SWIDTH 714 0
DWIDTH 10 0
BBX 8 11 1 0
BITMAP
3C
62
C0
80
80
8F
83
83
C3
63
3E
ENDCHAR
STARTCHAR uni0048
ENCODING 72
SWIDTH 714 0
DWIDTH 10 0
BBX 8 11 1 0
BITMAP
C3
C3
C3
C3
C3
FF
C3
C3
C3
C3
C3
ENDCHAR
STARTCHAR uni0049
ENCODING 73
SWIDTH 286 0
DWIDTH 4 0
BBX 2 11 1 0
BITMAP
C0
C0
C0
C0
C0
C0
C0
C0
C0
C0
C0
ENDCHAR
STARTCHAR uni004A
ENCODING 74
SWIDTH 571 0
DWIDTH 8 0
BBX 6 11 0 0
BITMAP
04
04
04
04
04
04
04
04
04
4C
78
ENDCHAR
STARTCHAR uni004B
ENCODING 75
SWIDTH 643 0
DWIDTH 9 0
BBX 8 11 1 0
BITMAP
C2
C4
CC
D8
D0
E8
EC
C4
C6
C2
C3
ENDCHAR
STARTCHAR uni004C
ENCODING 76
SWIDTH 571 0
DWIDTH 8 0
BBX 6 11 1 0
BITMAP
C0
C0
C0
C0
C0
C0
C0
C0
C0
C0
FC
ENDCHAR
STARTCHAR uni004D
ENCODING 77
SWIDTH 786 0
DWIDTH 11 0
BBX 9 11 1 0
BITMAP
C180
C180
A180
E280
E280
D280
D480
D480
CC80
C880
C080
ENDCHAR
STARTCHAR uni004E
ENCODING 78
SWIDTH 714 0
DWIDTH 10 0
BBX 8 11 1 0
BITMAP
C3
E3
E3
F3
D3
DB
CB
C5
C5
C3
C3
ENDCHAR
STARTCHAR uni004F
ENCODING 79
SWIDTH 714 0
DWIDTH 10 0
BBX 9 11 1 0
BITMAP
3C00
6200
C100
8100
8180
8180
8180
8100
C100
6200
3C00
ENDCHAR
STARTCHAR uni0050
ENCODING 80
SWIDTH 643 0
DWIDTH 9 0
BBX 7 11 1 0
BITMAP
FC
C6
C2
C2
C2
C6
FC
C0
C0
C0
C0
ENDCHAR
STARTCHAR uni0051
ENCODING 81
SWIDTH 714 0
DWIDTH 10 0
BBX 9 13 1 -2
BITMAP
3C00
6200
C100
8100
8180
8180
8180
8100
C100
6200
3C00
0800
0780
ENDCHAR
STARTCHAR uni0052
ENCODING 82
SWIDTH 643 0
DWIDTH 9 0
BBX 8 11 1 0
BITMAP
FC
C6
C2
C2
C6
FC
C8
CC
C4
C6
C2
ENDCHAR
STARTCHAR uni0053
ENCODING 83
SWIDTH 571 0
DWIDTH 8 0
BBX 7 11 1 0
BITMAP
78
C4
80
C0
60
38
0C
06
06
C4
78
ENDCHAR
STARTCHAR uni0054
ENCODING 84
SWIDTH 571 0
DWIDTH 8 0
BBX 8 11 0 0
BITMAP
FF
08
08
08
08
08
08
08
08
08
08
ENDCHAR
STARTCHAR uni0055
ENCODING 85
SWIDTH 714 0
DWIDTH 10 0
BBX 8 11 1 0
BITMAP
C3
C3
C3
C3
C3
C3
C3
C3
42
66
3C
ENDCHAR
STARTCHAR uni0056
ENCODING 86
SWIDTH 571 0
DWIDTH 8 0
BBX 8 11 0 0
BITMAP
81
C3
42
42
66
24
24
24
1C
18
18
ENDCHAR
STARTCHAR uni0057
ENCODING 87
SWIDTH 857 0
DWIDTH 12 0
BBX 12 11 0 0
BITMAP
C610
4630
4620
4520
4520
6920
2920
29C0
28C0
30C0
30C0
ENDCHAR
STARTCHAR uni0058
ENCODING 88
SWIDTH 571 0
DWIDTH 8 0
BBX 8 11 0 0
BITMAP
42
66
24
34
18
18
18
24
24
42
C3
ENDCHAR
STARTCHAR uni0059
ENCODING 89
SWIDTH 500 0
DWIDTH 7 0
BBX 7 11 0 0
BITMAP
C2
46
44
24
28
38
10
10
10
10
10
ENDCHAR
STARTCHAR uni005A
ENCODING 90
SWIDTH 571 0
DWIDTH 8 0
BBX 7 11 1 0
BITMAP
FE
04
0C
08
18
10
20
60
40
C0
FE
ENDCHAR
STARTCHAR uni005B
ENCODING 91
SWIDTH 357 0
DWIDTH 5 0
BBX 3 14 1 -3
BITMAP
E0
80
80
80
80
80
80
80
80
80
80
80
80
E0
ENDCHAR
STARTCHAR uni005C
ENCODING 92
SWIDTH 357 0
DWIDTH 5 0
BBX 5 14 0 -3
BITMAP
80
40
40
40
20
20
20
20
10
10
10
08
08
08
ENDCHAR
STARTCHAR uni005D
ENCODING 93
SWIDTH 357 0
DWIDTH 5 0
BBX 3 14 0 -3
BITMAP
E0
20
20
20
20
20
20
20
20
20
20
20
20
E0
ENDCHAR
STARTCHAR uni005E
ENCODING 94
SWIDTH 571 0
DWIDTH 8 0
BBX 6 6 1 4
BITMAP
30
30
58
48
C8
84
ENDCHAR
STARTCHAR uni005F
ENCODING 95
SWIDTH 571 0
DWIDTH 8 0
BBX 8 1 0 -2
BITMAP
FF
ENDCHAR
STARTCHAR uni0060
ENCODING 96
SWIDTH 571 0
DWIDTH 8 0
BBX 3 3 2 9
BITMAP
C0
40
20
ENDCHAR
STARTCHAR uni0061
ENCODING 97
SWIDTH 571 0
DWIDTH 8 0
BBX 6 8 1 0
BITMAP
78
88
0C
3C
CC
8C
8C
F4
ENDCHAR
STARTCHAR uni0062
ENCODING 98
SWIDTH 643 0
DWIDTH 9 0
BBX 7 11 1 0
BITMAP
C0
C0
C0
FC
C4
C6
C2
C2
C6
C4
B8
ENDCHAR
STARTCHAR uni0063
ENCODING 99
SWIDTH 500 0
DWIDTH 7 0
BBX 6 8 1 0
BITMAP
38
C0
80
80
80
80
C0
78
ENDCHAR
STARTCHAR uni0064
ENCODING 100
SWIDTH 643 0
DWIDTH 9 0
BBX 6 11 1 0
BITMAP
04
04
04
7C
C4
84
84
84
84
CC
74
ENDCHAR
STARTCHAR uni0065
ENCODING 101
SWIDTH 571 0
DWIDTH 8 0
BBX 6 8 1 0
BITMAP
78
CC
84
FC
80
80
C4
78
ENDCHAR
STARTCHAR uni0066
ENCODING 102
SWIDTH 357 0
DWIDTH 5 0
BBX 5 12 0 0
BITMAP
38
20
60
60
F0
60
60
60
60
60
60
60
ENDCHAR
STARTCHAR uni0067
ENCODING 103
SWIDTH 571 0
DWIDTH 8 0
BBX 7 12 1 -4
BITMAP
7E
C8
8C
C8
78
80
80
7C
86
86
84
78
ENDCHAR
STARTCHAR uni0068
ENCODING 104
SWIDTH 643 0
DWIDTH 9 0
BBX 6 11 1 0
BITMAP
C0
C0
C0
FC
C4
C4
C4
C4
C4
C4
C4
ENDCHAR
STARTCHAR uni0069
ENCODING 105
SWIDTH 286 0
DWIDTH 4 0
BBX 2 11 1 0
BITMAP
C0
80
00
C0
C0
C0
C0
C0
C0
C0
C0
ENDCHAR
STARTCHAR uni006A
ENCODING 106
SWIDTH 286 0
DWIDTH 4 0
BBX 4 15 -1 -4
BITMAP
30
20
00
30
30
30
30
30
30
30
30
30
30
20
E0
ENDCHAR
STARTCHAR uni006B
ENCODING 107
SWIDTH 571 0
DWIDTH 8 0
BBX 7 12 1 0
BITMAP
C0
C0
C0
C0
CC
C8
D0
F0
F0
C8
CC
C4
ENDCHAR
STARTCHAR uni006C
ENCODING 108
SWIDTH 286 0
DWIDTH 4 0
BBX 2 11 1 0
BITMAP
C0
C0
C0
C0
C0
C0
C0
C0
C0
C0
40
ENDCHAR
STARTCHAR uni006D
ENCODING 109
SWIDTH 929 0
DWIDTH 13 0
BBX 11 8 1 0
BITMAP
B9C0
CE60
C460
C460
C460
C460
C460
C460
ENDCHAR
STARTCHAR uni006E
ENCODING 110
SWIDTH 643 0
DWIDTH 9 0
BBX 6 8 1 0
BITMAP
BC
C4
C4
C4
C4
C4
C4
C4
ENDCHAR
STARTCHAR uni006F
ENCODING 111
SWIDTH 571 0
DWIDTH 8 0
BBX 7 8 1 0
BITMAP
78
CC
86
86
86
86
CC
78
ENDCHAR
STARTCHAR uni0070
ENCODING 112
SWIDTH 643 0
DWIDTH 9 0
BBX 7 12 1 -4
BITMAP
BC
C4
C6
C2
C2
C6
C4
F8
C0
C0
C0
C0
ENDCHAR
STARTCHAR uni0071
ENCODING 113
SWIDTH 643 0
DWIDTH 9 0
BBX 6 12 1 -4
BITMAP
7C
C4
84
84
84
84
CC
74
04
04
04
04
ENDCHAR
STARTCHAR uni0072
ENCODING 114
SWIDTH 357 0
DWIDTH 5 0
BBX 4 8 1 0
BITMAP
B0
A0
C0
C0
C0
C0
C0
C0
ENDCHAR
STARTCHAR uni0073
ENCODING 115
SWIDTH 500 0
DWIDTH 7 0
BBX 6 8 0 0
BITMAP
38
40
40
70
1C
04
44
78
ENDCHAR
STARTCHAR uni0074
ENCODING 116
SWIDTH 357 0
DWIDTH 5 0
BBX 5 10 0 0
BITMAP
20
20
F8
60
60
60
60
20
20
38
ENDCHAR
STARTCHAR uni0075
ENCODING 117
SWIDTH 643 0
DWIDTH 9 0
BBX 6 8 1 0
BITMAP
84
84
84
84
84
84
CC
74
ENDCHAR
STARTCHAR uni0076
ENCODING 118
SWIDTH 500 0
DWIDTH 7 0
BBX 7 8 0 0
BITMAP
C2
46
44
64
2C
28
28
18
ENDCHAR
STARTCHAR uni0077
ENCODING 119
SWIDTH 786 0
DWIDTH 11 0
BBX 11 8 0 0
BITMAP
4420
4640
4A40
6A40
2A40
2980
3180
3180
ENDCHAR
STARTCHAR uni0078
ENCODING 120
SWIDTH 500 0
DWIDTH 7 0
BBX 7 8 0 0
BITMAP
44
6C
28
38
38
28
4C
44
ENDCHAR
STARTCHAR uni0079
ENCODING 121
SWIDTH 500 0
DWIDTH 7 0
BBX 7 12 0 -4
BITMAP
C2
46
44
64
24
28
18
18
10
10
30
60
ENDCHAR
STARTCHAR uni007A
ENCODING 122
SWIDTH 500 0
DWIDTH 7 0
BBX 6 8 0 0
BITMAP
7C
0C
08
10
30
20
40
FC
ENDCHAR
STARTCHAR uni007B
ENCODING 123
SWIDTH 357 0
DWIDTH 5 0
BBX 3 14 1 -3
BITMAP
60
40
40
40
40
40
80
40
40
40
40
40
40
60
ENDCHAR
STARTCHAR uni007C
ENCODING 124
SWIDTH 286 0
DWIDTH 4 0
BBX 1 16 1 -4
BITMAP
80
80
80
80
80
80
80
80
80
80
80
80
80
80
80
80
ENDCHAR
STARTCHAR uni007D
ENCODING 125
SWIDTH 357 0
DWIDTH 5 0
BBX 4 14 0 -3
BITMAP
E0
20
20
20
20
20
10
20
20
20
20
20
20
C0
ENDCHAR
STARTCHAR uni007E
ENCODING 126
SWIDTH 571 0
DWIDTH 8 0
BBX 6 3 1 4
BITMAP
E0
A4
18
ENDCHAR
STARTCHAR uni00A0
ENCODING 160
SWIDTH 214 0
DWIDTH 3 0
BBX 1 1 0 0
BITMAP
00
ENDCHAR
STARTCHAR uni00A4
ENCODING 164
SWIDTH 571 0
DWIDTH 8 0
BBX 7 7 0 2
BITMAP
7A
66
42
42
42
64
7A
ENDCHAR
STARTCHAR uni00A7
ENCODING 167
SWIDTH 1000 0
DWIDTH 14 0
BBX 6 13 4 -2
BITMAP
38
C0
80
C0
B8
8C
84
E4
3C
0C
04
8C
70
ENDCHAR
STARTCHAR uni00A8
ENCODING 168
SWIDTH 571 0
DWIDTH 8 0
BBX 5 2 2 9
BITMAP
90
90
ENDCHAR
STARTCHAR uni00B0
ENCODING 176
SWIDTH 357 0
DWIDTH 5 0
BBX 4 4 1 7
BITMAP
40
A0
90
E0
ENDCHAR
STARTCHAR uni00B1
ENCODING 177
SWIDTH 1000 0
DWIDTH 14 0
BBX 10 11 2 0
BITMAP
0800
0800
0800
0800
FFC0
0800
0800
0800
0000
0000
FFC0
ENDCHAR
STARTCHAR uni00B7
ENCODING 183
SWIDTH 1000 0
DWIDTH 14 0
BBX 2 3 6 3
BITMAP
C0
C0
C0
ENDCHAR
STARTCHAR uni00D7
ENCODING 215
SWIDTH 1000 0
DWIDTH 14 0
BBX 10 9 2 0
BITMAP
4080
6180
3300
1E00
0C00
1E00
3300
6180
4080
ENDCHAR
STARTCHAR uni00E0
ENCODING 224
SWIDTH 571 0
DWIDTH 8 0
BBX 6 12 1 0
BITMAP
60
20
10
00
78
88
0C
3C
CC
8C
8C
F4
ENDCHAR
STARTCHAR uni00E1
ENCODING 225
SWIDTH 571 0
DWIDTH 8 0
BBX 6 12 1 0
BITMAP
08
10
00
00
78
88
0C
3C
CC
8C
8C
F4
ENDCHAR
STARTCHAR uni00E8
ENCODING 232
SWIDTH 571 0
DWIDTH 8 0
BBX 6 12 1 0
BITMAP
60
20
10
00
78
CC
84
FC
80
80
C4
78
ENDCHAR
STARTCHAR uni00E9
ENCODING 233
SWIDTH 571 0
DWIDTH 8 0
BBX 6 12 1 0
BITMAP
08
10
00
00
78
CC
84
FC
80
80
C4
78
ENDCHAR
STARTCHAR uni00EA
ENCODING 234
SWIDTH 571 0
DWIDTH 8 0
BBX 6 12 1 0
BITMAP
30
68
40
00
78
CC
84
FC
80
80
C4
78
ENDCHAR
STARTCHAR uni00EC
ENCODING 236
SWIDTH 286 0
DWIDTH 4 0
BBX 3 13 0 0
BITMAP
80
C0
40
00
00
60
60
60
60
60
60
60
60
ENDCHAR
STARTCHAR uni00ED
ENCODING 237
SWIDTH 286 0
DWIDTH 4 0
BBX 3 13 1 0
BITMAP
00
60
C0
00
00
C0
C0
C0
C0
C0
C0
C0
C0
ENDCHAR
STARTCHAR uni00F2
ENCODING 242
SWIDTH 571 0
DWIDTH 8 0
BBX 7 12 1 0
BITMAP
60
30
10
00
78
CC
86
86
86
86
CC
78
ENDCHAR
STARTCHAR uni00F3
ENCODING 243
SWIDTH 571 0
DWIDTH 8 0
BBX 7 12 1 0
BITMAP
08
10
00
00
78
CC
86
86
86
86
CC
78
ENDCHAR
STARTCHAR uni00F7
ENCODING 247
SWIDTH 1000 0
DWIDTH 14 0
BBX 10 10 2 0
BITMAP
0C00
0C00
0000
0000
0000
FFC0
0000
0000
0C00
0C00
ENDCHAR
STARTCHAR uni00F9
ENCODING 249
SWIDTH 643 0
DWIDTH 9 0
BBX 6 13 1 0
BITMAP
00
60
30
10
00
84
84
84
84
84
84
CC
74
ENDCHAR
STARTCHAR uni00FA
ENCODING 250
SWIDTH 643 0
DWIDTH 9 0
BBX 6 13 1 0
BITMAP
08
08
10
00
00
84
84
84
84
84
84
CC
74
ENDCHAR
STARTCHAR uni00FC
ENCODING 252
SWIDTH 643 0
DWIDTH 9 0
BBX 6 11 1 0
BITMAP
48
48
00
84
84
84
84
84
84
CC
74
ENDCHAR
STARTCHAR uni0101
ENCODING 257
SWIDTH 571 0
DWIDTH 8 0
BBX 6 11 1 0
BITMAP
78
00
00
78
88
0C
3C
CC
8C
8C
F4
ENDCHAR
STARTCHAR uni0113
ENCODING 275
SWIDTH 571 0
DWIDTH 8 0
BBX 6 11 1 0
BITMAP
78
00
00
78
CC
84
FC
80
80
C4
78
ENDCHAR
STARTCHAR uni011B
ENCODING 283
SWIDTH 571 0
DWIDTH 8 0
BBX 6 12 1 0
BITMAP
40
68
30
00
78
CC
84
FC
80
80
C4
78
ENDCHAR
STARTCHAR uni012B
ENCODING 299
SWIDTH 286 0
DWIDTH 4 0
BBX 4 11 0 0
BITMAP
F0
00
00
60
60
60
60
60
60
60
60
ENDCHAR
STARTCHAR uni014D
ENCODING 333
SWIDTH 571 0
DWIDTH 8 0
BBX 7 11 1 0
BITMAP
78
00
00
78
CC
86
86
86
86
CC
78
ENDCHAR
STARTCHAR uni016B
ENCODING 363
SWIDTH 643 0
DWIDTH 9 0
BBX 6 11 1 0
BITMAP
78
00
00
84
84
84
84
84
84
CC
74
ENDCHAR
STARTCHAR uni01CE
ENCODING 462
SWIDTH 571 0
DWIDTH 8 0
BBX 6 12 1 0
BITMAP
40
68
30
00
78
88
0C
3C
CC
8C
8C
F4
ENDCHAR
STARTCHAR uni01D0
ENCODING 464
SWIDTH 286 0
DWIDTH 4 0
BBX 4 12 0 0
BITMAP
00
B0
60
00
60
60
60
60
60
60
60
60
ENDCHAR
STARTCHAR uni01D2
ENCODING 466
SWIDTH 571 0
DWIDTH 8 0
BBX 7 12 1 0
BITMAP
40
68
30
00
78
CC
86
86
86
86
CC
78
ENDCHAR
STARTCHAR uni01D4
ENCODING 468
SWIDTH 643 0
DWIDTH 9 0
BBX 6 12 1 0
BITMAP
40
68
30
00
84
84
84
84
84
84
CC
74
ENDCHAR
STARTCHAR uni01D6
ENCODING 470
SWIDTH 643 0
DWIDTH 9 0
BBX 6 13 1 0
BITMAP
78
00
48
00
00
84
84
84
84
84
84
CC
74
ENDCHAR
STARTCHAR uni01D8
ENCODING 472
SWIDTH 643 0
DWIDTH 9 0
BBX 6 14 1 0
BITMAP
00
10
00
48
00
00
84
84
84
84
84
84
CC
74
ENDCHAR
STARTCHAR uni01DA
ENCODING 474
SWIDTH 643 0
DWIDTH 9 0
BBX 6 14 1 0
BITMAP
48
30
00
48
00
00
84
84
84
84
84
84
CC
74
ENDCHAR
STARTCHAR uni01DC
ENCODING 476
SWIDTH 643 0
DWIDTH 9 0
BBX 6 14 1 0
BITMAP
20
20
00
48
00
00
84
84
84
84
84
84
CC
74
ENDCHAR
STARTCHAR uni02C7
ENCODING 711
SWIDTH 571 0
DWIDTH 8 0
BBX 7 5 1 6
BITMAP
C4
48
28
30
10
ENDCHAR
STARTCHAR uni02C9
ENCODING 713
SWIDTH 1000 0
DWIDTH 14 0
BBX 6 1 4 9
BITMAP
FC
ENDCHAR
STARTCHAR uni0391
ENCODING 913
SWIDTH 643 0
DWIDTH 9 0
BBX 8 11 0 0
BITMAP
18
18
14
34
24
26
62
7E
43
41
C1
ENDCHAR
STARTCHAR uni0392
ENCODING 914
SWIDTH 643 0
DWIDTH 9 0
BBX 8 11 1 0
BITMAP
FC
C6
C2
C2
C6
FC
C2
C3
C3
C2
FC
ENDCHAR
STARTCHAR uni0393
ENCODING 915
SWIDTH 571 0
DWIDTH 8 0
BBX 6 11 1 0
BITMAP
FC
C0
C0
C0
C0
C0
C0
C0
C0
C0
C0
ENDCHAR
STARTCHAR uni0394
ENCODING 916
SWIDTH 643 0
DWIDTH 9 0
BBX 9 11 0 0
BITMAP
0800
1400
1400
1400
3200
2200
2200
6100
4100
4100
FF80
ENDCHAR
STARTCHAR uni0395
ENCODING 917
SWIDTH 571 0
DWIDTH 8 0
BBX 6 11 1 0
BITMAP
FC
C0
C0
C0
C0
FC
C0
C0
C0
C0
FC
ENDCHAR
STARTCHAR uni0396
ENCODING 918
SWIDTH 571 0
DWIDTH 8 0
BBX 7 11 1 0
BITMAP
FE
04
0C
08
18
10
20
60
40
C0
FE
ENDCHAR
STARTCHAR uni0397
ENCODING 919
SWIDTH 714 0
DWIDTH 10 0
BBX 8 11 1 0
BITMAP
C3
C3
C3
C3
C3
FF
C3
C3
C3
C3
C3
ENDCHAR
STARTCHAR uni0398
ENCODING 920
SWIDTH 714 0
DWIDTH 10 0
BBX 9 11 1 0
BITMAP
3C00
6200
C300
8100
8180
BD80
8180
8100
C100
6200
3C00
ENDCHAR
STARTCHAR uni0399
ENCODING 921
SWIDTH 286 0
DWIDTH 4 0
BBX 2 11 1 0
BITMAP
C0
C0
C0
C0
C0
C0
C0
C0
C0
C0
C0
ENDCHAR
STARTCHAR uni039A
ENCODING 922
SWIDTH 643 0
DWIDTH 9 0
BBX 8 11 1 0
BITMAP
C2
C4
CC
D8
D0
E8
EC
C4
C6
C2
C3
ENDCHAR
STARTCHAR uni039B
ENCODING 923
SWIDTH 571 0
DWIDTH 8 0
BBX 8 11 0 0
BITMAP
18
18
1C
24
24
24
66
42
42
C3
81
ENDCHAR
STARTCHAR uni039C
ENCODING 924
SWIDTH 786 0
DWIDTH 11 0
BBX 9 11 1 0
BITMAP
C180
C180
A180
E280
E280
D280
D480
D480
CC80
C880
C080
ENDCHAR
STARTCHAR uni039D
ENCODING 925
SWIDTH 714 0
DWIDTH 10 0
BBX 8 11 1 0
BITMAP
C3
E3
E3
F3
D3
DB
CB
C5
C5
C3
C3
ENDCHAR
STARTCHAR uni039E
ENCODING 926
SWIDTH 571 0
DWIDTH 8 0
BBX 7 11 1 0
BITMAP
FC
00
00
00
00
78
00
00
00
00
FE
ENDCHAR
STARTCHAR uni039F
ENCODING 927
SWIDTH 714 0
DWIDTH 10 0
BBX 9 11 1 0
BITMAP
3C00
6200
C100
8100
8180
8180
8180
8100
C100
6200
3C00
ENDCHAR
STARTCHAR uni03A0
ENCODING 928
SWIDTH 714 0
DWIDTH 10 0
BBX 8 11 1 0
BITMAP
FF
C3
C3
C3
C3
C3
C3
C3
C3
C3
C3
ENDCHAR
STARTCHAR uni03A1
ENCODING 929
SWIDTH 643 0
DWIDTH 9 0
BBX 7 11 1 0
BITMAP
FC
C6
C2
C2
C2
C6
FC
C0
C0
C0
C0
ENDCHAR
STARTCHAR uni03A3
ENCODING 931
SWIDTH 571 0
DWIDTH 8 0
BBX 7 11 1 0
BITMAP
FC
C0
40
20
10
10
30
20
40
C0
FE
ENDCHAR
STARTCHAR uni03A4
ENCODING 932
SWIDTH 571 0
DWIDTH 8 0
BBX 8 11 0 0
BITMAP
FF
08
08
08
08
08
08
08
08
08
08
ENDCHAR
STARTCHAR uni03A5
ENCODING 933
SWIDTH 500 0
DWIDTH 7 0
BBX 7 11 0 0
BITMAP
C2
46
44
24
28
38
10
10
10
10
10
ENDCHAR
STARTCHAR uni03A6
ENCODING 934
SWIDTH 786 0
DWIDTH 11 0
BBX 10 10 1 0
BITMAP
0800
3E00
4980
8880
8880
8880
8880
4980
3E00
0800
ENDCHAR
STARTCHAR uni03A7
ENCODING 935
SWIDTH 571 0
DWIDTH 8 0
BBX 8 11 0 0
BITMAP
42
66
24
34
18
18
18
24
24
42
C3
ENDCHAR
STARTCHAR uni03A8
ENCODING 936
SWIDTH 786 0
DWIDTH 11 0
BBX 9 11 1 0
BITMAP
8880
8880
8880
8880
C980
6B00
3E00
0800
0800
0800
0800
ENDCHAR
STARTCHAR uni03A9
ENCODING 937
SWIDTH 786 0
DWIDTH 11 0
BBX 9 11 1 0
BITMAP
3C00
6300
C100
8100
8180
8180
8180
C100
4100
6200
E780
ENDCHAR
STARTCHAR uni03B1
ENCODING 945
SWIDTH 643 0
DWIDTH 9 0
BBX 8 8 1 0
BITMAP
72
CA
86
84
84
84
CC
76
ENDCHAR
STARTCHAR uni03B2
ENCODING 946
SWIDTH 643 0
DWIDTH 9 0
BBX 7 15 1 -3
BITMAP
38
4C
C4
C4
8C
98
84
82
82
82
C6
BC
80
C0
C0
ENDCHAR
STARTCHAR uni03B3
ENCODING 947
SWIDTH 571 0
DWIDTH 8 0
BBX 7 11 0 -3
BITMAP
C2
42
66
24
24
18
18
10
10
10
10
ENDCHAR
STARTCHAR uni03B4
ENCODING 948
SWIDTH 571 0
DWIDTH 8 0
BBX 7 12 1 0
BITMAP
7C
40
40
60
30
68
C4
84
86
84
C4
78
ENDCHAR
STARTCHAR uni03B5
ENCODING 949
SWIDTH 500 0
DWIDTH 7 0
BBX 6 8 1 0
BITMAP
78
C0
80
70
80
80
80
78
ENDCHAR
STARTCHAR uni03B6
ENCODING 950
SWIDTH 500 0
DWIDTH 7 0
BBX 6 14 1 -3
BITMAP
F8
18
30
60
40
C0
80
80
80
C0
70
08
08
08
ENDCHAR
STARTCHAR uni03B7
ENCODING 951
SWIDTH 571 0
DWIDTH 8 0
BBX 6 11 1 -3
BITMAP
9C
A4
C4
C4
C4
C4
C4
C4
04
04
04
ENDCHAR
STARTCHAR uni03B8
ENCODING 952
SWIDTH 571 0
DWIDTH 8 0
BBX 6 11 1 0
BITMAP
78
48
C4
84
84
FC
84
84
C4
48
38
ENDCHAR
STARTCHAR uni03B9
ENCODING 953
SWIDTH 286 0
DWIDTH 4 0
BBX 3 8 1 0
BITMAP
C0
C0
C0
C0
80
80
80
60
ENDCHAR
STARTCHAR uni03BA
ENCODING 954
SWIDTH 571 0
DWIDTH 8 0
BBX 7 8 1 0
BITMAP
84
CC
D0
F0
F0
C8
CC
84
ENDCHAR
STARTCHAR uni03BB
ENCODING 955
SWIDTH 571 0
DWIDTH 8 0
BBX 8 11 0 0
BITMAP
E0
10
18
08
18
1C
24
24
66
42
C2
ENDCHAR
STARTCHAR uni03BC
ENCODING 956
SWIDTH 643 0
DWIDTH 9 0
BBX 7 11 1 -3
BITMAP
C4
C4
C4
C4
C4
C4
CC
B6
80
80
C0
ENDCHAR
STARTCHAR uni03BD
ENCODING 957
SWIDTH 500 0
DWIDTH 7 0
BBX 7 8 0 0
BITMAP
C2
42
66
24
24
3C
18
18
ENDCHAR
STARTCHAR uni03BE
ENCODING 958
SWIDTH 500 0
DWIDTH 7 0
BBX 7 14 0 -3
BITMAP
FC
20
20
20
30
1C
60
40
40
40
38
0E
06
04
ENDCHAR
STARTCHAR uni03BF
ENCODING 959
SWIDTH 571 0
DWIDTH 8 0
BBX 7 8 1 0
BITMAP
78
CC
84
86
86
84
CC
78
ENDCHAR
STARTCHAR uni03C0
ENCODING 960
SWIDTH 643 0
DWIDTH 9 0
BBX 9 8 0 0
BITMAP
FF80
2200
2200
2200
2200
2200
2200
2380
ENDCHAR
STARTCHAR uni03C1
ENCODING 961
SWIDTH 643 0
DWIDTH 9 0
BBX 7 11 1 -3
BITMAP
38
44
C6
82
86
86
C4
B8
80
80
80
ENDCHAR
STARTCHAR uni03C3
ENCODING 963
SWIDTH 643 0
DWIDTH 9 0
BBX 7 8 1 0
BITMAP
7E
CC
84
84
84
84
CC
78
ENDCHAR
STARTCHAR uni03C4
ENCODING 964
SWIDTH 500 0
DWIDTH 7 0
BBX 7 8 0 0
BITMAP
FE
10
10
10
10
10
10
1C
ENDCHAR
STARTCHAR uni03C5
ENCODING 965
SWIDTH 571 0
DWIDTH 8 0
BBX 6 8 1 0
BITMAP
8C
84
84
84
84
84
CC
78
ENDCHAR
STARTCHAR uni03C6
ENCODING 966
SWIDTH 786 0
DWIDTH 11 0
BBX 9 13 1 -3
BITMAP
0800
0800
3E00
4B00
8980
8880
8880
8980
4B00
3E00
0800
0800
0800
ENDCHAR
STARTCHAR uni03C7
ENCODING 967
SWIDTH 571 0
DWIDTH 8 0
BBX 8 11 0 -3
BITMAP
C2
44
64
38
18
18
38
2C
64
42
C3
ENDCHAR
STARTCHAR uni03C8
ENCODING 968
SWIDTH 786 0
DWIDTH 11 0
BBX 9 13 1 -3
BITMAP
0800
0800
8900
8980
8880
8880
8880
8980
4900
3E00
0800
0800
0800
ENDCHAR
STARTCHAR uni03C9
ENCODING 969
SWIDTH 786 0
DWIDTH 11 0
BBX 9 8 1 0
BITMAP
4100
C180
8080
8880
8880
8880
D980
7700
ENDCHAR
STARTCHAR uni0401
ENCODING 1025
SWIDTH 571 0
DWIDTH 8 0
BBX 6 14 1 0
BITMAP
00
6C
00
FC
C0
C0
C0
C0
FC
C0
C0
C0
C0
FC
ENDCHAR
STARTCHAR uni0410
ENCODING 1040
SWIDTH 643 0
DWIDTH 9 0
BBX 8 11 0 0
BITMAP
18
18
14
34
24
26
62
7E
43
41
C1
ENDCHAR
STARTCHAR uni0411
ENCODING 1041
SWIDTH 643 0
DWIDTH 9 0
BBX 7 11 1 0
BITMAP
FE
C0
C0
C0
C0
FC
C2
C2
C2
C6
FC
ENDCHAR
STARTCHAR uni0412
ENCODING 1042
SWIDTH 643 0
DWIDTH 9 0
BBX 8 11 1 0
BITMAP
FC
C6
C2
C2
C6
FC
C2
C3
C3
C2
FC
ENDCHAR
STARTCHAR uni0413
ENCODING 1043
SWIDTH 571 0
DWIDTH 8 0
BBX 6 11 1 0
BITMAP
FC
C0
C0
C0
C0
C0
C0
C0
C0
C0
C0
ENDCHAR
STARTCHAR uni0414
ENCODING 1044
SWIDTH 714 0
DWIDTH 10 0
BBX 10 14 0 -3
BITMAP
1F00
1100
1100
1100
1100
3100
2100
2100
2100
6100
FFC0
C0C0
C080
4080
ENDCHAR
STARTCHAR uni0415
ENCODING 1045
SWIDTH 571 0
DWIDTH 8 0
BBX 6 11 1 0
BITMAP
FC
C0
C0
C0
C0
FC
C0
C0
C0
C0
FC
ENDCHAR
STARTCHAR uni0416
ENCODING 1046
SWIDTH 929 0
DWIDTH 13 0
BBX 12 11 0 0
BITMAP
C230
6220
2260
3240
12C0
1F80
1240
2240
2220
4230
C210
ENDCHAR
STARTCHAR uni0417
ENCODING 1047
SWIDTH 643 0
DWIDTH 9 0
BBX 7 11 1 0
BITMAP
78
CC
04
04
04
38
06
02
02
C6
78
ENDCHAR
STARTCHAR uni0418
ENCODING 1048
SWIDTH 714 0
DWIDTH 10 0
BBX 8 11 1 0
BITMAP
C3
C3
C5
C5
C9
D9
D1
F1
E1
E1
C1
ENDCHAR
STARTCHAR uni0419
ENCODING 1049
SWIDTH 714 0
DWIDTH 10 0
BBX 8 14 1 0
BITMAP
24
1C
00
C3
C3
C5
C5
C9
D9
D1
F1
E1
E1
C1
ENDCHAR
STARTCHAR uni041A
ENCODING 1050
SWIDTH 643 0
DWIDTH 9 0
BBX 8 11 1 0
BITMAP
C3
C6
C4
C8
C8
F8
C8
CC
C4
C2
C3
ENDCHAR
STARTCHAR uni041B
ENCODING 1051
SWIDTH 714 0
DWIDTH 10 0
BBX 8 11 0 0
BITMAP
1F
11
11
11
11
31
21
21
21
61
C1
ENDCHAR
STARTCHAR uni041C
ENCODING 1052
SWIDTH 786 0
DWIDTH 11 0
BBX 9 11 1 0
BITMAP
C180
C180
A180
E280
E280
D280
D480
D480
CC80
C880
C080
ENDCHAR
STARTCHAR uni041D
ENCODING 1053
SWIDTH 714 0
DWIDTH 10 0
BBX 8 11 1 0
BITMAP
C3
C3
C3
C3
C3
FF
C3
C3
C3
C3
C3
ENDCHAR
STARTCHAR uni041E
ENCODING 1054
SWIDTH 714 0
DWIDTH 10 0
BBX 9 11 1 0
BITMAP
3C00
6200
C100
8100
8180
8180
8180
8100
C100
6200
3C00
ENDCHAR
STARTCHAR uni041F
ENCODING 1055
SWIDTH 714 0
DWIDTH 10 0
BBX 8 11 1 0
BITMAP
FF
C3
C3
C3
C3
C3
C3
C3
C3
C3
C3
ENDCHAR
STARTCHAR uni0420
ENCODING 1056
SWIDTH 643 0
DWIDTH 9 0
BBX 7 11 1 0
BITMAP
FC
C6
C2
C2
C2
C6
FC
C0
C0
C0
C0
ENDCHAR
STARTCHAR uni0421
ENCODING 1057
SWIDTH 643 0
DWIDTH 9 0
BBX 7 11 1 0
BITMAP
3C
62
C0
80
80
80
80
80
C0
62
3C
ENDCHAR
STARTCHAR uni0422
ENCODING 1058
SWIDTH 571 0
DWIDTH 8 0
BBX 8 11 0 0
BITMAP
FF
08
08
08
08
08
08
08
08
08
08
ENDCHAR
STARTCHAR uni0423
ENCODING 1059
SWIDTH 571 0
DWIDTH 8 0
BBX 8 11 0 0
BITMAP
C1
42
42
26
24
34
1C
18
08
10
70
ENDCHAR
STARTCHAR uni0424
ENCODING 1060
SWIDTH 786 0
DWIDTH 11 0
BBX 10 11 1 0
BITMAP
0800
3F00
7B80
C880
88C0
88C0
88C0
C880
7B80
3F00
0800
ENDCHAR
STARTCHAR uni0425
ENCODING 1061
SWIDTH 571 0
DWIDTH 8 0
BBX 8 11 0 0
BITMAP
42
66
24
34
18
18
18
24
24
42
C3
ENDCHAR
STARTCHAR uni0426
ENCODING 1062
SWIDTH 714 0
DWIDTH 10 0
BBX 9 14 1 -3
BITMAP
C300
C300
C300
C300
C300
C300
C300
C300
C300
C300
FF80
0180
0180
0180
ENDCHAR
STARTCHAR uni0427
ENCODING 1063
SWIDTH 643 0
DWIDTH 9 0
BBX 7 11 1 0
BITMAP
82
82
82
82
C2
7E
02
02
02
02
02
ENDCHAR
STARTCHAR uni0428
ENCODING 1064
SWIDTH 1000 0
DWIDTH 14 0
BBX 11 11 1 0
BITMAP
C420
C420
C420
C420
C420
C420
C420
C420
C420
C420
FFE0
ENDCHAR
STARTCHAR uni0429
ENCODING 1065
SWIDTH 1000 0
DWIDTH 14 0
BBX 12 14 1 -3
BITMAP
C420
C420
C420
C420
C420
C420
C420
C420
C420
C420
FFF0
0010
0010
0010
ENDCHAR
STARTCHAR uni042A
ENCODING 1066
SWIDTH 786 0
DWIDTH 11 0
BBX 11 11 0 0
BITMAP
F800
0800
0800
0800
0800
0F80
0840
0860
0860
0840
0F80
ENDCHAR
STARTCHAR uni042B
ENCODING 1067
SWIDTH 857 0
DWIDTH 12 0
BBX 10 11 1 0
BITMAP
C040
C040
C040
C040
C040
FC40
C640
C240
C240
C640
FC40
ENDCHAR
STARTCHAR uni042C
ENCODING 1068
SWIDTH 643 0
DWIDTH 9 0
BBX 7 11 1 0
BITMAP
C0
C0
C0
C0
C0
FC
C6
C2
C2
C6
FC
ENDCHAR
STARTCHAR uni042D
ENCODING 1069
SWIDTH 643 0
DWIDTH 9 0
BBX 8 11 0 0
BITMAP
3C
46
03
01
01
3F
01
01
03
46
3C
ENDCHAR
STARTCHAR uni042E
ENCODING 1070
SWIDTH 1000 0
DWIDTH 14 0
BBX 12 11 1 0
BITMAP
C3C0
C660
C430
CC10
C810
F810
C810
CC10
C430
C620
C3C0
ENDCHAR
STARTCHAR uni042F
ENCODING 1071
SWIDTH 643 0
DWIDTH 9 0
BBX 8 11 0 0
BITMAP
3F
63
43
43
63
3F
13
33
23
63
43
ENDCHAR
STARTCHAR uni0430
ENCODING 1072
SWIDTH 571 0
DWIDTH 8 0
BBX 6 8 1 0
BITMAP
78
88
0C
3C
CC
8C
8C
F4
ENDCHAR
STARTCHAR uni0431
ENCODING 1073
SWIDTH 643 0
DWIDTH 9 0
BBX 7 12 1 0
BITMAP
0C
78
40
80
B8
C4
86
86
86
86
4C
38
ENDCHAR
STARTCHAR uni0432
ENCODING 1074
SWIDTH 571 0
DWIDTH 8 0
BBX 6 8 1 0
BITMAP
F8
C4
C4
F8
C4
C4
C4
F8
ENDCHAR
STARTCHAR uni0433
ENCODING 1075
SWIDTH 429 0
DWIDTH 6 0
BBX 5 8 1 0
BITMAP
F8
C0
C0
C0
C0
C0
C0
C0
ENDCHAR
STARTCHAR uni0434
ENCODING 1076
SWIDTH 571 0
DWIDTH 8 0
BBX 8 11 0 -3
BITMAP
3E
22
22
22
22
62
42
FF
C1
C1
C1
ENDCHAR
STARTCHAR uni0435
ENCODING 1077
SWIDTH 571 0
DWIDTH 8 0
BBX 6 8 1 0
BITMAP
78
CC
84
FC
80
80
C4
78
ENDCHAR
STARTCHAR uni0436
ENCODING 1078
SWIDTH 786 0
DWIDTH 11 0
BBX 10 8 0 0
BITMAP
C4C0
2480
2500
1F00
2580
2480
44C0
C440
ENDCHAR
STARTCHAR uni0437
ENCODING 1079
SWIDTH 500 0
DWIDTH 7 0
BBX 6 8 1 0
BITMAP
F0
08
08
70
08
0C
88
F0
ENDCHAR
STARTCHAR uni0438
ENCODING 1080
SWIDTH 643 0
DWIDTH 9 0
BBX 7 8 1 0
BITMAP
C6
CE
CE
D6
B6
A6
C6
C6
ENDCHAR
STARTCHAR uni0439
ENCODING 1081
SWIDTH 643 0
DWIDTH 9 0
BBX 7 12 1 0
BITMAP
44
44
38
00
C6
CE
CE
D6
B6
A6
C6
C6
ENDCHAR
STARTCHAR uni043A
ENCODING 1082
SWIDTH 571 0
DWIDTH 8 0
BBX 7 8 1 0
BITMAP
CC
C8
D0
F0
D8
C8
CC
C4
ENDCHAR
STARTCHAR uni043B
ENCODING 1083
SWIDTH 571 0
DWIDTH 8 0
BBX 7 8 0 0
BITMAP
3E
22
22
22
22
22
62
C2
ENDCHAR
STARTCHAR uni043C
ENCODING 1084
SWIDTH 714 0
DWIDTH 10 0
BBX 8 8 1 0
BITMAP
C3
C3
A5
A7
9B
9B
9B
83
ENDCHAR
STARTCHAR uni043D
ENCODING 1085
SWIDTH 643 0
DWIDTH 9 0
BBX 7 8 1 0
BITMAP
C6
C6
C6
FE
C6
C6
C6
C6
ENDCHAR
STARTCHAR uni043E
ENCODING 1086
SWIDTH 571 0
DWIDTH 8 0
BBX 7 8 1 0
BITMAP
78
CC
86
86
86
86
CC
78
ENDCHAR
STARTCHAR uni043F
ENCODING 1087
SWIDTH 643 0
DWIDTH 9 0
BBX 6 8 1 0
BITMAP
FC
C4
C4
C4
C4
C4
C4
C4
ENDCHAR
STARTCHAR uni0440
ENCODING 1088
SWIDTH 643 0
DWIDTH 9 0
BBX 7 12 1 -4
BITMAP
BC
C4
C6
C2
C2
C6
C4
F8
C0
C0
C0
C0
ENDCHAR
STARTCHAR uni0441
ENCODING 1089
SWIDTH 500 0
DWIDTH 7 0
BBX 6 8 1 0
BITMAP
38
C0
80
80
80
80
C0
78
ENDCHAR
STARTCHAR uni0442
ENCODING 1090
SWIDTH 500 0
DWIDTH 7 0
BBX 7 8 0 0
BITMAP
FE
10
10
10
10
10
10
10
ENDCHAR
STARTCHAR uni0443
ENCODING 1091
SWIDTH 500 0
DWIDTH 7 0
BBX 7 12 0 -4
BITMAP
C2
46
44
64
24
28
18
18
10
10
30
60
ENDCHAR
STARTCHAR uni0444
ENCODING 1092
SWIDTH 786 0
DWIDTH 11 0
BBX 10 15 1 -4
BITMAP
0800
0800
0800
7F00
C880
88C0
88C0
88C0
88C0
C880
7F00
0800
0800
0800
0800
ENDCHAR
STARTCHAR uni0445
ENCODING 1093
SWIDTH 500 0
DWIDTH 7 0
BBX 7 8 0 0
BITMAP
44
6C
28
38
38
28
4C
44
ENDCHAR
STARTCHAR uni0446
ENCODING 1094
SWIDTH 643 0
DWIDTH 9 0
BBX 7 11 1 -3
BITMAP
C4
C4
C4
C4
C4
C4
C4
FE
02
02
02
ENDCHAR
STARTCHAR uni0447
ENCODING 1095
SWIDTH 571 0
DWIDTH 8 0
BBX 6 8 1 0
BITMAP
8C
8C
8C
CC
7C
0C
0C
0C
ENDCHAR
STARTCHAR uni0448
ENCODING 1096
SWIDTH 857 0
DWIDTH 12 0
BBX 9 8 1 0
BITMAP
C880
C880
C880
C880
C880
C880
C880
FF80
ENDCHAR
STARTCHAR uni0449
ENCODING 1097
SWIDTH 857 0
DWIDTH 12 0
BBX 11 11 1 -3
BITMAP
C880
C880
C880
C880
C880
C880
C880
FFE0
0040
0040
0040
ENDCHAR
STARTCHAR uni044A
ENCODING 1098
SWIDTH 643 0
DWIDTH 9 0
BBX 9 8 0 0
BITMAP
F000
1000
1000
1F00
1100
1180
1100
1F00
ENDCHAR
STARTCHAR uni044B
ENCODING 1099
SWIDTH 786 0
DWIDTH 11 0
BBX 8 8 1 0
BITMAP
C1
C1
C1
F9
C9
CD
C9
F9
ENDCHAR
STARTCHAR uni044C
ENCODING 1100
SWIDTH 571 0
DWIDTH 8 0
BBX 6 8 1 0
BITMAP
C0
C0
C0
F8
CC
C4
CC
F8
ENDCHAR
STARTCHAR uni044D
ENCODING 1101
SWIDTH 500 0
DWIDTH 7 0
BBX 6 8 0 0
BITMAP
78
0C
04
3C
04
04
0C
78
ENDCHAR
STARTCHAR uni044E
ENCODING 1102
SWIDTH 857 0
DWIDTH 12 0
BBX 10 8 1 0
BITMAP
C700
C880
D8C0
F0C0
D0C0
D8C0
C880
C700
ENDCHAR
STARTCHAR uni044F
ENCODING 1103
SWIDTH 571 0
DWIDTH 8 0
BBX 7 8 0 0
BITMAP
3E
66
46
66
3E
36
26
46
ENDCHAR
STARTCHAR uni0451
ENCODING 1105
SWIDTH 571 0
DWIDTH 8 0
BBX 6 11 1 0
BITMAP
48
48
00
78
CC
84
FC
80
80
C4
78
ENDCHAR
STARTCHAR uni2015
ENCODING 8213
SWIDTH 1000 0
DWIDTH 14 0
BBX 12 1 1 4
BITMAP
FFF0
ENDCHAR
STARTCHAR uni2016
ENCODING 8214
SWIDTH 1000 0
DWIDTH 14 0
BBX 2 14 6 -2
BITMAP
C0
C0
C0
C0
C0
C0
C0
C0
C0
C0
C0
C0
C0
C0
ENDCHAR
STARTCHAR uni2018
ENCODING 8216
SWIDTH 1000 0
DWIDTH 14 0
BBX 2 4 11 8
BITMAP
40
80
C0
40
ENDCHAR
STARTCHAR uni2019
ENCODING 8217
SWIDTH 1000 0
DWIDTH 14 0
BBX 2 4 1 8
BITMAP
80
C0
40
80
ENDCHAR
STARTCHAR uni201C
ENCODING 8220
SWIDTH 1000 0
DWIDTH 14 0
BBX 4 4 9 8
BITMAP
50
A0
F0
D0
ENDCHAR
STARTCHAR uni201D
ENCODING 8221
SWIDTH 1000 0
DWIDTH 14 0
BBX 4 4 1 8
BITMAP
B0
F0
90
90
ENDCHAR
STARTCHAR uni2026
ENCODING 8230
SWIDTH 1000 0
DWIDTH 14 0
BBX 12 2 1 4
BITMAP
4620
4620
ENDCHAR
STARTCHAR uni2030
ENCODING 8240
SWIDTH 1000 0
DWIDTH 14 0
BBX 14 12 0 -1
BITMAP
2100
5200
9200
9400
9400
9910
5AA8
34A8
14A4
14A8
22A8
2110
ENDCHAR
STARTCHAR uni2032
ENCODING 8242
SWIDTH 286 0
DWIDTH 4 0
BBX 2 4 1 7
BITMAP
40
C0
80
80
ENDCHAR
STARTCHAR uni2033
ENCODING 8243
SWIDTH 500 0
DWIDTH 7 0
BBX 5 4 1 7
BITMAP
58
D0
90
90
ENDCHAR
STARTCHAR uni203B
ENCODING 8251
SWIDTH 1000 0
DWIDTH 14 0
BBX 10 10 2 0
BITMAP
8C40
4C80
2100
1200
CCC0
CCC0
1200
2100
4C80
8C40
ENDCHAR
STARTCHAR uni2103
ENCODING 8451
SWIDTH 1000 0
DWIDTH 14 0
BBX 12 12 1 -1
BITMAP
6000
A1E0
9310
A600
6400
0400
0400
0400
0400
0600
0310
01E0
ENDCHAR
STARTCHAR uni2116
ENCODING 8470
SWIDTH 1000 0
DWIDTH 14 0
BBX 13 10 1 0
BITMAP
C270
E690
A688
E688
D690
D670
CE00
CAF0
CE00
8600
ENDCHAR
STARTCHAR uni2160
ENCODING 8544
SWIDTH 1000 0
DWIDTH 14 0
BBX 2 11 6 0
BITMAP
C0
C0
C0
C0
C0
C0
C0
C0
C0
C0
C0
ENDCHAR
STARTCHAR uni2161
ENCODING 8545
SWIDTH 1000 0
DWIDTH 14 0
BBX 6 11 4 0
BITMAP
CC
CC
CC
CC
CC
CC
CC
CC
CC
CC
CC
ENDCHAR
STARTCHAR uni2162
ENCODING 8546
SWIDTH 1000 0
DWIDTH 14 0
BBX 10 11 2 0
BITMAP
CCC0
CCC0
CCC0
CCC0
CCC0
CCC0
CCC0
CCC0
CCC0
CCC0
CCC0
ENDCHAR
STARTCHAR uni2163
ENCODING 8547
SWIDTH 1000 0
DWIDTH 14 0
BBX 11 11 2 0
BITMAP
D820
D860
C840
C840
CC40
C480
C480
C480
C380
C300
C300
ENDCHAR
STARTCHAR uni2164
ENCODING 8548
SWIDTH 1000 0
DWIDTH 14 0
BBX 8 11 3 0
BITMAP
C1
C3
42
42
66
24
24
24
3C
18
18
ENDCHAR
STARTCHAR uni2165
ENCODING 8549
SWIDTH 1000 0
DWIDTH 14 0
BBX 11 11 1 0
BITMAP
8360
C360
4260
4260
6660
2460
2460
2460
3860
1860
1860
ENDCHAR
STARTCHAR uni2166
ENCODING 8550
SWIDTH 1000 0
DWIDTH 14 0
BBX 13 11 0 0
BITMAP
C2C8
C6C8
46C8
44C8
44C8
64C8
2CC8
28C8
28C8
38C8
18C8
ENDCHAR
STARTCHAR uni2167
ENCODING 8551
SWIDTH 1000 0
DWIDTH 14 0
BBX 13 11 0 0
BITMAP
8948
C948
4948
4948
4948
5148
5148
5148
3148
3148
3148
ENDCHAR
STARTCHAR uni2168
ENCODING 8552
SWIDTH 1000 0
DWIDTH 14 0
BBX 11 11 2 0
BITMAP
C840
CC40
C480
C680
C300
C300
C300
C480
C4C0
C840
C860
ENDCHAR
STARTCHAR uni2169
ENCODING 8553
SWIDTH 1000 0
DWIDTH 14 0
BBX 8 11 3 0
BITMAP
42
66
24
34
18
18
18
24
24
42
C3
ENDCHAR
STARTCHAR uni216A
ENCODING 8554
SWIDTH 1000 0
DWIDTH 14 0
BBX 11 11 1 0
BITMAP
4260
6660
2460
3C60
1860
1860
3860
2C60
6460
4660
C260
ENDCHAR
STARTCHAR uni216B
ENCODING 8555
SWIDTH 1000 0
DWIDTH 14 0
BBX 13 11 0 0
BITMAP
C6C8
44C8
6CC8
28C8
38C8
10C8
28C8
28C8
64C8
44C8
C2C8
ENDCHAR
STARTCHAR uni2190
ENCODING 8592
SWIDTH 1000 0
DWIDTH 14 0
BBX 13 7 0 1
BITMAP
0800
1000
2000
7FF8
2000
1000
0000
ENDCHAR
STARTCHAR uni2191
ENCODING 8593
SWIDTH 1000 0
DWIDTH 14 0
BBX 6 13 4 -1
BITMAP
00
30
68
A4
20
20
20
20
20
20
20
20
20
ENDCHAR
STARTCHAR uni2192
ENCODING 8594
SWIDTH 1000 0
DWIDTH 14 0
BBX 13 7 1 1
BITMAP
0080
0040
0020
FFF0
0020
0040
0080
ENDCHAR
STARTCHAR uni2193
ENCODING 8595
SWIDTH 1000 0
DWIDTH 14 0
BBX 6 13 4 -2
BITMAP
20
20
20
20
20
20
20
20
20
A4
68
30
00
ENDCHAR
STARTCHAR uni2208
ENCODING 8712
SWIDTH 1000 0
DWIDTH 14 0
BBX 10 10 2 0
BITMAP
3FC0
6000
C000
8000
8000
FFC0
8000
8000
4000
3FC0
ENDCHAR
STARTCHAR uni220F
ENCODING 8719
SWIDTH 1000 0
DWIDTH 14 0
BBX 8 13 3 -3
BITMAP
FF
81
81
81
81
81
81
81
81
81
81
81
81
ENDCHAR
STARTCHAR uni2211
ENCODING 8721
SWIDTH 1000 0
DWIDTH 14 0
BBX 8 11 3 -1
BITMAP
FF
40
60
30
10
08
10
30
60
C0
FF
ENDCHAR
STARTCHAR uni221A
ENCODING 8730
SWIDTH 1000 0
DWIDTH 14 0
BBX 14 14 0 -2
BITMAP
00FC
0100
0100
0200
0200
0200
0400
0400
0400
2800
E800
3800
1000
1000
ENDCHAR
STARTCHAR uni221D
ENCODING 8733
SWIDTH 1000 0
DWIDTH 14 0
BBX 12 6 0 2
BITMAP
3870
4480
8300
8300
4480
3870
ENDCHAR
STARTCHAR uni221E
ENCODING 8734
SWIDTH 1000 0
DWIDTH 14 0
BBX 14 6 0 2
BITMAP
3870
4488
8308
8308
4488
3870
ENDCHAR
STARTCHAR uni2220
ENCODING 8736
SWIDTH 1000 0
DWIDTH 14 0
BBX 11 10 1 0
BITMAP
0040
00C0
0080
0100
0200
0400
0800
1000
2000
7FE0
ENDCHAR
STARTCHAR uni2225
ENCODING 8741
SWIDTH 1000 0
DWIDTH 14 0
BBX 8 11 3 -1
BITMAP
08
08
11
12
22
24
44
48
88
10
10
ENDCHAR
STARTCHAR uni2227
ENCODING 8743
SWIDTH 1000 0
DWIDTH 14 0
BBX 10 11 2 0
BITMAP
0000
0C00
0C00
1200
1200
2100
2100
4080
4080
8040
8040
ENDCHAR
STARTCHAR uni2228
ENCODING 8744
SWIDTH 1000 0
DWIDTH 14 0
BBX 10 11 2 -1
BITMAP
8040
8040
4080
4080
2100
2100
1200
1200
0C00
0C00
0000
ENDCHAR
STARTCHAR uni2229
ENCODING 8745
SWIDTH 1000 0
DWIDTH 14 0
BBX 10 12 2 -1
BITMAP
1E00
2100
4080
4080
8080
8040
8040
8040
8040
8040
8040
8040
ENDCHAR
STARTCHAR uni222A
ENCODING 8746
SWIDTH 1000 0
DWIDTH 14 0
BBX 10 11 2 -1
BITMAP
8040
8040
8040
8040
8040
8040
8080
4080
4080
2100
1E00
ENDCHAR
STARTCHAR uni222B
ENCODING 8747
SWIDTH 1000 0
DWIDTH 14 0
BBX 6 14 4 -2
BITMAP
1C
10
10
30
30
30
30
30
30
30
30
20
20
E0
ENDCHAR
STARTCHAR uni222E
ENCODING 8750
SWIDTH 1000 0
DWIDTH 14 0
BBX 6 14 4 -2
BITMAP
1C
10
10
30
30
78
B8
B8
78
30
30
20
20
E0
ENDCHAR
STARTCHAR uni2234
ENCODING 8756
SWIDTH 1000 0
DWIDTH 14 0
BBX 10 9 2 0
BITMAP
0C00
0C00
0000
0000
0000
0000
0000
C0C0
C0C0
ENDCHAR
STARTCHAR uni2235
ENCODING 8757
SWIDTH 1000 0
DWIDTH 14 0
BBX 10 9 2 0
BITMAP
C0C0
C0C0
0000
0000
0000
0000
0000
0C00
0C00
ENDCHAR
STARTCHAR uni2236
ENCODING 8758
SWIDTH 1000 0
DWIDTH 14 0
BBX 2 9 6 0
BITMAP
C0
C0
00
00
00
00
00
C0
C0
ENDCHAR
STARTCHAR uni2237
ENCODING 8759
SWIDTH 1000 0
DWIDTH 14 0
BBX 10 9 2 0
BITMAP
C0C0
C0C0
0000
0000
0000
0000
0000
C0C0
C0C0
ENDCHAR
STARTCHAR uni223D
ENCODING 8765
SWIDTH 1000 0
DWIDTH 14 0
BBX 14 6 0 2
BITMAP
3870
4088
8108
8208
4408
3870
ENDCHAR
STARTCHAR uni2248
ENCODING 8776
SWIDTH 1000 0
DWIDTH 14 0
BBX 10 6 2 2
BITMAP
7840
8C80
8300
3000
CC40
8780
ENDCHAR
STARTCHAR uni224C
ENCODING 8780
SWIDTH 1000 0
DWIDTH 14 0
BBX 14 10 0 0
BITMAP
3870
4188
8304
4608
3870
0000
0000
3FF0
0000
3FF0
ENDCHAR
STARTCHAR uni2260
ENCODING 8800
SWIDTH 1000 0
DWIDTH 14 0
BBX 10 10 2 0
BITMAP
0200
0200
0400
FFC0
0400
0800
FFC0
0800
1000
1000
ENDCHAR
STARTCHAR uni2261
ENCODING 8801
SWIDTH 1000 0
DWIDTH 14 0
BBX 10 8 2 1
BITMAP
FFC0
0000
0000
0000
FFC0
0000
0000
FFC0
ENDCHAR
STARTCHAR uni2264
ENCODING 8804
SWIDTH 1000 0
DWIDTH 14 0
BBX 11 11 1 0
BITMAP
0020
01C0
0600
3800
7000
1C00
0380
70E0
0C00
0300
00E0
ENDCHAR
STARTCHAR uni2265
ENCODING 8805
SWIDTH 1000 0
DWIDTH 14 0
BBX 11 11 2 0
BITMAP
8000
7000
0C00
0380
01C0
0700
3800
E1C0
0600
3800
C000
ENDCHAR
STARTCHAR uni226E
ENCODING 8814
SWIDTH 1000 0
DWIDTH 14 0
BBX 11 12 1 -1
BITMAP
0400
0460
05C0
0700
1C00
7400
6400
1C00
0600
0580
0460
0400
ENDCHAR
STARTCHAR uni226F
ENCODING 8815
SWIDTH 1000 0
DWIDTH 14 0
BBX 11 12 2 -1
BITMAP
0400
C400
6400
1C00
0700
05C0
04C0
0700
0C00
3400
C400
0400
ENDCHAR
STARTCHAR uni2299
ENCODING 8857
SWIDTH 1000 0
DWIDTH 14 0
BBX 10 12 2 -1
BITMAP
1E00
2100
4080
8040
8040
8040
8C40
8040
8040
4080
2100
1E00
ENDCHAR
STARTCHAR uni22A5
ENCODING 8869
SWIDTH 1000 0
DWIDTH 14 0
BBX 12 10 1 0
BITMAP
0400
0400
0400
0400
0400
0400
0400
0400
0400
FFF0
ENDCHAR
STARTCHAR uni2312
ENCODING 8978
SWIDTH 1000 0
DWIDTH 14 0
BBX 14 4 0 8
BITMAP
0FC0
3030
4008
0000
ENDCHAR
STARTCHAR uni2460
ENCODING 9312
SWIDTH 1000 0
DWIDTH 14 0
BBX 14 14 0 -2
BITMAP
0780
1860
2010
4308
8108
8108
8104
8104
8108
8108
4108
2010
1020
0FC0
ENDCHAR
STARTCHAR uni2461
ENCODING 9313
SWIDTH 1000 0
DWIDTH 14 0
BBX 14 14 0 -2
BITMAP
0780
1860
2010
4788
8088
8088
8084
8184
8308
8608
47C8
4010
3020
0FC0
ENDCHAR
STARTCHAR uni2462
ENCODING 9314
SWIDTH 1000 0
DWIDTH 14 0
BBX 14 14 0 -2
BITMAP
0780
1860
2010
4788
8088
8088
8304
8084
80C8
8888
4788
2010
1020
0FC0
ENDCHAR
STARTCHAR uni2463
ENCODING 9315
SWIDTH 1000 0
DWIDTH 14 0
BBX 14 14 0 -2
BITMAP
0780
1860
2010
4108
8308
8308
8504
8904
8FC8
8108
4108
2010
1020
0FC0
ENDCHAR
STARTCHAR uni2464
ENCODING 9316
SWIDTH 1000 0
DWIDTH 14 0
BBX 14 14 0 -2
BITMAP
0780
1860
2010
4788
8408
8408
8784
80C4
8048
8088
4788
2010
1020
0FC0
ENDCHAR
STARTCHAR uni2465
ENCODING 9317
SWIDTH 1000 0
DWIDTH 14 0
BBX 14 14 0 -2
BITMAP
0780
1860
2010
4388
8408
8808
8B84
8C84
8888
8488
4308
2010
1020
0FC0
ENDCHAR
STARTCHAR uni2466
ENCODING 9318
SWIDTH 1000 0
DWIDTH 14 0
BBX 14 14 0 -2
BITMAP
0780
1860
2010
4FC8
8088
8108
8104
8304
8208
8208
4208
2010
1020
0FC0
ENDCHAR
STARTCHAR uni2467
ENCODING 9319
SWIDTH 1000 0
DWIDTH 14 0
BBX 14 14 0 -2
BITMAP
0780
1860
2010
4788
8488
8488
8684
8584
8848
8CC8
4788
2010
1020
0FC0
ENDCHAR
STARTCHAR uni2468
ENCODING 9320
SWIDTH 1000 0
DWIDTH 14 0
BBX 14 14 0 -2
BITMAP
0780
1860
2010
4788
8488
8448
84C4
8744
80C8
8088
4708
2010
1020
0FC0
ENDCHAR
STARTCHAR uni2469
ENCODING 9321
SWIDTH 1000 0
DWIDTH 14 0
BBX 14 14 0 -2
BITMAP
0780
1860
2010
58C8
8928
8928
8924
8924
8928
8968
48C8
2010
1020
0FC0
ENDCHAR
STARTCHAR uni2474
ENCODING 9332
SWIDTH 1000 0
DWIDTH 14 0
BBX 14 14 0 -2
BITMAP
2010
4010
4308
4708
8108
8108
8104
8104
8108
8108
4108
47C8
4010
2010
ENDCHAR
STARTCHAR uni2475
ENCODING 9333
SWIDTH 1000 0
DWIDTH 14 0
BBX 14 14 0 -2
BITMAP
2010
4010
4788
48C8
8048
8048
8084
8084
8108
8208
4608
4FC8
4010
2010
ENDCHAR
STARTCHAR uni2476
ENCODING 9334
SWIDTH 1000 0
DWIDTH 14 0
BBX 14 14 0 -2
BITMAP
2010
4010
4788
48C8
8048
8084
8304
80C4
8048
8048
4048
48C8
4788
2010
ENDCHAR
STARTCHAR uni2477
ENCODING 9335
SWIDTH 1000 0
DWIDTH 14 0
BBX 14 14 0 -2
BITMAP
2010
4010
4188
4188
8288
8288
8484
8C84
8884
9FC8
4088
4088
4088
2010
ENDCHAR
STARTCHAR uni2478
ENCODING 9336
SWIDTH 1000 0
DWIDTH 14 0
BBX 14 14 0 -2
BITMAP
2010
4010
47C8
4408
8408
8408
8F84
80C4
8044
8048
4048
48C8
4788
2010
ENDCHAR
STARTCHAR uni2479
ENCODING 9337
SWIDTH 1000 0
DWIDTH 14 0
BBX 14 14 0 -2
BITMAP
2010
4010
4388
4448
8C08
8808
8B84
8CC4
8848
8848
4C48
44C8
4388
2010
ENDCHAR
STARTCHAR uni247A
ENCODING 9338
SWIDTH 1000 0
DWIDTH 14 0
BBX 14 14 0 -2
BITMAP
2010
4010
4FC8
4088
8088
8108
8104
8104
8208
8208
4208
4208
4208
2010
ENDCHAR
STARTCHAR uni247B
ENCODING 9339
SWIDTH 1000 0
DWIDTH 14 0
BBX 14 14 0 -2
BITMAP
2010
4010
4788
4CC8
8848
8C48
8684
8784
88C4
8848
4848
4CC8
4788
2010
ENDCHAR
STARTCHAR uni247C
ENCODING 9340
SWIDTH 1000 0
DWIDTH 14 0
BBX 14 14 0 -2
BITMAP
2010
4010
4708
4C88
8848
8848
88C4
8744
8048
8048
4088
4888
4708
2010
ENDCHAR
STARTCHAR uni247D
ENCODING 9341
SWIDTH 1000 0
DWIDTH 14 0
BBX 14 14 0 -2
BITMAP
2010
4010
58C8
4928
8928
8928
8924
8B24
8924
8928
4928
4928
48C8
2010
ENDCHAR
STARTCHAR uni247E
ENCODING 9342
SWIDTH 1000 0
DWIDTH 14 0
BBX 14 14 0 -2
BITMAP
2010
4010
4CC8
4448
8448
8448
8444
8444
8448
8448
4448
4448
4448
2010
ENDCHAR
STARTCHAR uni247F
ENCODING 9343
SWIDTH 1000 0
DWIDTH 14 0
BBX 14 14 0 -2
BITMAP
2010
4010
59C8
4828
8828
8828
8824
8844
8848
8888
4908
4BE8
4010
2010
ENDCHAR
STARTCHAR uni2480
ENCODING 9344
SWIDTH 1000 0
DWIDTH 14 0
BBX 14 14 0 -2
BITMAP
2010
4010
59C8
4828
8828
8824
88C4
8824
8828
8828
4828
4A28
49C8
2010
ENDCHAR
STARTCHAR uni2481
ENCODING 9345
SWIDTH 1000 0
DWIDTH 14 0
BBX 14 14 0 -2
BITMAP
2010
4010
5848
48C8
88C8
8948
8944
8A44
8BE8
8848
4848
4848
4010
2010
ENDCHAR
STARTCHAR uni2482
ENCODING 9346
SWIDTH 1000 0
DWIDTH 14 0
BBX 14 14 0 -2
BITMAP
2010
4010
59E8
4908
8908
8908
89C4
8824
8824
8828
4828
4A28
49C8
2010
ENDCHAR
STARTCHAR uni2483
ENCODING 9347
SWIDTH 1000 0
DWIDTH 14 0
BBX 14 14 0 -2
BITMAP
2010
4010
58E8
4928
8908
8908
8AC4
8B24
8A28
8928
4928
4928
48C8
2010
ENDCHAR
STARTCHAR uni2484
ENCODING 9348
SWIDTH 1000 0
DWIDTH 14 0
BBX 14 14 0 -2
BITMAP
2010
4010
5BE8
4828
8848
8848
8844
8884
8888
8888
4888
4888
4888
2010
ENDCHAR
STARTCHAR uni2485
ENCODING 9349
SWIDTH 1000 0
DWIDTH 14 0
BBX 14 14 0 -2
BITMAP
2010
4010
58C8
4928
8928
8928
88C4
88C4
8924
8A28
4A28
4928
48C8
2010
ENDCHAR
STARTCHAR uni2486
ENCODING 9350
SWIDTH 1000 0
DWIDTH 14 0
BBX 14 14 0 -2
BITMAP
2010
4010
58C8
4928
8928
8928
8924
89E4
8828
8828
4828
4968
49C8
2010
ENDCHAR
STARTCHAR uni2487
ENCODING 9351
SWIDTH 1000 0
DWIDTH 14 0
BBX 14 14 0 -2
BITMAP
2010
4010
5CE8
54A8
8298
8318
8514
8514
8D14
8918
50A8
5EA8
40E8
2010
ENDCHAR
STARTCHAR uni2488
ENCODING 9352
SWIDTH 1000 0
DWIDTH 14 0
BBX 10 10 2 0
BITMAP
3000
7000
1000
1000
1000
1000
1000
1000
10C0
FCC0
ENDCHAR
STARTCHAR uni2489
ENCODING 9353
SWIDTH 1000 0
DWIDTH 14 0
BBX 10 10 2 0
BITMAP
7800
8800
0C00
0C00
0800
1800
1000
2000
40C0
FCC0
ENDCHAR
STARTCHAR uni248A
ENCODING 9354
SWIDTH 1000 0
DWIDTH 14 0
BBX 10 10 2 0
BITMAP
7800
8C00
0400
0C00
3000
0C00
0400
0400
8CC0
78C0
ENDCHAR
STARTCHAR uni248B
ENCODING 9355
SWIDTH 1000 0
DWIDTH 14 0
BBX 10 10 2 0
BITMAP
1800
1800
2800
6800
4800
8800
FE00
0800
08C0
08C0
ENDCHAR
STARTCHAR uni248C
ENCODING 9356
SWIDTH 1000 0
DWIDTH 14 0
BBX 10 10 2 0
BITMAP
7C00
4000
4000
4000
7800
0C00
0400
0400
8CC0
78C0
ENDCHAR
STARTCHAR uni248D
ENCODING 9357
SWIDTH 1000 0
DWIDTH 14 0
BBX 10 10 2 0
BITMAP
3800
4400
C000
8000
B800
C400
8400
8400
44C0
38C0
ENDCHAR
STARTCHAR uni248E
ENCODING 9358
SWIDTH 1000 0
DWIDTH 14 0
BBX 8 10 3 0
BITMAP
FC
08
18
10
10
20
20
20
23
23
ENDCHAR
STARTCHAR uni248F
ENCODING 9359
SWIDTH 1000 0
DWIDTH 14 0
BBX 10 10 2 0
BITMAP
7800
4C00
C400
4400
3800
5800
8400
8400
C4C0
78C0
ENDCHAR
STARTCHAR uni2490
ENCODING 9360
SWIDTH 1000 0
DWIDTH 14 0
BBX 10 10 2 0
BITMAP
7800
CC00
8400
8400
CC00
7400
0400
0400
88C0
70C0
ENDCHAR
STARTCHAR uni2491
ENCODING 9361
SWIDTH 1000 0
DWIDTH 14 0
BBX 14 10 0 0
BITMAP
6380
E240
2460
2420
2420
2420
2420
2460
224C
238C
ENDCHAR
STARTCHAR uni2492
ENCODING 9362
SWIDTH 1000 0
DWIDTH 14 0
BBX 12 10 1 0
BITMAP
6300
E700
6100
6100
6100
6100
6100
6100
6130
6130
ENDCHAR
STARTCHAR uni2493
ENCODING 9363
SWIDTH 1000 0
DWIDTH 14 0
BBX 13 10 1 0
BITMAP
4700
C880
4080
4080
4080
4100
4300
4200
4418
4FD8
ENDCHAR
STARTCHAR uni2494
ENCODING 9364
SWIDTH 1000 0
DWIDTH 14 0
BBX 13 10 1 0
BITMAP
4780
C080
4080
4080
4300
4080
40C0
40C0
4898
4798
ENDCHAR
STARTCHAR uni2495
ENCODING 9365
SWIDTH 1000 0
DWIDTH 14 0
BBX 13 10 1 0
BITMAP
4180
C180
4280
4680
4480
4880
4FC0
4080
4098
4098
ENDCHAR
STARTCHAR uni2496
ENCODING 9366
SWIDTH 1000 0
DWIDTH 14 0
BBX 13 10 1 0
BITMAP
4780
C400
4400
4400
4780
4080
40C0
40C0
4898
4718
ENDCHAR
STARTCHAR uni2497
ENCODING 9367
SWIDTH 1000 0
DWIDTH 14 0
BBX 13 10 1 0
BITMAP
4380
C400
4400
4C00
4B80
4CC0
4840
4440
4498
4398
ENDCHAR
STARTCHAR uni2498
ENCODING 9368
SWIDTH 1000 0
DWIDTH 14 0
BBX 12 10 1 0
BITMAP
67C0
E0C0
6080
6080
6100
6100
6100
6100
6330
6330
ENDCHAR
STARTCHAR uni2499
ENCODING 9369
SWIDTH 1000 0
DWIDTH 14 0
BBX 13 10 1 0
BITMAP
4380
C4C0
4440
4440
4380
4580
4840
4840
4458
4798
ENDCHAR
STARTCHAR uni249A
ENCODING 9370
SWIDTH 1000 0
DWIDTH 14 0
BBX 13 10 1 0
BITMAP
4700
C480
4840
4840
44C0
4740
4040
40C0
4098
4718
ENDCHAR
STARTCHAR uni249B
ENCODING 9371
SWIDTH 1000 0
DWIDTH 14 0
BBX 14 10 0 0
BITMAP
71C0
C920
0B20
0A20
0A20
1220
1220
2320
4128
FCCC
ENDCHAR
STARTCHAR uni2500
ENCODING 9472
SWIDTH 1000 0
DWIDTH 14 0
BBX 14 1 0 4
BITMAP
FFFC
ENDCHAR
STARTCHAR uni2501
ENCODING 9473
SWIDTH 1000 0
DWIDTH 14 0
BBX 14 2 0 4
BITMAP
FFFC
FFFC
ENDCHAR
STARTCHAR uni2502
ENCODING 9474
SWIDTH 1000 0
DWIDTH 14 0
BBX 1 14 7 -2
BITMAP
80
80
80
80
80
80
80
80
80
80
80
80
80
80
ENDCHAR
STARTCHAR uni2503
ENCODING 9475
SWIDTH 1000 0
DWIDTH 14 0
BBX 2 14 6 -2
BITMAP
C0
C0
C0
C0
C0
C0
C0
C0
C0
C0
C0
C0
C0
C0
ENDCHAR
STARTCHAR uni2504
ENCODING 9476
SWIDTH 1000 0
DWIDTH 14 0
BBX 12 1 1 4
BITMAP
EF70
ENDCHAR
STARTCHAR uni2505
ENCODING 9477
SWIDTH 1000 0
DWIDTH 14 0
BBX 12 2 1 4
BITMAP
EF70
EF70
ENDCHAR
STARTCHAR uni2506
ENCODING 9478
SWIDTH 1000 0
DWIDTH 14 0
BBX 1 13 7 -2
BITMAP
80
80
80
00
00
80
80
00
00
00
80
80
00
ENDCHAR
STARTCHAR uni2507
ENCODING 9479
SWIDTH 1000 0
DWIDTH 14 0
BBX 2 12 6 -1
BITMAP
C0
C0
C0
00
00
C0
C0
C0
00
C0
C0
C0
ENDCHAR
STARTCHAR uni2508
ENCODING 9480
SWIDTH 1000 0
DWIDTH 14 0
BBX 14 1 0 4
BITMAP
EFDC
ENDCHAR
STARTCHAR uni2509
ENCODING 9481
SWIDTH 1000 0
DWIDTH 14 0
BBX 14 2 0 4
BITMAP
EFDC
EFDC
ENDCHAR
STARTCHAR uni250A
ENCODING 9482
SWIDTH 1000 0
DWIDTH 14 0
BBX 1 14 7 -2
BITMAP
80
80
00
00
80
80
00
00
80
80
00
00
80
80
ENDCHAR
STARTCHAR uni250B
ENCODING 9483
SWIDTH 1000 0
DWIDTH 14 0
BBX 2 14 6 -2
BITMAP
C0
C0
C0
00
C0
C0
C0
C0
C0
C0
00
C0
C0
C0
ENDCHAR
STARTCHAR uni250C
ENCODING 9484
SWIDTH 1000 0
DWIDTH 14 0
BBX 7 8 7 -3
BITMAP
FE
80
80
80
80
80
80
00
ENDCHAR
STARTCHAR uni250D
ENCODING 9485
SWIDTH 1000 0
DWIDTH 14 0
BBX 7 9 7 -3
BITMAP
FE
FE
80
80
80
80
80
80
00
ENDCHAR
STARTCHAR uni250E
ENCODING 9486
SWIDTH 1000 0
DWIDTH 14 0
BBX 8 8 6 -3
BITMAP
FF
C0
C0
C0
C0
C0
C0
C0
ENDCHAR
STARTCHAR uni250F
ENCODING 9487
SWIDTH 1000 0
DWIDTH 14 0
BBX 8 9 6 -3
BITMAP
FF
FF
C0
C0
C0
C0
C0
C0
C0
ENDCHAR
STARTCHAR uni2510
ENCODING 9488
SWIDTH 1000 0
DWIDTH 14 0
BBX 7 8 0 -3
BITMAP
FE
02
02
02
02
02
02
00
ENDCHAR
STARTCHAR uni2511
ENCODING 9489
SWIDTH 1000 0
DWIDTH 14 0
BBX 7 9 0 -3
BITMAP
FE
FE
02
02
02
02
02
02
00
ENDCHAR
STARTCHAR uni2512
ENCODING 9490
SWIDTH 1000 0
DWIDTH 14 0
BBX 8 8 0 -3
BITMAP
FF
03
03
03
03
03
03
03
ENDCHAR
STARTCHAR uni2513
ENCODING 9491
SWIDTH 1000 0
DWIDTH 14 0
BBX 8 9 0 -3
BITMAP
FF
FF
03
03
03
03
03
03
03
ENDCHAR
STARTCHAR uni2514
ENCODING 9492
SWIDTH 1000 0
DWIDTH 14 0
BBX 7 9 7 4
BITMAP
00
80
80
80
80
80
80
80
FE
ENDCHAR
STARTCHAR uni2515
ENCODING 9493
SWIDTH 1000 0
DWIDTH 14 0
BBX 7 9 7 4
BITMAP
00
80
80
80
80
80
80
FE
FE
ENDCHAR
STARTCHAR uni2516
ENCODING 9494
SWIDTH 1000 0
DWIDTH 14 0
BBX 8 9 6 4
BITMAP
C0
C0
C0
C0
C0
C0
C0
C0
FF
ENDCHAR
STARTCHAR uni2517
ENCODING 9495
SWIDTH 1000 0
DWIDTH 14 0
BBX 8 9 6 4
BITMAP
C0
C0
C0
C0
C0
C0
C0
FF
FF
ENDCHAR
STARTCHAR uni2518
ENCODING 9496
SWIDTH 1000 0
DWIDTH 14 0
BBX 7 9 0 4
BITMAP
00
02
02
02
02
02
02
02
FE
ENDCHAR
STARTCHAR uni2519
ENCODING 9497
SWIDTH 1000 0
DWIDTH 14 0
BBX 7 9 0 4
BITMAP
00
02
02
02
02
02
02
FE
FE
ENDCHAR
STARTCHAR uni251A
ENCODING 9498
SWIDTH 1000 0
DWIDTH 14 0
BBX 8 9 0 4
BITMAP
03
03
03
03
03
03
03
03
FF
ENDCHAR
STARTCHAR uni251B
ENCODING 9499
SWIDTH 1000 0
DWIDTH 14 0
BBX 8 9 0 4
BITMAP
03
03
03
03
03
03
03
FF
FF
ENDCHAR
STARTCHAR uni251C
ENCODING 9500
SWIDTH 1000 0
DWIDTH 14 0
BBX 7 16 7 -3
BITMAP
00
80
80
80
80
80
80
80
FE
80
80
80
80
80
80
00
ENDCHAR
STARTCHAR uni251D
ENCODING 9501
SWIDTH 1000 0
DWIDTH 14 0
BBX 7 16 7 -3
BITMAP
00
80
80
80
80
80
80
FE
FE
80
80
80
80
80
80
00
ENDCHAR
STARTCHAR uni251E
ENCODING 9502
SWIDTH 1000 0
DWIDTH 14 0
BBX 8 16 6 -3
BITMAP
C0
C0
C0
C0
C0
C0
C0
C0
FF
80
80
80
80
80
80
00
ENDCHAR
STARTCHAR uni251F
ENCODING 9503
SWIDTH 1000 0
DWIDTH 14 0
BBX 8 16 6 -3
BITMAP
00
80
80
80
80
80
80
80
FF
C0
C0
C0
C0
C0
C0
C0
ENDCHAR
STARTCHAR uni2520
ENCODING 9504
SWIDTH 1000 0
DWIDTH 14 0
BBX 8 16 6 -3
BITMAP
C0
C0
C0
C0
C0
C0
C0
C0
FF
C0
C0
C0
C0
C0
C0
C0
ENDCHAR
STARTCHAR uni2521
ENCODING 9505
SWIDTH 1000 0
DWIDTH 14 0
BBX 8 16 6 -3
BITMAP
C0
C0
C0
C0
C0
C0
C0
FF
FF
80
80
80
80
80
80
00
ENDCHAR
STARTCHAR uni2522
ENCODING 9506
SWIDTH 1000 0
DWIDTH 14 0
BBX 8 16 6 -3
BITMAP
00
80
80
80
80
80
80
FF
FF
C0
C0
C0
C0
C0
C0
C0
ENDCHAR
STARTCHAR uni2523
ENCODING 9507
SWIDTH 1000 0
DWIDTH 14 0
BBX 8 16 6 -3
BITMAP
C0
C0
C0
C0
C0
C0
C0
FF
FF
C0
C0
C0
C0
C0
C0
C0
ENDCHAR
STARTCHAR uni2524
ENCODING 9508
SWIDTH 1000 0
DWIDTH 14 0
BBX 7 16 0 -3
BITMAP
00
02
02
02
02
02
02
02
FE
02
02
02
02
02
02
00
ENDCHAR
STARTCHAR uni2525
ENCODING 9509
SWIDTH 1000 0
DWIDTH 14 0
BBX 7 16 0 -3
BITMAP
00
02
02
02
02
02
02
FE
FE
02
02
02
02
02
02
00
ENDCHAR
STARTCHAR uni2526
ENCODING 9510
SWIDTH 1000 0
DWIDTH 14 0
BBX 8 16 0 -3
BITMAP
03
03
03
03
03
03
03
03
FF
02
02
02
02
02
02
00
ENDCHAR
STARTCHAR uni2527
ENCODING 9511
SWIDTH 1000 0
DWIDTH 14 0
BBX 8 16 0 -3
BITMAP
00
02
02
02
02
02
02
02
FF
03
03
03
03
03
03
03
ENDCHAR
STARTCHAR uni2528
ENCODING 9512
SWIDTH 1000 0
DWIDTH 14 0
BBX 8 16 0 -3
BITMAP
03
03
03
03
03
03
03
03
FF
03
03
03
03
03
03
03
ENDCHAR
STARTCHAR uni2529
ENCODING 9513
SWIDTH 1000 0
DWIDTH 14 0
BBX 8 16 0 -3
BITMAP
03
03
03
03
03
03
03
FF
FF
02
02
02
02
02
02
00
ENDCHAR
STARTCHAR uni252A
ENCODING 9514
SWIDTH 1000 0
DWIDTH 14 0
BBX 8 16 0 -3
BITMAP
00
02
02
02
02
02
02
FF
FF
03
03
03
03
03
03
03
ENDCHAR
STARTCHAR uni252B
ENCODING 9515
SWIDTH 1000 0
DWIDTH 14 0
BBX 8 16 0 -3
BITMAP
03
03
03
03
03
03
03
FF
FF
03
03
03
03
03
03
03
ENDCHAR
STARTCHAR uni252C
ENCODING 9516
SWIDTH 1000 0
DWIDTH 14 0
BBX 14 8 0 -3
BITMAP
FFFC
0200
0200
0200
0200
0200
0200
0000
ENDCHAR
STARTCHAR uni252D
ENCODING 9517
SWIDTH 1000 0
DWIDTH 14 0
BBX 14 9 0 -3
BITMAP
FE00
FFFC
0200
0200
0200
0200
0200
0200
0000
ENDCHAR
STARTCHAR uni252E
ENCODING 9518
SWIDTH 1000 0
DWIDTH 14 0
BBX 14 9 0 -3
BITMAP
01FC
FFFC
0200
0200
0200
0200
0200
0200
0000
ENDCHAR
STARTCHAR uni252F
ENCODING 9519
SWIDTH 1000 0
DWIDTH 14 0
BBX 14 9 0 -3
BITMAP
FFFC
FFFC
0200
0200
0200
0200
0200
0200
0000
ENDCHAR
STARTCHAR uni2530
ENCODING 9520
SWIDTH 1000 0
DWIDTH 14 0
BBX 14 8 0 -3
BITMAP
FFFC
0300
0300
0300
0300
0300
0300
0300
ENDCHAR
STARTCHAR uni2531
ENCODING 9521
SWIDTH 1000 0
DWIDTH 14 0
BBX 14 9 0 -3
BITMAP
FF00
FFFC
0300
0300
0300
0300
0300
0300
0300
ENDCHAR
STARTCHAR uni2532
ENCODING 9522
SWIDTH 1000 0
DWIDTH 14 0
BBX 14 9 0 -3
BITMAP
03FC
FFFC
0300
0300
0300
0300
0300
0300
0300
ENDCHAR
STARTCHAR uni2533
ENCODING 9523
SWIDTH 1000 0
DWIDTH 14 0
BBX 14 9 0 -3
BITMAP
FFFC
FFFC
0300
0300
0300
0300
0300
0300
0300
ENDCHAR
STARTCHAR uni2534
ENCODING 9524
SWIDTH 1000 0
DWIDTH 14 0
BBX 14 9 0 4
BITMAP
0000
0200
0200
0200
0200
0200
0200
0200
FFFC
ENDCHAR
STARTCHAR uni2535
ENCODING 9525
SWIDTH 1000 0
DWIDTH 14 0
BBX 14 9 0 4
BITMAP
0000
0200
0200
0200
0200
0200
0200
FE00
FFFC
ENDCHAR
STARTCHAR uni2536
ENCODING 9526
SWIDTH 1000 0
DWIDTH 14 0
BBX 14 8 0 4
BITMAP
0200
0200
0200
0200
0200
0200
01FC
FFFC
ENDCHAR
STARTCHAR uni2537
ENCODING 9527
SWIDTH 1000 0
DWIDTH 14 0
BBX 14 9 0 4
BITMAP
0000
0200
0200
0200
0200
0200
0200
FFFC
FFFC
ENDCHAR
STARTCHAR uni2538
ENCODING 9528
SWIDTH 1000 0
DWIDTH 14 0
BBX 14 9 0 4
BITMAP
0300
0300
0300
0300
0300
0300
0300
0300
FFFC
ENDCHAR
STARTCHAR uni2539
ENCODING 9529
SWIDTH 1000 0
DWIDTH 14 0
BBX 14 9 0 4
BITMAP
0300
0300
0300
0300
0300
0300
0300
FF00
FFFC
ENDCHAR
STARTCHAR uni253A
ENCODING 9530
SWIDTH 1000 0
DWIDTH 14 0
BBX 14 9 0 4
BITMAP
0300
0300
0300
0300
0300
0300
0300
03FC
FFFC
ENDCHAR
STARTCHAR uni253B
ENCODING 9531
SWIDTH 1000 0
DWIDTH 14 0
BBX 14 9 0 4
BITMAP
0300
0300
0300
0300
0300
0300
0300
FFFC
FFFC
ENDCHAR
STARTCHAR uni253C
ENCODING 9532
SWIDTH 1000 0
DWIDTH 14 0
BBX 14 16 0 -3
BITMAP
0000
0200
0200
0200
0200
0200
0200
0200
FFFC
0200
0200
0200
0200
0200
0200
0000
ENDCHAR
STARTCHAR uni253D
ENCODING 9533
SWIDTH 1000 0
DWIDTH 14 0
BBX 14 16 0 -3
BITMAP
0000
0200
0200
0200
0200
0200
0200
FE00
FFFC
0200
0200
0200
0200
0200
0200
0000
ENDCHAR
STARTCHAR uni253E
ENCODING 9534
SWIDTH 1000 0
DWIDTH 14 0
BBX 14 15 0 -3
BITMAP
0200
0200
0200
0200
0200
0200
01FC
FFFC
0200
0200
0200
0200
0200
0200
0000
ENDCHAR
STARTCHAR uni253F
ENCODING 9535
SWIDTH 1000 0
DWIDTH 14 0
BBX 14 16 0 -3
BITMAP
0000
0200
0200
0200
0200
0200
0200
FFFC
FFFC
0200
0200
0200
0200
0200
0200
0000
ENDCHAR
STARTCHAR uni2540
ENCODING 9536
SWIDTH 1000 0
DWIDTH 14 0
BBX 14 16 0 -3
BITMAP
0300
0300
0300
0300
0300
0300
0300
0300
FFFC
0200
0200
0200
0200
0200
0200
0000
ENDCHAR
STARTCHAR uni2541
ENCODING 9537
SWIDTH 1000 0
DWIDTH 14 0
BBX 14 16 0 -3
BITMAP
0000
0200
0200
0200
0200
0200
0200
0200
FFFC
0300
0300
0300
0300
0300
0300
0300
ENDCHAR
STARTCHAR uni2542
ENCODING 9538
SWIDTH 1000 0
DWIDTH 14 0
BBX 14 16 0 -3
BITMAP
0300
0300
0300
0300
0300
0300
0300
0300
FFFC
0300
0300
0300
0300
0300
0300
0300
ENDCHAR
STARTCHAR uni2543
ENCODING 9539
SWIDTH 1000 0
DWIDTH 14 0
BBX 14 16 0 -3
BITMAP
0300
0300
0300
0300
0300
0300
0300
FF00
FFFC
0200
0200
0200
0200
0200
0200
0000
ENDCHAR
STARTCHAR uni2544
ENCODING 9540
SWIDTH 1000 0
DWIDTH 14 0
BBX 14 16 0 -3
BITMAP
0300
0300
0300
0300
0300
0300
0300
03FC
FFFC
0200
0200
0200
0200
0200
0200
0000
ENDCHAR
STARTCHAR uni2545
ENCODING 9541
SWIDTH 1000 0
DWIDTH 14 0
BBX 14 16 0 -3
BITMAP
0000
0200
0200
0200
0200
0200
0200
FF00
FFFC
0300
0300
0300
0300
0300
0300
0300
ENDCHAR
STARTCHAR uni2546
ENCODING 9542
SWIDTH 1000 0
DWIDTH 14 0
BBX 14 16 0 -3
BITMAP
0000
0200
0200
0200
0200
0200
0200
03FC
FFFC
0300
0300
0300
0300
0300
0300
0300
ENDCHAR
STARTCHAR uni2547
ENCODING 9543
SWIDTH 1000 0
DWIDTH 14 0
BBX 14 16 0 -3
BITMAP
0300
0300
0300
0300
0300
0300
0300
FFFC
FFFC
0200
0200
0200
0200
0200
0200
0000
ENDCHAR
STARTCHAR uni2548
ENCODING 9544
SWIDTH 1000 0
DWIDTH 14 0
BBX 14 16 0 -3
BITMAP
0000
0200
0200
0200
0200
0200
0200
FFFC
FFFC
0300
0300
0300
0300
0300
0300
0300
ENDCHAR
STARTCHAR uni2549
ENCODING 9545
SWIDTH 1000 0
DWIDTH 14 0
BBX 14 16 0 -3
BITMAP
0300
0300
0300
0300
0300
0300
0300
FF00
FFFC
0300
0300
0300
0300
0300
0300
0300
ENDCHAR
STARTCHAR uni254A
ENCODING 9546
SWIDTH 1000 0
DWIDTH 14 0
BBX 14 16 0 -3
BITMAP
0300
0300
0300
0300
0300
0300
0300
03FC
FFFC
0300
0300
0300
0300
0300
0300
0300
ENDCHAR
STARTCHAR uni254B
ENCODING 9547
SWIDTH 1000 0
DWIDTH 14 0
BBX 14 16 0 -3
BITMAP
0300
0300
0300
0300
0300
0300
0300
FFFC
FFFC
0300
0300
0300
0300
0300
0300
0300
ENDCHAR
STARTCHAR uni25A0
ENCODING 9632
SWIDTH 1000 0
DWIDTH 14 0
BBX 12 11 1 -1
BITMAP
FFF0
FFF0
FFF0
FFF0
FFF0
FFF0
FFF0
FFF0
FFF0
FFF0
FFF0
ENDCHAR
STARTCHAR uni25A1
ENCODING 9633
SWIDTH 1000 0
DWIDTH 14 0
BBX 12 12 1 -1
BITMAP
FFF0
8010
8010
8010
8010
8010
8010
8010
8010
8010
8010
FFF0
ENDCHAR
STARTCHAR uni25B2
ENCODING 9650
SWIDTH 1000 0
DWIDTH 14 0
BBX 14 11 0 0
BITMAP
0300
0300
0780
0780
0FC0
0FC0
1FE0
3FF0
3FF0
7FF8
7FF8
ENDCHAR
STARTCHAR uni25B3
ENCODING 9651
SWIDTH 1000 0
DWIDTH 14 0
BBX 14 13 0 -1
BITMAP
0000
0300
0500
0480
0880
0840
1040
1020
2020
2010
4010
4008
FFFC
ENDCHAR
STARTCHAR uni25C6
ENCODING 9670
SWIDTH 1000 0
DWIDTH 14 0
BBX 14 14 0 -2
BITMAP
0000
0300
0780
0FC0
1FE0
3FF0
7FF8
FFFC
7FF8
3FF0
1FE0
0FC0
0780
0300
ENDCHAR
STARTCHAR uni25C7
ENCODING 9671
SWIDTH 1000 0
DWIDTH 14 0
BBX 14 14 0 -2
BITMAP
0000
0300
0480
0840
1020
2010
4008
8004
4008
2010
1020
0840
0480
0300
ENDCHAR
STARTCHAR uni25CB
ENCODING 9675
SWIDTH 1000 0
DWIDTH 14 0
BBX 12 14 1 -2
BITMAP
0000
1F80
6060
8020
8010
8010
8010
8010
8010
8010
8020
4020
30C0
0F00
ENDCHAR
STARTCHAR uni25CE
ENCODING 9678
SWIDTH 1000 0
DWIDTH 14 0
BBX 12 14 1 -2
BITMAP
0000
1F80
6060
9FA0
A090
A050
C050
C050
A050
A090
90A0
4F20
30C0
0F00
ENDCHAR
STARTCHAR uni25CF
ENCODING 9679
SWIDTH 1000 0
DWIDTH 14 0
BBX 12 13 1 -2
BITMAP
0F00
3FC0
7FE0
FFF0
FFF0
FFF0
FFF0
FFF0
FFF0
7FE0
7FE0
3FC0
0600
ENDCHAR
STARTCHAR uni2605
ENCODING 9733
SWIDTH 1000 0
DWIDTH 14 0
BBX 12 12 1 -1
BITMAP
0000
0600
0600
0600
0E00
FFF0
3FC0
1F80
1F80
1F80
1980
2040
ENDCHAR
STARTCHAR uni2606
ENCODING 9734
SWIDTH 1000 0
DWIDTH 14 0
BBX 12 14 1 -2
BITMAP
0000
0400
0600
0600
0A00
F9F0
8020
6040
1080
1080
2680
2980
30C0
0000
ENDCHAR
STARTCHAR uni2640
ENCODING 9792
SWIDTH 1000 0
DWIDTH 14 0
BBX 8 14 3 -2
BITMAP
3C
64
42
42
42
64
3C
10
FF
10
10
10
10
00
ENDCHAR
STARTCHAR uni2642
ENCODING 9794
SWIDTH 1000 0
DWIDTH 14 0
BBX 10 11 2 -1
BITMAP
07C0
00C0
0140
0240
7C40
8800
8400
8400
8400
8800
7000
ENDCHAR
STARTCHAR uni3000
ENCODING 12288
SWIDTH 1000 0
DWIDTH 14 0
BBX 1 1 0 0
BITMAP
00
ENDCHAR
STARTCHAR uni3001
ENCODING 12289
SWIDTH 1000 0
DWIDTH 14 0
BBX 4 4 1 -1
BITMAP
80
C0
60
20
ENDCHAR
STARTCHAR uni3002
ENCODING 12290
SWIDTH 1000 0
DWIDTH 14 0
BBX 4 5 1 -2
BITMAP
E0
90
90
90
60
ENDCHAR
STARTCHAR uni3003
ENCODING 12291
SWIDTH 1000 0
DWIDTH 14 0
BBX 8 7 3 1
BITMAP
33
22
22
44
44
44
88
ENDCHAR
STARTCHAR uni3005
ENCODING 12293
SWIDTH 1000 0
DWIDTH 14 0
BBX 11 12 1 -1
BITMAP
0400
0C00
0800
1FE0
1040
3040
2080
4980
4F00
0300
0180
0080
ENDCHAR
STARTCHAR uni3008
ENCODING 12296
SWIDTH 1000 0
DWIDTH 14 0
BBX 5 13 8 -2
BITMAP
08
18
10
20
60
40
80
40
20
20
10
18
08
ENDCHAR
STARTCHAR uni3009
ENCODING 12297
SWIDTH 1000 0
DWIDTH 14 0
BBX 5 13 1 -2
BITMAP
80
C0
40
20
30
10
08
10
20
20
40
C0
80
ENDCHAR
STARTCHAR uni300A
ENCODING 12298
SWIDTH 1000 0
DWIDTH 14 0
BBX 6 13 7 -2
BITMAP
14
14
28
28
50
50
A0
50
50
28
28
14
14
ENDCHAR
STARTCHAR uni300B
ENCODING 12299
SWIDTH 1000 0
DWIDTH 14 0
BBX 7 13 0 -2
BITMAP
50
50
48
28
24
14
12
14
24
28
48
50
90
ENDCHAR
STARTCHAR uni300C
ENCODING 12300
SWIDTH 1000 0
DWIDTH 14 0
BBX 5 10 9 2
BITMAP
F8
80
80
80
80
80
80
80
80
80
ENDCHAR
STARTCHAR uni300D
ENCODING 12301
SWIDTH 1000 0
DWIDTH 14 0
BBX 5 10 0 -2
BITMAP
08
08
08
08
08
08
08
08
08
F8
ENDCHAR
STARTCHAR uni300E
ENCODING 12302
SWIDTH 1000 0
DWIDTH 14 0
BBX 6 10 8 2
BITMAP
FC
84
B8
A0
A0
A0
A0
A0
A0
E0
ENDCHAR
STARTCHAR uni300F
ENCODING 12303
SWIDTH 1000 0
DWIDTH 14 0
BBX 6 10 0 -2
BITMAP
1C
14
14
14
14
14
14
14
E4
FC
ENDCHAR
STARTCHAR uni3010
ENCODING 12304
SWIDTH 1000 0
DWIDTH 14 0
BBX 5 13 9 -2
BITMAP
F0
E0
E0
C0
C0
C0
C0
C0
C0
C0
E0
E0
F0
ENDCHAR
STARTCHAR uni3011
ENCODING 12305
SWIDTH 1000 0
DWIDTH 14 0
BBX 5 13 0 -2
BITMAP
78
38
38
18
18
18
18
18
18
18
38
38
78
ENDCHAR
STARTCHAR uni3013
ENCODING 12307
SWIDTH 1000 0
DWIDTH 14 0
BBX 12 12 1 -1
BITMAP
FFF0
FFF0
FFF0
FFF0
0000
0000
0000
0000
FFF0
FFF0
FFF0
FFF0
ENDCHAR
STARTCHAR uni3014
ENCODING 12308
SWIDTH 1000 0
DWIDTH 14 0
BBX 3 13 10 -2
BITMAP
20
C0
80
80
80
80
80
80
80
80
80
40
20
ENDCHAR
STARTCHAR uni3015
ENCODING 12309
SWIDTH 1000 0
DWIDTH 14 0
BBX 3 13 1 -2
BITMAP
80
60
20
20
20
20
20
20
20
20
20
40
80
ENDCHAR
STARTCHAR uni3016
ENCODING 12310
SWIDTH 1000 0
DWIDTH 14 0
BBX 5 14 9 -2
BITMAP
F0
A0
C0
C0
80
80
80
80
80
80
80
C0
A0
F0
ENDCHAR
STARTCHAR uni3017
ENCODING 12311
SWIDTH 1000 0
DWIDTH 14 0
BBX 5 14 0 -2
BITMAP
78
28
28
18
18
18
18
18
18
18
18
28
28
78
ENDCHAR
STARTCHAR uni3041
ENCODING 12353
SWIDTH 1000 0
DWIDTH 14 0
BBX 9 11 3 -2
BITMAP
1000
FF00
2000
3E00
6500
6480
A880
9880
B100
F300
0400
ENDCHAR
STARTCHAR uni3042
ENCODING 12354
SWIDTH 1000 0
DWIDTH 14 0
BBX 11 13 2 -2
BITMAP
1000
1080
FF80
1100
1F00
32C0
5240
9620
9420
9840
9040
E980
0200
ENDCHAR
STARTCHAR uni3043
ENCODING 12355
SWIDTH 1000 0
DWIDTH 14 0
BBX 9 9 3 -1
BITMAP
8000
8200
8100
8100
8180
8080
9080
D000
6000
ENDCHAR
STARTCHAR uni3044
ENCODING 12356
SWIDTH 1000 0
DWIDTH 14 0
BBX 11 11 2 -1
BITMAP
8000
8080
8080
8040
8040
8040
8060
8C20
4820
5800
3000
ENDCHAR
STARTCHAR uni3045
ENCODING 12357
SWIDTH 1000 0
DWIDTH 14 0
BBX 8 11 3 -2
BITMAP
00
3E
00
3E
43
01
01
03
06
3C
20
ENDCHAR
STARTCHAR uni3046
ENCODING 12358
SWIDTH 1000 0
DWIDTH 14 0
BBX 9 12 2 -1
BITMAP
3000
1F00
0000
3F00
E180
0080
0080
0080
0180
0100
0600
3C00
ENDCHAR
STARTCHAR uni3047
ENCODING 12359
SWIDTH 1000 0
DWIDTH 14 0
BBX 9 10 3 -1
BITMAP
2000
1E00
0000
0000
FC00
0800
1800
2800
4400
8780
ENDCHAR
STARTCHAR uni3048
ENCODING 12360
SWIDTH 1000 0
DWIDTH 14 0
BBX 11 12 2 -1
BITMAP
3000
0F00
0000
0100
7F00
0600
0800
1C00
3400
6200
4200
83E0
ENDCHAR
STARTCHAR uni3049
ENCODING 12361
SWIDTH 1000 0
DWIDTH 14 0
BBX 10 10 2 -1
BITMAP
1000
1180
7CC0
1040
1000
1F00
3080
5080
D080
7700
ENDCHAR
STARTCHAR uni304A
ENCODING 12362
SWIDTH 1000 0
DWIDTH 14 0
BBX 12 12 1 -1
BITMAP
0800
0800
0A40
7E30
0800
0FC0
1860
6820
4820
C820
48C0
3380
ENDCHAR
STARTCHAR uni304B
ENCODING 12363
SWIDTH 1000 0
DWIDTH 14 0
BBX 13 12 1 -1
BITMAP
0800
0800
0860
FF20
1130
1110
1110
2100
2100
6100
4100
CE00
ENDCHAR
STARTCHAR uni304C
ENCODING 12364
SWIDTH 1000 0
DWIDTH 14 0
BBX 13 13 1 -1
BITMAP
0010
0850
0820
1840
FF20
1120
1110
3110
2100
2100
6100
4300
CE00
ENDCHAR
STARTCHAR uni304D
ENCODING 12365
SWIDTH 1000 0
DWIDTH 14 0
BBX 10 12 2 -1
BITMAP
0400
0480
7F00
0200
0240
FF80
0100
0180
4380
4000
4000
3F00
ENDCHAR
STARTCHAR uni304E
ENCODING 12366
SWIDTH 1000 0
DWIDTH 14 0
BBX 11 13 2 -1
BITMAP
0040
08A0
0D60
FF00
0400
0480
FF00
0200
0100
C700
8000
C000
7F00
ENDCHAR
STARTCHAR uni304F
ENCODING 12367
SWIDTH 1000 0
DWIDTH 14 0
BBX 8 12 2 -1
BITMAP
02
06
0C
18
30
40
60
30
18
0C
02
01
ENDCHAR
STARTCHAR uni3050
ENCODING 12368
SWIDTH 1000 0
DWIDTH 14 0
BBX 10 12 2 -1
BITMAP
0200
0600
0C00
1A80
2140
4100
4000
3000
1800
0C00
0600
0300
ENDCHAR
STARTCHAR uni3051
ENCODING 12369
SWIDTH 1000 0
DWIDTH 14 0
BBX 11 13 2 -2
BITMAP
8180
8080
8080
8FE0
8080
8080
8080
C180
C100
C100
8300
8600
0000
ENDCHAR
STARTCHAR uni3052
ENCODING 12370
SWIDTH 1000 0
DWIDTH 14 0
BBX 13 14 1 -2
BITMAP
0000
00B0
40A8
4080
40F0
4F80
4080
4080
E080
6080
6080
4180
4300
0200
ENDCHAR
STARTCHAR uni3053
ENCODING 12371
SWIDTH 1000 0
DWIDTH 14 0
BBX 10 11 2 -1
BITMAP
7F80
0000
0000
0000
0000
0000
4000
C000
C000
6040
3FC0
ENDCHAR
STARTCHAR uni3054
ENCODING 12372
SWIDTH 1000 0
DWIDTH 14 0
BBX 12 13 2 -1
BITMAP
0020
00A0
0050
7F80
0000
0000
0000
0000
C000
8000
8000
C000
7F80
ENDCHAR
STARTCHAR uni3055
ENCODING 12373
SWIDTH 1000 0
DWIDTH 14 0
BBX 10 12 2 -1
BITMAP
0400
0240
FFC0
0200
0100
0100
0180
4780
4000
4000
4000
3F80
ENDCHAR
STARTCHAR uni3056
ENCODING 12374
SWIDTH 1000 0
DWIDTH 14 0
BBX 12 13 2 -1
BITMAP
0020
04A0
0440
06C0
FF80
0200
0100
0100
4780
4000
C000
4000
3F00
ENDCHAR
STARTCHAR uni3057
ENCODING 12375
SWIDTH 1000 0
DWIDTH 14 0
BBX 10 12 3 -1
BITMAP
C000
C000
C000
C000
C000
C000
8000
8000
8080
C080
4300
7E00
ENDCHAR
STARTCHAR uni3058
ENCODING 12376
SWIDTH 1000 0
DWIDTH 14 0
BBX 9 12 3 -1
BITMAP
C000
8500
8500
8200
8000
8000
8000
8000
8080
8180
C300
7E00
ENDCHAR
STARTCHAR uni3059
ENCODING 12377
SWIDTH 1000 0
DWIDTH 14 0
BBX 12 12 1 -1
BITMAP
0100
0100
FFF0
0100
0F00
1900
1100
1900
0F00
0300
0600
1C00
ENDCHAR
STARTCHAR uni305A
ENCODING 12378
SWIDTH 1000 0
DWIDTH 14 0
BBX 12 14 1 -2
BITMAP
0000
0250
0240
FFF0
0200
0E00
1300
1100
1300
0F00
0200
0600
1C00
0000
ENDCHAR
STARTCHAR uni305B
ENCODING 12379
SWIDTH 1000 0
DWIDTH 14 0
BBX 12 12 1 -1
BITMAP
0080
1080
1080
11F0
FE80
1080
1080
1380
1000
1000
1000
0FC0
ENDCHAR
STARTCHAR uni305C
ENCODING 12380
SWIDTH 1000 0
DWIDTH 14 0
BBX 14 12 0 -1
BITMAP
0008
1058
1050
1040
7FF8
D040
1040
1040
11C0
1800
0800
0FE0
ENDCHAR
STARTCHAR uni305D
ENCODING 12381
SWIDTH 1000 0
DWIDTH 14 0
BBX 11 12 1 -1
BITMAP
1F80
0180
0300
0600
0C00
1FE0
F600
0800
0800
0800
0C00
0780
ENDCHAR
STARTCHAR uni305E
ENCODING 12382
SWIDTH 1000 0
DWIDTH 14 0
BBX 12 12 1 -1
BITMAP
3F80
0120
0260
0440
0800
1FE0
E400
0800
0800
0800
0C00
0780
ENDCHAR
STARTCHAR uni305F
ENCODING 12383
SWIDTH 1000 0
DWIDTH 14 0
BBX 12 12 1 -1
BITMAP
0800
0800
FE00
1000
11E0
1000
1000
2000
2200
2200
6200
43F0
ENDCHAR
STARTCHAR uni3060
ENCODING 12384
SWIDTH 1000 0
DWIDTH 14 0
BBX 12 12 1 -1
BITMAP
1820
1850
1230
FC00
1000
13E0
2000
2000
2400
6400
4400
C3E0
ENDCHAR
STARTCHAR uni3061
ENCODING 12385
SWIDTH 1000 0
DWIDTH 14 0
BBX 10 13 2 -2
BITMAP
1000
1080
FF80
2000
2000
2F00
7080
4040
4040
00C0
0180
1F00
0000
ENDCHAR
STARTCHAR uni3062
ENCODING 12386
SWIDTH 1000 0
DWIDTH 14 0
BBX 12 14 1 -2
BITMAP
0010
1050
1020
FF80
1000
1000
2000
2F80
3040
6040
0040
00C0
1F80
0000
ENDCHAR
STARTCHAR uni3063
ENCODING 12387
SWIDTH 1000 0
DWIDTH 14 0
BBX 10 8 2 -1
BITMAP
0F00
F080
0040
0040
0040
0080
0300
1C00
ENDCHAR
STARTCHAR uni3064
ENCODING 12388
SWIDTH 1000 0
DWIDTH 14 0
BBX 12 9 1 0
BITMAP
0FC0
7860
C030
0030
0030
0020
0060
01C0
0F00
ENDCHAR
STARTCHAR uni3065
ENCODING 12389
SWIDTH 1000 0
DWIDTH 14 0
BBX 12 13 1 -1
BITMAP
0000
0050
0020
0FC0
7860
C020
0020
0030
0020
0020
00C0
0380
0E00
ENDCHAR
STARTCHAR uni3066
ENCODING 12390
SWIDTH 1000 0
DWIDTH 14 0
BBX 11 11 1 -1
BITMAP
0FE0
F300
0200
0400
0400
0800
0800
0C00
0400
0300
01C0
ENDCHAR
STARTCHAR uni3067
ENCODING 12391
SWIDTH 1000 0
DWIDTH 14 0
BBX 12 11 1 -1
BITMAP
1FE0
F300
0620
0450
0C50
0800
0800
0C00
0400
0700
01C0
ENDCHAR
STARTCHAR uni3068
ENCODING 12392
SWIDTH 1000 0
DWIDTH 14 0
BBX 9 12 3 -1
BITMAP
8000
4000
4100
6600
3800
3000
4000
8000
8000
8000
C000
7F80
ENDCHAR
STARTCHAR uni3069
ENCODING 12393
SWIDTH 1000 0
DWIDTH 14 0
BBX 12 13 2 -1
BITMAP
0000
40A0
4050
2100
2300
3C00
1000
2000
4000
C000
C000
6000
3F80
ENDCHAR
STARTCHAR uni306A
ENCODING 12394
SWIDTH 1000 0
DWIDTH 14 0
BBX 12 12 1 -1
BITMAP
0800
0A00
FCE0
1030
1080
2080
2080
6080
4780
08E0
08A0
0F00
ENDCHAR
STARTCHAR uni306B
ENCODING 12395
SWIDTH 1000 0
DWIDTH 14 0
BBX 11 12 2 -1
BITMAP
8000
8000
8FC0
8000
8000
8000
8000
8000
C800
C800
8800
87E0
ENDCHAR
STARTCHAR uni306C
ENCODING 12396
SWIDTH 1000 0
DWIDTH 14 0
BBX 13 12 1 -1
BITMAP
0200
0200
4780
5A40
2220
6420
7420
9420
99E0
9A20
7270
03C0
ENDCHAR
STARTCHAR uni306D
ENCODING 12397
SWIDTH 1000 0
DWIDTH 14 0
BBX 13 12 1 -1
BITMAP
1000
1000
31C0
F660
1820
1020
3020
7020
53E0
9230
9278
13C0
ENDCHAR
STARTCHAR uni306E
ENCODING 12398
SWIDTH 1000 0
DWIDTH 14 0
BBX 12 11 1 -1
BITMAP
0F80
32C0
6620
4420
C430
8410
8C30
C820
5860
70C0
0380
ENDCHAR
STARTCHAR uni306F
ENCODING 12399
SWIDTH 1000 0
DWIDTH 14 0
BBX 11 12 2 -1
BITMAP
8100
8100
8100
8FE0
8100
8100
8100
8100
CF80
D1C0
9120
8F00
ENDCHAR
STARTCHAR uni3070
ENCODING 12400
SWIDTH 1000 0
DWIDTH 14 0
BBX 13 13 1 -1
BITMAP
0010
40B0
40A0
4080
4FE0
C080
8080
8080
8080
A780
C8E0
C890
4780
ENDCHAR
STARTCHAR uni3071
ENCODING 12401
SWIDTH 1000 0
DWIDTH 14 0
BBX 13 13 1 -1
BITMAP
0030
40C8
40B0
4080
4FE0
C080
8080
8080
8080
A780
C8E0
C890
4780
ENDCHAR
STARTCHAR uni3072
ENCODING 12402
SWIDTH 1000 0
DWIDTH 14 0
BBX 11 11 2 -1
BITMAP
1900
F180
2080
4080
40C0
C0E0
80A0
8100
8100
4300
3C00
ENDCHAR
STARTCHAR uni3073
ENCODING 12403
SWIDTH 1000 0
DWIDTH 14 0
BBX 13 14 1 -2
BITMAP
0000
0010
0CA8
F8A0
10C0
20C0
2040
40A0
40B0
4080
4080
4180
6300
1E00
ENDCHAR
STARTCHAR uni3074
ENCODING 12404
SWIDTH 1000 0
DWIDTH 14 0
BBX 13 14 1 -2
BITMAP
0010
0068
1CC8
F8B0
10C0
20C0
2060
40A0
40B0
4080
4080
4180
6300
1E00
ENDCHAR
STARTCHAR uni3075
ENCODING 12405
SWIDTH 1000 0
DWIDTH 14 0
BBX 12 12 1 -1
BITMAP
0800
0600
0100
0300
0000
0C00
0640
0220
3130
6110
8110
1F00
ENDCHAR
STARTCHAR uni3076
ENCODING 12406
SWIDTH 1000 0
DWIDTH 14 0
BBX 13 12 0 -1
BITMAP
0400
0308
01A8
0110
0000
0400
0220
0130
1190
2098
C188
0F00
ENDCHAR
STARTCHAR uni3077
ENCODING 12407
SWIDTH 1000 0
DWIDTH 14 0
BBX 13 12 0 -1
BITMAP
0400
0718
01A8
01A8
0118
0400
0220
0130
1190
2098
C088
0F00
ENDCHAR
STARTCHAR uni3078
ENCODING 12408
SWIDTH 1000 0
DWIDTH 14 0
BBX 12 9 1 0
BITMAP
0C00
1600
3300
2100
4080
C0C0
0060
0030
0010
ENDCHAR
STARTCHAR uni3079
ENCODING 12409
SWIDTH 1000 0
DWIDTH 14 0
BBX 12 10 1 0
BITMAP
0020
00A0
1C50
1600
2300
6180
C080
8040
0060
0030
ENDCHAR
STARTCHAR uni307A
ENCODING 12410
SWIDTH 1000 0
DWIDTH 14 0
BBX 12 10 1 0
BITMAP
0060
0090
1C90
1660
2300
6180
C080
8040
0060
0030
ENDCHAR
STARTCHAR uni307B
ENCODING 12411
SWIDTH 1000 0
DWIDTH 14 0
BBX 11 12 2 -1
BITMAP
C000
8FC0
8100
8100
8DE0
8300
8100
C100
CF80
D1C0
9120
8F00
ENDCHAR
STARTCHAR uni307C
ENCODING 12412
SWIDTH 1000 0
DWIDTH 14 0
BBX 13 13 1 -1
BITMAP
0000
4030
47E0
4080
4080
8080
8FE0
8080
8080
A780
C8E0
C8B0
4700
ENDCHAR
STARTCHAR uni307D
ENCODING 12413
SWIDTH 1000 0
DWIDTH 14 0
BBX 13 13 1 -1
BITMAP
0030
4028
47F8
4080
4080
8080
8FE0
8080
8080
A780
C8E0
C8B0
4700
ENDCHAR
STARTCHAR uni307E
ENCODING 12414
SWIDTH 1000 0
DWIDTH 14 0
BBX 9 12 3 -1
BITMAP
0800
0800
FF80
0800
0800
FF80
0800
0800
7C00
8B00
8980
F000
ENDCHAR
STARTCHAR uni307F
ENCODING 12415
SWIDTH 1000 0
DWIDTH 14 0
BBX 12 12 1 -2
BITMAP
3F00
0200
0600
0420
1E20
69E0
C860
9050
9040
E080
0300
0000
ENDCHAR
STARTCHAR uni3080
ENCODING 12416
SWIDTH 1000 0
DWIDTH 14 0
BBX 12 12 1 -1
BITMAP
1000
1000
FE60
1030
3000
5000
9000
9000
5060
7060
1040
1FC0
ENDCHAR
STARTCHAR uni3081
ENCODING 12417
SWIDTH 1000 0
DWIDTH 14 0
BBX 12 12 1 -1
BITMAP
0100
2100
2F80
3B40
3220
5230
5E10
8C10
8C30
9C20
70C0
0380
ENDCHAR
STARTCHAR uni3082
ENCODING 12418
SWIDTH 1000 0
DWIDTH 14 0
BBX 11 12 1 -1
BITMAP
0800
0800
7800
0F00
0800
1040
FF60
1020
1020
1020
1860
0F80
ENDCHAR
STARTCHAR uni3083
ENCODING 12419
SWIDTH 1000 0
DWIDTH 14 0
BBX 10 11 2 -2
BITMAP
0800
4400
6780
38C0
E040
90C0
1780
1800
0800
0800
0C00
ENDCHAR
STARTCHAR uni3084
ENCODING 12420
SWIDTH 1000 0
DWIDTH 14 0
BBX 12 13 1 -2
BITMAP
0600
6300
23E0
3C20
3010
D010
8A20
0BE0
0C00
0400
0400
0600
0400
ENDCHAR
STARTCHAR uni3085
ENCODING 12421
SWIDTH 1000 0
DWIDTH 14 0
BBX 9 10 3 -2
BITMAP
8800
8E00
B500
C480
8480
A480
B900
9E00
1800
1000
ENDCHAR
STARTCHAR uni3086
ENCODING 12422
SWIDTH 1000 0
DWIDTH 14 0
BBX 11 13 2 -2
BITMAP
0400
8400
8F80
92C0
A240
C220
C220
9240
9CC0
8F80
0C00
0800
1000
ENDCHAR
STARTCHAR uni3087
ENCODING 12423
SWIDTH 1000 0
DWIDTH 14 0
BBX 8 11 3 -2
BITMAP
10
10
1F
10
10
10
18
F8
8E
99
F0
ENDCHAR
STARTCHAR uni3088
ENCODING 12424
SWIDTH 1000 0
DWIDTH 14 0
BBX 10 12 2 -1
BITMAP
0C00
0800
0800
0FC0
0800
0800
0C00
0C00
7C00
8780
8CC0
7800
ENDCHAR
STARTCHAR uni3089
ENCODING 12425
SWIDTH 1000 0
DWIDTH 14 0
BBX 10 13 2 -2
BITMAP
1800
0F00
0000
4000
4000
4F00
7080
4040
4040
00C0
0180
3F00
0000
ENDCHAR
STARTCHAR uni308A
ENCODING 12426
SWIDTH 1000 0
DWIDTH 14 0
BBX 8 12 3 -1
BITMAP
C0
9C
A2
C1
C1
81
81
81
03
02
04
38
ENDCHAR
STARTCHAR uni308B
ENCODING 12427
SWIDTH 1000 0
DWIDTH 14 0
BBX 10 11 2 -1
BITMAP
7F80
0200
0400
0800
3F00
6080
C040
9C40
2640
2380
1F00
ENDCHAR
STARTCHAR uni308C
ENCODING 12428
SWIDTH 1000 0
DWIDTH 14 0
BBX 13 12 1 -1
BITMAP
1000
1000
13C0
F640
1840
1040
3040
5040
5040
9040
9058
1070
ENDCHAR
STARTCHAR uni308D
ENCODING 12429
SWIDTH 1000 0
DWIDTH 14 0
BBX 11 12 1 -2
BITMAP
3F80
0100
0200
0400
0F80
3040
6020
4020
0060
00C0
1F80
0000
ENDCHAR
STARTCHAR uni308E
ENCODING 12430
SWIDTH 1000 0
DWIDTH 14 0
BBX 10 10 2 -1
BITMAP
1000
1000
F780
18C0
3040
2040
6040
A0C0
A180
3200
ENDCHAR
STARTCHAR uni308F
ENCODING 12431
SWIDTH 1000 0
DWIDTH 14 0
BBX 12 12 1 -1
BITMAP
1000
1000
1000
F3C0
1C20
1010
3010
5010
5030
9060
91C0
1100
ENDCHAR
STARTCHAR uni3090
ENCODING 12432
SWIDTH 1000 0
DWIDTH 14 0
BBX 11 12 1 -1
BITMAP
3E00
0200
0200
0780
1C40
2420
4820
4820
9B20
94A0
B4A0
67C0
ENDCHAR
STARTCHAR uni3091
ENCODING 12433
SWIDTH 1000 0
DWIDTH 14 0
BBX 12 12 1 -1
BITMAP
3F80
0300
0400
1F80
3040
4E40
1240
0F80
1000
39C0
4620
8610
ENDCHAR
STARTCHAR uni3092
ENCODING 12434
SWIDTH 1000 0
DWIDTH 14 0
BBX 11 12 1 -1
BITMAP
0800
0800
7F80
1000
2E60
3380
4600
0E00
1200
1000
1000
0FC0
ENDCHAR
STARTCHAR uni3093
ENCODING 12435
SWIDTH 1000 0
DWIDTH 14 0
BBX 12 12 1 -1
BITMAP
0600
0400
0800
0800
1000
1E00
3200
2210
6210
4230
4320
81C0
ENDCHAR
STARTCHAR uni30A1
ENCODING 12449
SWIDTH 1000 0
DWIDTH 14 0
BBX 10 9 2 -2
BITMAP
FFC0
0080
0980
0B00
0800
0800
1800
3000
2000
ENDCHAR
STARTCHAR uni30A2
ENCODING 12450
SWIDTH 1000 0
DWIDTH 14 0
BBX 11 11 2 -1
BITMAP
FFE0
0040
00C0
0980
0B00
0800
0800
0800
1000
3000
6000
ENDCHAR
STARTCHAR uni30A3
ENCODING 12451
SWIDTH 1000 0
DWIDTH 14 0
BBX 9 10 2 -2
BITMAP
0080
0100
0600
0C00
7400
C400
0400
0400
0400
0400
ENDCHAR
STARTCHAR uni30A4
ENCODING 12452
SWIDTH 1000 0
DWIDTH 14 0
BBX 11 11 1 -1
BITMAP
0060
00C0
0180
0600
1E00
F200
0200
0200
0200
0200
0200
ENDCHAR
STARTCHAR uni30A5
ENCODING 12453
SWIDTH 1000 0
DWIDTH 14 0
BBX 9 11 3 -2
BITMAP
1800
1000
FF80
8100
8100
8100
0300
0200
0C00
3800
2000
ENDCHAR
STARTCHAR uni30A6
ENCODING 12454
SWIDTH 1000 0
DWIDTH 14 0
BBX 10 12 2 -1
BITMAP
0800
0800
FFC0
8040
8040
80C0
8080
0080
0100
0300
0E00
1800
ENDCHAR
STARTCHAR uni30A7
ENCODING 12455
SWIDTH 1000 0
DWIDTH 14 0
BBX 10 8 2 -1
BITMAP
7F80
0C00
0C00
0C00
0C00
0C00
0C00
FFC0
ENDCHAR
STARTCHAR uni30A8
ENCODING 12456
SWIDTH 1000 0
DWIDTH 14 0
BBX 12 9 1 0
BITMAP
7FE0
0600
0600
0600
0600
0600
0600
0600
FFF0
ENDCHAR
STARTCHAR uni30A9
ENCODING 12457
SWIDTH 1000 0
DWIDTH 14 0
BBX 10 10 2 -2
BITMAP
0200
0200
7FC0
0600
0E00
0A00
3200
6200
4200
0E00
ENDCHAR
STARTCHAR uni30AA
ENCODING 12458
SWIDTH 1000 0
DWIDTH 14 0
BBX 12 12 1 -1
BITMAP
0100
0100
0100
7FF0
0300
0700
0500
1900
3100
E100
0100
0700
ENDCHAR
STARTCHAR uni30AB
ENCODING 12459
SWIDTH 1000 0
DWIDTH 14 0
BBX 10 12 2 -1
BITMAP
0800
0800
0800
FFC0
0840
1840
1040
1040
30C0
2080
4080
8780
ENDCHAR
STARTCHAR uni30AC
ENCODING 12460
SWIDTH 1000 0
DWIDTH 14 0
BBX 12 13 1 -1
BITMAP
0000
0450
0450
0400
FFE0
0860
0860
0840
0840
1040
3040
6040
C3C0
ENDCHAR
STARTCHAR uni30AD
ENCODING 12461
SWIDTH 1000 0
DWIDTH 14 0
BBX 12 12 1 -1
BITMAP
0800
0C00
04C0
7F00
4400
0400
07E0
7F00
4200
0200
0200
0300
ENDCHAR
STARTCHAR uni30AE
ENCODING 12462
SWIDTH 1000 0
DWIDTH 14 0
BBX 12 13 1 -1
BITMAP
0020
0850
0820
0DC0
FF00
C400
0400
05E0
7F00
C200
0200
0200
0200
ENDCHAR
STARTCHAR uni30AF
ENCODING 12463
SWIDTH 1000 0
DWIDTH 14 0
BBX 11 12 1 -1
BITMAP
0400
0C00
0FE0
1820
3040
6040
40C0
0080
0100
0200
0C00
3800
ENDCHAR
STARTCHAR uni30B0
ENCODING 12464
SWIDTH 1000 0
DWIDTH 14 0
BBX 12 14 1 -2
BITMAP
0010
0C50
0820
1FE0
1040
2040
40C0
8080
0180
0300
0600
0C00
3800
2000
ENDCHAR
STARTCHAR uni30B1
ENCODING 12465
SWIDTH 1000 0
DWIDTH 14 0
BBX 12 12 1 -1
BITMAP
1800
1000
1000
3FF0
2100
4100
C100
0300
0200
0600
0C00
1800
ENDCHAR
STARTCHAR uni30B2
ENCODING 12466
SWIDTH 1000 0
DWIDTH 14 0
BBX 12 14 1 -2
BITMAP
0000
1850
1020
1000
3FF0
2100
4100
C300
0200
0200
0600
0C00
1800
0000
ENDCHAR
STARTCHAR uni30B3
ENCODING 12467
SWIDTH 1000 0
DWIDTH 14 0
BBX 10 10 2 -1
BITMAP
FFC0
0040
0040
0040
0040
0040
0040
0040
FFC0
0040
ENDCHAR
STARTCHAR uni30B4
ENCODING 12468
SWIDTH 1000 0
DWIDTH 14 0
BBX 11 13 2 -1
BITMAP
0040
00A0
0000
FFC0
00C0
00C0
00C0
00C0
00C0
00C0
00C0
FFC0
00C0
ENDCHAR
STARTCHAR uni30B5
ENCODING 12469
SWIDTH 1000 0
DWIDTH 14 0
BBX 12 12 1 -1
BITMAP
1080
1080
1080
FFF0
1080
1080
1080
1080
0180
0100
0300
0E00
ENDCHAR
STARTCHAR uni30B6
ENCODING 12470
SWIDTH 1000 0
DWIDTH 14 0
BBX 12 13 1 -2
BITMAP
1090
10A0
1080
FFF0
1080
1080
1080
1180
0100
0100
0200
0E00
0000
ENDCHAR
STARTCHAR uni30B7
ENCODING 12471
SWIDTH 1000 0
DWIDTH 14 0
BBX 12 11 1 -1
BITMAP
1000
0C00
0400
4000
7030
1060
00C0
0180
0700
1C00
7000
ENDCHAR
STARTCHAR uni30B8
ENCODING 12472
SWIDTH 1000 0
DWIDTH 14 0
BBX 12 12 1 -1
BITMAP
0000
1090
0C50
0440
4000
6020
1060
00C0
0180
0600
1C00
6000
ENDCHAR
STARTCHAR uni30B9
ENCODING 12473
SWIDTH 1000 0
DWIDTH 14 0
BBX 12 11 1 -1
BITMAP
3FC0
00C0
0080
0180
0100
0300
0700
0C80
1840
7060
4020
ENDCHAR
STARTCHAR uni30BA
ENCODING 12474
SWIDTH 1000 0
DWIDTH 14 0
BBX 12 13 1 -1
BITMAP
0020
0050
0030
7FC0
0080
0080
0100
0300
0700
0D80
18C0
3040
E020
ENDCHAR
STARTCHAR uni30BB
ENCODING 12475
SWIDTH 1000 0
DWIDTH 14 0
BBX 11 12 1 -1
BITMAP
1000
1000
1020
13E0
7E60
D040
1080
1180
1000
1000
1800
0FE0
ENDCHAR
STARTCHAR uni30BC
ENCODING 12476
SWIDTH 1000 0
DWIDTH 14 0
BBX 12 13 1 -1
BITMAP
0000
1050
1020
1000
11E0
3F60
F040
1080
1180
1000
1000
1000
0FE0
ENDCHAR
STARTCHAR uni30BD
ENCODING 12477
SWIDTH 1000 0
DWIDTH 14 0
BBX 10 11 2 -1
BITMAP
80C0
C0C0
4080
6080
2180
0100
0300
0600
0C00
3800
0000
ENDCHAR
STARTCHAR uni30BE
ENCODING 12478
SWIDTH 1000 0
DWIDTH 14 0
BBX 12 13 1 -1
BITMAP
0000
0050
0050
4040
6040
2040
10C0
0080
0180
0300
0600
0C00
1000
ENDCHAR
STARTCHAR uni30BF
ENCODING 12479
SWIDTH 1000 0
DWIDTH 14 0
BBX 11 12 1 -1
BITMAP
0400
0400
0FE0
1820
3040
6C40
4680
0380
01C0
0640
0C00
3800
ENDCHAR
STARTCHAR uni30C0
ENCODING 12480
SWIDTH 1000 0
DWIDTH 14 0
BBX 12 14 1 -2
BITMAP
0010
0450
0820
1FE0
1040
2040
48C0
8C80
0380
0380
06C0
0C00
3800
2000
ENDCHAR
STARTCHAR uni30C1
ENCODING 12481
SWIDTH 1000 0
DWIDTH 14 0
BBX 12 12 1 -1
BITMAP
0040
7F80
0200
0200
0200
FFF0
0200
0600
0400
0400
0800
3000
ENDCHAR
STARTCHAR uni30C2
ENCODING 12482
SWIDTH 1000 0
DWIDTH 14 0
BBX 12 12 1 -1
BITMAP
0080
7FC0
0450
0450
0400
FFE0
0400
0400
0400
0C00
1800
3000
ENDCHAR
STARTCHAR uni30C3
ENCODING 12483
SWIDTH 1000 0
DWIDTH 14 0
BBX 10 9 2 -1
BITMAP
0800
48C0
4480
6080
0100
0300
0600
0C00
3000
ENDCHAR
STARTCHAR uni30C4
ENCODING 12484
SWIDTH 1000 0
DWIDTH 14 0
BBX 12 11 1 -1
BITMAP
0C00
C420
4420
6620
2040
0040
0080
0180
0300
0C00
1800
ENDCHAR
STARTCHAR uni30C5
ENCODING 12485
SWIDTH 1000 0
DWIDTH 14 0
BBX 12 13 1 -1
BITMAP
0000
0050
0820
8420
4420
4460
6040
00C0
0080
0100
0600
0C00
1000
ENDCHAR
STARTCHAR uni30C6
ENCODING 12486
SWIDTH 1000 0
DWIDTH 14 0
BBX 12 11 1 -1
BITMAP
3FC0
0000
0000
0000
FFF0
0200
0200
0600
0400
0C00
1800
ENDCHAR
STARTCHAR uni30C7
ENCODING 12487
SWIDTH 1000 0
DWIDTH 14 0
BBX 13 14 1 -2
BITMAP
0010
0030
3FA0
0000
0000
0000
FFF0
0200
0600
0400
0400
0C00
1800
0000
ENDCHAR
STARTCHAR uni30C8
ENCODING 12488
SWIDTH 1000 0
DWIDTH 14 0
BBX 7 11 5 -1
BITMAP
80
80
80
80
F0
9C
86
80
80
80
80
ENDCHAR
STARTCHAR uni30C9
ENCODING 12489
SWIDTH 1000 0
DWIDTH 14 0
BBX 8 11 4 -1
BITMAP
82
85
80
80
F0
8E
82
80
80
80
80
ENDCHAR
STARTCHAR uni30CA
ENCODING 12490
SWIDTH 1000 0
DWIDTH 14 0
BBX 12 12 1 -1
BITMAP
0200
0200
0200
0200
FFF0
0200
0200
0600
0400
0C00
1800
3000
ENDCHAR
STARTCHAR uni30CB
ENCODING 12491
SWIDTH 1000 0
DWIDTH 14 0
BBX 11 9 1 0
BITMAP
7FC0
0000
0000
0000
0000
0000
0000
0000
FFE0
ENDCHAR
STARTCHAR uni30CC
ENCODING 12492
SWIDTH 1000 0
DWIDTH 14 0
BBX 10 11 2 -1
BITMAP
7F80
0080
0180
2100
3100
1A00
0600
0F00
1980
3080
E000
ENDCHAR
STARTCHAR uni30CD
ENCODING 12493
SWIDTH 1000 0
DWIDTH 14 0
BBX 12 12 1 -1
BITMAP
0200
0200
7FC0
00C0
0180
0300
0600
1EC0
E630
0600
0600
0600
ENDCHAR
STARTCHAR uni30CE
ENCODING 12494
SWIDTH 1000 0
DWIDTH 14 0
BBX 9 11 2 -1
BITMAP
0080
0080
0100
0100
0300
0200
0400
0C00
3000
E000
0000
ENDCHAR
STARTCHAR uni30CF
ENCODING 12495
SWIDTH 1000 0
DWIDTH 14 0
BBX 12 10 1 0
BITMAP
0000
1980
1080
10C0
1040
3060
2020
6020
4030
C010
ENDCHAR
STARTCHAR uni30D0
ENCODING 12496
SWIDTH 1000 0
DWIDTH 14 0
BBX 12 12 1 -1
BITMAP
0010
0050
1920
1080
1080
10C0
3040
2060
6020
4020
C030
0000
ENDCHAR
STARTCHAR uni30D1
ENCODING 12497
SWIDTH 1000 0
DWIDTH 14 0
BBX 12 13 1 -1
BITMAP
0030
0050
0050
19B0
1080
1080
10C0
3040
2060
6020
4020
C030
8020
ENDCHAR
STARTCHAR uni30D2
ENCODING 12498
SWIDTH 1000 0
DWIDTH 14 0
BBX 9 12 3 -1
BITMAP
8000
8000
8000
8380
9C00
F000
8000
8000
8000
8000
C000
7F80
ENDCHAR
STARTCHAR uni30D3
ENCODING 12499
SWIDTH 1000 0
DWIDTH 14 0
BBX 10 13 3 -1
BITMAP
0080
8180
8140
8000
8300
9C00
F000
8000
8000
8000
8000
8000
FF00
ENDCHAR
STARTCHAR uni30D4
ENCODING 12500
SWIDTH 1000 0
DWIDTH 14 0
BBX 10 13 3 -1
BITMAP
0080
8140
8140
81C0
8300
9C00
F000
8000
8000
8000
8000
8000
FF00
ENDCHAR
STARTCHAR uni30D5
ENCODING 12501
SWIDTH 1000 0
DWIDTH 14 0
BBX 10 11 2 -1
BITMAP
FFC0
0040
00C0
0080
0080
0180
0300
0200
0C00
3800
2000
ENDCHAR
STARTCHAR uni30D6
ENCODING 12502
SWIDTH 1000 0
DWIDTH 14 0
BBX 12 13 2 -1
BITMAP
00A0
00A0
0040
FFC0
00C0
0080
0080
0180
0100
0200
0600
1800
7000
ENDCHAR
STARTCHAR uni30D7
ENCODING 12503
SWIDTH 1000 0
DWIDTH 14 0
BBX 12 13 2 -1
BITMAP
0020
00D0
0090
FFE0
00C0
0080
0080
0180
0100
0200
0600
1C00
7000
ENDCHAR
STARTCHAR uni30D8
ENCODING 12504
SWIDTH 1000 0
DWIDTH 14 0
BBX 12 9 1 0
BITMAP
0C00
1E00
3300
2180
4080
C040
0060
0030
0010
ENDCHAR
STARTCHAR uni30D9
ENCODING 12505
SWIDTH 1000 0
DWIDTH 14 0
BBX 12 10 1 0
BITMAP
0020
00A0
1C40
1600
2300
6180
C0C0
8060
0020
0010
ENDCHAR
STARTCHAR uni30DA
ENCODING 12506
SWIDTH 1000 0
DWIDTH 14 0
BBX 12 10 1 0
BITMAP
0060
0090
1CA0
1660
2300
6180
C0C0
8060
0020
0010
ENDCHAR
STARTCHAR uni30DB
ENCODING 12507
SWIDTH 1000 0
DWIDTH 14 0
BBX 12 12 1 -1
BITMAP
0200
0200
0200
7FF0
0200
0200
3240
2220
4220
C210
0200
0E00
ENDCHAR
STARTCHAR uni30DC
ENCODING 12508
SWIDTH 1000 0
DWIDTH 14 0
BBX 12 13 1 -1
BITMAP
0000
0650
0650
0600
FFE0
0600
0600
2640
6660
4620
8630
0600
1C00
ENDCHAR
STARTCHAR uni30DD
ENCODING 12509
SWIDTH 1000 0
DWIDTH 14 0
BBX 12 13 1 -1
BITMAP
0070
0650
0670
0600
FFE0
0600
0600
2640
6660
4620
8630
0600
1C00
ENDCHAR
STARTCHAR uni30DE
ENCODING 12510
SWIDTH 1000 0
DWIDTH 14 0
BBX 12 10 1 -1
BITMAP
FFF0
0020
0060
00C0
3180
1B00
0E00
0600
0300
0180
ENDCHAR
STARTCHAR uni30DF
ENCODING 12511
SWIDTH 1000 0
DWIDTH 14 0
BBX 9 11 2 -1
BITMAP
3800
0F80
0080
0000
7800
0700
0000
0000
F000
1F00
0180
ENDCHAR
STARTCHAR uni30E0
ENCODING 12512
SWIDTH 1000 0
DWIDTH 14 0
BBX 12 12 1 -1
BITMAP
0400
0400
0C00
0800
0800
0800
10C0
1040
1060
23E0
FF30
0010
ENDCHAR
STARTCHAR uni30E1
ENCODING 12513
SWIDTH 1000 0
DWIDTH 14 0
BBX 10 11 2 -1
BITMAP
0080
0080
2100
3100
0A00
0600
0F00
0980
30C0
6040
8000
ENDCHAR
STARTCHAR uni30E2
ENCODING 12514
SWIDTH 1000 0
DWIDTH 14 0
BBX 11 11 2 -1
BITMAP
7FC0
0800
0800
0800
FFE0
0800
0800
0800
0800
0800
0FC0
ENDCHAR
STARTCHAR uni30E3
ENCODING 12515
SWIDTH 1000 0
DWIDTH 14 0
BBX 10 10 2 -2
BITMAP
2000
1000
1FC0
F080
1900
0B00
0800
0800
0400
0400
ENDCHAR
STARTCHAR uni30E4
ENCODING 12516
SWIDTH 1000 0
DWIDTH 14 0
BBX 12 12 1 -1
BITMAP
1000
1000
1070
1FA0
F860
0840
0880
0C00
0400
0400
0600
0200
ENDCHAR
STARTCHAR uni30E5
ENCODING 12517
SWIDTH 1000 0
DWIDTH 14 0
BBX 10 7 2 0
BITMAP
7F00
0100
0100
0100
0100
0300
FFC0
ENDCHAR
STARTCHAR uni30E6
ENCODING 12518
SWIDTH 1000 0
DWIDTH 14 0
BBX 12 9 1 0
BITMAP
3FC0
00C0
00C0
0080
0080
0080
0080
0080
FFF0
ENDCHAR
STARTCHAR uni30E7
ENCODING 12519
SWIDTH 1000 0
DWIDTH 14 0
BBX 8 9 3 -2
BITMAP
FF
01
01
FF
01
01
01
FF
01
ENDCHAR
STARTCHAR uni30E8
ENCODING 12520
SWIDTH 1000 0
DWIDTH 14 0
BBX 10 11 2 -1
BITMAP
FFC0
00C0
00C0
00C0
00C0
7FC0
00C0
00C0
00C0
FFC0
00C0
ENDCHAR
STARTCHAR uni30E9
ENCODING 12521
SWIDTH 1000 0
DWIDTH 14 0
BBX 10 11 2 -1
BITMAP
7F80
0000
0000
FFC0
0040
00C0
0080
0180
0300
0E00
3800
ENDCHAR
STARTCHAR uni30EA
ENCODING 12522
SWIDTH 1000 0
DWIDTH 14 0
BBX 8 11 3 -1
BITMAP
81
81
81
81
81
81
83
02
06
0C
10
ENDCHAR
STARTCHAR uni30EB
ENCODING 12523
SWIDTH 1000 0
DWIDTH 14 0
BBX 12 11 1 -1
BITMAP
1300
1300
1300
1300
1300
1300
3310
2330
2360
4380
8100
ENDCHAR
STARTCHAR uni30EC
ENCODING 12524
SWIDTH 1000 0
DWIDTH 14 0
BBX 10 11 3 -1
BITMAP
8000
8000
8000
8000
8000
80C0
8180
8700
8C00
F000
0000
ENDCHAR
STARTCHAR uni30ED
ENCODING 12525
SWIDTH 1000 0
DWIDTH 14 0
BBX 10 10 2 -1
BITMAP
FFC0
8040
8040
8040
8040
8040
8040
8040
FFC0
8040
ENDCHAR
STARTCHAR uni30EE
ENCODING 12526
SWIDTH 1000 0
DWIDTH 14 0
BBX 9 9 3 -2
BITMAP
FF80
8100
8100
8100
0300
0200
0400
1800
3000
ENDCHAR
STARTCHAR uni30EF
ENCODING 12527
SWIDTH 1000 0
DWIDTH 14 0
BBX 10 11 2 -1
BITMAP
FFC0
8040
8040
80C0
8080
0080
0180
0100
0600
0C00
1800
ENDCHAR
STARTCHAR uni30F0
ENCODING 12528
SWIDTH 1000 0
DWIDTH 14 0
BBX 12 12 1 -1
BITMAP
0080
0080
0080
7FF0
1080
1080
1080
1080
FFF0
0080
0080
0080
ENDCHAR
STARTCHAR uni30F1
ENCODING 12529
SWIDTH 1000 0
DWIDTH 14 0
BBX 12 9 1 0
BITMAP
7FF0
0020
0440
0480
0400
0400
0400
0400
FFF0
ENDCHAR
STARTCHAR uni30F2
ENCODING 12530
SWIDTH 1000 0
DWIDTH 14 0
BBX 10 11 2 -1
BITMAP
FFC0
0040
0040
00C0
7F80
0080
0180
0300
0600
0C00
3800
ENDCHAR
STARTCHAR uni30F3
ENCODING 12531
SWIDTH 1000 0
DWIDTH 14 0
BBX 11 11 2 -1
BITMAP
4000
6000
3000
0020
0040
0080
0180
0600
1C00
F000
0000
ENDCHAR
STARTCHAR uni30F4
ENCODING 12532
SWIDTH 1000 0
DWIDTH 14 0
BBX 11 13 2 -1
BITMAP
00C0
08A0
0800
FFC0
8040
80C0
8080
8080
0180
0100
0200
0C00
3800
ENDCHAR
STARTCHAR uni30F5
ENCODING 12533
SWIDTH 1000 0
DWIDTH 14 0
BBX 9 9 2 -1
BITMAP
0800
0800
FF80
0880
1880
1080
1080
2080
C700
ENDCHAR
STARTCHAR uni30F6
ENCODING 12534
SWIDTH 1000 0
DWIDTH 14 0
BBX 10 10 2 -2
BITMAP
1000
2000
3FC0
4200
C200
0400
0400
0C00
1800
1000
ENDCHAR
STARTCHAR uni30FB
ENCODING 12539
SWIDTH 1000 0
DWIDTH 14 0
BBX 2 3 6 3
BITMAP
C0
C0
C0
ENDCHAR
STARTCHAR uni3105
ENCODING 12549
SWIDTH 1000 0
DWIDTH 14 0
BBX 10 13 2 -1
BITMAP
0000
2000
4000
4000
7FC0
0080
0080
0080
0080
0080
0080
0100
0F00
ENDCHAR
STARTCHAR uni3106
ENCODING 12550
SWIDTH 1000 0
DWIDTH 14 0
BBX 11 14 1 -2
BITMAP
0000
1000
1000
2000
3FC0
0040
1080
1880
0D00
0200
0500
1880
7040
0000
ENDCHAR
STARTCHAR uni3107
ENCODING 12551
SWIDTH 1000 0
DWIDTH 14 0
BBX 10 11 2 -1
BITMAP
FFC0
8040
8040
8040
8040
8040
8040
8040
8040
8040
8040
ENDCHAR
STARTCHAR uni3108
ENCODING 12552
SWIDTH 1000 0
DWIDTH 14 0
BBX 11 11 2 -1
BITMAP
FFC0
8000
8000
8000
8000
8000
8000
8000
8000
8000
FFE0
ENDCHAR
STARTCHAR uni3109
ENCODING 12553
SWIDTH 1000 0
DWIDTH 14 0
BBX 11 13 1 -1
BITMAP
0000
1000
2000
2000
3FE0
0420
0420
0420
0C60
0840
1040
3040
C3C0
ENDCHAR
STARTCHAR uni310A
ENCODING 12554
SWIDTH 1000 0
DWIDTH 14 0
BBX 12 14 1 -2
BITMAP
0200
0200
0600
0400
FFF0
0C00
0800
0800
1180
1080
2040
2FE0
7820
0020
ENDCHAR
STARTCHAR uni310B
ENCODING 12555
SWIDTH 1000 0
DWIDTH 14 0
BBX 10 12 2 -1
BITMAP
FF00
0200
0600
0400
0800
1FC0
0040
0040
0040
0080
0080
0F00
ENDCHAR
STARTCHAR uni310C
ENCODING 12556
SWIDTH 1000 0
DWIDTH 14 0
BBX 11 13 1 -1
BITMAP
0200
2200
2200
2200
7FE0
0420
0420
0420
0820
0860
1040
2040
C3C0
ENDCHAR
STARTCHAR uni310D
ENCODING 12557
SWIDTH 1000 0
DWIDTH 14 0
BBX 10 12 2 -1
BITMAP
1080
1180
2100
6200
4600
8400
C400
4200
2100
3180
1080
08C0
ENDCHAR
STARTCHAR uni310E
ENCODING 12558
SWIDTH 1000 0
DWIDTH 14 0
BBX 12 12 1 -1
BITMAP
FFF0
0800
0800
1800
1000
3FC0
0040
0040
00C0
0080
0080
0F00
ENDCHAR
STARTCHAR uni310F
ENCODING 12559
SWIDTH 1000 0
DWIDTH 14 0
BBX 12 12 1 -2
BITMAP
7FF0
6000
6000
6000
4000
4000
4000
4000
4000
C000
8000
8000
ENDCHAR
STARTCHAR uni3110
ENCODING 12560
SWIDTH 1000 0
DWIDTH 14 0
BBX 7 12 3 -1
BITMAP
02
42
42
42
42
42
42
4E
F2
82
02
02
ENDCHAR
STARTCHAR uni3111
ENCODING 12561
SWIDTH 1000 0
DWIDTH 14 0
BBX 7 12 3 -1
BITMAP
06
04
08
10
20
40
40
20
18
08
04
02
ENDCHAR
STARTCHAR uni3112
ENCODING 12562
SWIDTH 1000 0
DWIDTH 14 0
BBX 12 11 1 -1
BITMAP
FFF0
0600
0600
0600
0600
0600
0600
0600
0600
0600
0600
ENDCHAR
STARTCHAR uni3113
ENCODING 12563
SWIDTH 1000 0
DWIDTH 14 0
BBX 12 12 1 -1
BITMAP
0600
4620
4620
4620
4620
4620
4620
7FE0
0600
0600
0600
FFF0
ENDCHAR
STARTCHAR uni3114
ENCODING 12564
SWIDTH 1000 0
DWIDTH 14 0
BBX 10 13 2 -1
BITMAP
0000
0200
0C00
1880
6100
0200
0C00
1C00
6400
8400
0400
0400
0400
ENDCHAR
STARTCHAR uni3115
ENCODING 12565
SWIDTH 1000 0
DWIDTH 14 0
BBX 12 13 0 -2
BITMAP
3FF0
0010
0010
0010
0010
1FF0
1000
1000
3000
2000
2000
4000
4000
ENDCHAR
STARTCHAR uni3116
ENCODING 12566
SWIDTH 1000 0
DWIDTH 14 0
BBX 10 12 2 -1
BITMAP
FFC0
8040
8040
9040
8840
8C40
8440
8240
8040
8040
FFC0
0040
ENDCHAR
STARTCHAR uni3117
ENCODING 12567
SWIDTH 1000 0
DWIDTH 14 0
BBX 10 12 2 -2
BITMAP
FFC0
0840
0840
0840
0840
0840
0840
0B80
0800
0800
0800
0800
ENDCHAR
STARTCHAR uni3118
ENCODING 12568
SWIDTH 1000 0
DWIDTH 14 0
BBX 12 14 1 -2
BITMAP
0400
0400
0400
FFF0
0800
1800
1000
1FC0
0040
0080
0080
0180
0100
0000
ENDCHAR
STARTCHAR uni3119
ENCODING 12569
SWIDTH 1000 0
DWIDTH 14 0
BBX 11 12 2 -1
BITMAP
0800
0800
1800
1000
1000
2000
2100
4080
4080
9FC0
E060
0000
ENDCHAR
STARTCHAR uni311A
ENCODING 12570
SWIDTH 1000 0
DWIDTH 14 0
BBX 10 11 2 -1
BITMAP
C0C0
6080
3100
1E00
0C00
0C00
0C00
0C00
0C00
0C00
0C00
ENDCHAR
STARTCHAR uni311B
ENCODING 12571
SWIDTH 1000 0
DWIDTH 14 0
BBX 12 11 1 -1
BITMAP
FFF0
0200
0200
0200
1E00
2000
4000
4000
4020
20C0
1F80
ENDCHAR
STARTCHAR uni311C
ENCODING 12572
SWIDTH 1000 0
DWIDTH 14 0
BBX 12 12 1 -1
BITMAP
0200
0200
FFF0
0200
0200
1E00
6000
4000
4000
4020
20C0
1F80
ENDCHAR
STARTCHAR uni311D
ENCODING 12573
SWIDTH 1000 0
DWIDTH 14 0
BBX 12 12 1 -1
BITMAP
1080
1080
1080
1080
FFF0
1080
1080
1100
1100
1000
1000
1FC0
ENDCHAR
STARTCHAR uni311E
ENCODING 12574
SWIDTH 1000 0
DWIDTH 14 0
BBX 12 12 1 -1
BITMAP
FFF0
0200
2200
2200
4600
7FE0
0420
0C20
0860
1040
3040
C040
ENDCHAR
STARTCHAR uni311F
ENCODING 12575
SWIDTH 1000 0
DWIDTH 14 0
BBX 12 10 1 0
BITMAP
1800
3800
4400
0400
0200
0200
0100
0180
00C0
0070
ENDCHAR
STARTCHAR uni3120
ENCODING 12576
SWIDTH 1000 0
DWIDTH 14 0
BBX 11 12 2 -1
BITMAP
0400
0800
1800
3180
2100
7E00
C400
0880
1080
2040
7FC0
8020
ENDCHAR
STARTCHAR uni3121
ENCODING 12577
SWIDTH 1000 0
DWIDTH 14 0
BBX 11 12 1 -2
BITMAP
7FE0
0060
0040
10C0
0880
0500
0300
0780
0C80
3840
E020
0000
ENDCHAR
STARTCHAR uni3122
ENCODING 12578
SWIDTH 1000 0
DWIDTH 14 0
BBX 10 12 2 -2
BITMAP
FF80
2080
2080
6100
4100
7FC0
0040
0040
0080
0080
0180
0000
ENDCHAR
STARTCHAR uni3123
ENCODING 12579
SWIDTH 1000 0
DWIDTH 14 0
BBX 10 13 2 -2
BITMAP
2000
2000
6000
4000
4000
FFC0
0040
0040
00C0
0080
0080
0180
0000
ENDCHAR
STARTCHAR uni3124
ENCODING 12580
SWIDTH 1000 0
DWIDTH 14 0
BBX 12 13 1 -2
BITMAP
0400
0400
0400
FFF0
0400
0600
0600
0A00
0A00
1200
6200
C3F0
0000
ENDCHAR
STARTCHAR uni3125
ENCODING 12581
SWIDTH 1000 0
DWIDTH 14 0
BBX 10 12 2 -1
BITMAP
0400
0400
0800
0800
1000
1000
2000
2000
4000
C000
FFC0
0000
ENDCHAR
STARTCHAR uni3126
ENCODING 12582
SWIDTH 1000 0
DWIDTH 14 0
BBX 12 13 1 -2
BITMAP
1100
1100
1100
1100
1100
1100
1100
1100
1100
3100
6100
C1F0
8000
ENDCHAR
STARTCHAR uni3127
ENCODING 12583
SWIDTH 1000 0
DWIDTH 14 0
BBX 10 1 2 5
BITMAP
FFC0
ENDCHAR
STARTCHAR uni3128
ENCODING 12584
SWIDTH 1000 0
DWIDTH 14 0
BBX 10 11 2 -1
BITMAP
0080
4080
2100
1300
0A00
0400
0E00
1900
3080
40C0
8040
ENDCHAR
STARTCHAR uni3129
ENCODING 12585
SWIDTH 1000 0
DWIDTH 14 0
BBX 10 13 2 -2
BITMAP
8040
8040
8040
8040
8040
8040
8040
8040
8040
8040
8040
FFC0
0040
ENDCHAR
STARTCHAR uni3220
ENCODING 12832
SWIDTH 1000 0
DWIDTH 14 0
BBX 14 14 0 -2
BITMAP
2010
4008
4008
4008
8008
8004
9FE4
8004
8008
8008
4008
4008
4010
2010
ENDCHAR
STARTCHAR uni3221
ENCODING 12833
SWIDTH 1000 0
DWIDTH 14 0
BBX 14 14 0 -2
BITMAP
2010
4008
4008
4FC8
8008
8004
8004
8004
8008
8008
5FE8
4008
4010
2010
ENDCHAR
STARTCHAR uni3222
ENCODING 12834
SWIDTH 1000 0
DWIDTH 14 0
BBX 14 14 0 -2
BITMAP
2010
4010
4008
5FE8
8008
8004
8FC4
8004
8008
8008
4008
5FE8
4008
2010
ENDCHAR
STARTCHAR uni3223
ENCODING 12835
SWIDTH 1000 0
DWIDTH 14 0
BBX 12 14 1 -2
BITMAP
0000
4020
8010
BFD0
AA50
AA50
AA50
A9D0
B050
A050
BFD0
A050
8020
4020
ENDCHAR
STARTCHAR uni3224
ENCODING 12836
SWIDTH 1000 0
DWIDTH 14 0
BBX 14 14 0 -2
BITMAP
2010
4008
5FE8
4208
8208
8208
8FC4
8444
8448
8448
4448
5FF8
4008
2010
ENDCHAR
STARTCHAR uni3225
ENCODING 12837
SWIDTH 1000 0
DWIDTH 14 0
BBX 12 14 1 -2
BITMAP
4020
8420
8610
8210
BFD0
8010
8010
8910
9090
90D0
A050
A050
8020
4020
ENDCHAR
STARTCHAR uni3226
ENCODING 12838
SWIDTH 1000 0
DWIDTH 14 0
BBX 14 14 0 -2
BITMAP
2010
4408
4408
4408
8428
87C8
BC04
8404
8408
8428
4428
47C8
4010
2010
ENDCHAR
STARTCHAR uni3227
ENCODING 12839
SWIDTH 1000 0
DWIDTH 14 0
BBX 12 13 1 -2
BITMAP
4020
8910
8910
8910
8910
8910
9110
9090
9090
A050
A050
8020
0000
ENDCHAR
STARTCHAR uni3228
ENCODING 12840
SWIDTH 1000 0
DWIDTH 14 0
BBX 14 14 0 -2
BITMAP
2010
4210
4208
4408
9F88
8488
8484
8484
8488
8898
5898
50E8
4010
2010
ENDCHAR
STARTCHAR uni3229
ENCODING 12841
SWIDTH 1000 0
DWIDTH 14 0
BBX 14 14 0 -2
BITMAP
0000
4008
4208
8208
8208
8208
BFF4
8204
8208
8208
8208
4208
4208
4010
ENDCHAR
STARTCHAR uni4E00
ENCODING 19968
SWIDTH 1000 0
DWIDTH 14 0
BBX 12 1 1 5
BITMAP
FFF0
ENDCHAR
STARTCHAR uni4E01
ENCODING 19969
SWIDTH 1000 0
DWIDTH 14 0
BBX 12 12 1 -2
BITMAP
FFF0
0200
0200
0200
0200
0200
0200
0200
0200
0200
0200
1E00
ENDCHAR
STARTCHAR uni4E03
ENCODING 19971
SWIDTH 1000 0
DWIDTH 14 0
BBX 12 13 1 -1
BITMAP
0800
0800
0800
0800
0870
1F80
E800
0800
0800
0800
0810
0810
0FE0
ENDCHAR
STARTCHAR uni4E07
ENCODING 19975
SWIDTH 1000 0
DWIDTH 14 0
BBX 12 13 1 -2
BITMAP
FFF0
0800
0800
0800
1FE0
1020
1020
1020
1020
2040
6040
4040
83C0
ENDCHAR
STARTCHAR uni4E08
ENCODING 19976
SWIDTH 1000 0
DWIDTH 14 0
BBX 12 14 1 -2
BITMAP
0100
0100
0100
FFF0
0100
2100
2100
1300
1200
0A00
0400
0B00
71E0
C030
ENDCHAR
STARTCHAR uni4E09
ENCODING 19977
SWIDTH 1000 0
DWIDTH 14 0
BBX 12 11 1 -1
BITMAP
7FE0
0000
0000
0000
0000
3FC0
0000
0000
0000
0000
FFF0
ENDCHAR
STARTCHAR uni4E0A
ENCODING 19978
SWIDTH 1000 0
DWIDTH 14 0
BBX 12 13 1 -1
BITMAP
0400
0400
0400
0400
0400
07E0
0400
0400
0400
0400
0400
0400
FFF0
ENDCHAR
STARTCHAR uni4E0B
ENCODING 19979
SWIDTH 1000 0
DWIDTH 14 0
BBX 12 13 1 -2
BITMAP
FFF0
0400
0400
0400
0700
04C0
0460
0420
0400
0400
0400
0400
0400
ENDCHAR
STARTCHAR uni4E0C
ENCODING 19980
SWIDTH 1000 0
DWIDTH 14 0
BBX 12 12 1 -2
BITMAP
FFF0
1080
1080
1080
1080
1080
1080
3080
2080
6080
C080
8080
ENDCHAR
STARTCHAR uni4E0D
ENCODING 19981
SWIDTH 1000 0
DWIDTH 14 0
BBX 12 13 1 -2
BITMAP
FFF0
0200
0600
0600
0F80
16C0
2660
C610
8600
0600
0600
0600
0600
ENDCHAR
STARTCHAR uni4E0E
ENCODING 19982
SWIDTH 1000 0
DWIDTH 14 0
BBX 11 14 1 -2
BITMAP
1000
3000
3FE0
2000
2000
2000
7FE0
0020
0020
FFA0
0020
0020
0040
03C0
ENDCHAR
STARTCHAR uni4E10
ENCODING 19984
SWIDTH 1000 0
DWIDTH 14 0
BBX 12 13 1 -2
BITMAP
FFF0
0400
0400
2400
67E0
4400
4400
7FF0
0010
0030
0020
0020
01E0
ENDCHAR
STARTCHAR uni4E11
ENCODING 19985
SWIDTH 1000 0
DWIDTH 14 0
BBX 12 12 1 -1
BITMAP
7FC0
0840
0840
0840
0840
7FC0
0840
1840
1040
1040
1040
FFF0
ENDCHAR
STARTCHAR uni4E13
ENCODING 19987
SWIDTH 1000 0
DWIDTH 14 0
BBX 12 14 1 -2
BITMAP
0400
0400
7FE0
0800
0800
FFF0
1000
1FE0
0040
0080
1900
0E00
0180
0080
ENDCHAR
STARTCHAR uni4E14
ENCODING 19988
SWIDTH 1000 0
DWIDTH 14 0
BBX 12 12 1 -1
BITMAP
3FC0
2040
2040
2040
3FC0
2040
2040
3FC0
2040
2040
2040
FFF0
ENDCHAR
STARTCHAR uni4E15
ENCODING 19989
SWIDTH 1000 0
DWIDTH 14 0
BBX 12 12 1 -1
BITMAP
FFF0
0200
0600
0E00
1F80
3640
6620
8610
0600
0600
0000
FFF0
ENDCHAR
STARTCHAR uni4E16
ENCODING 19990
SWIDTH 1000 0
DWIDTH 14 0
BBX 12 13 1 -1
BITMAP
0440
2440
2440
2440
FFF0
2440
2440
2440
2440
27C0
2000
2000
3FF0
ENDCHAR
STARTCHAR uni4E18
ENCODING 19992
SWIDTH 1000 0
DWIDTH 14 0
BBX 12 12 1 -1
BITMAP
01C0
3E00
2000
2000
2000
3FF0
2080
2080
2080
2080
2080
FFF0
ENDCHAR
STARTCHAR uni4E19
ENCODING 19993
SWIDTH 1000 0
DWIDTH 14 0
BBX 12 13 1 -2
BITMAP
FFF0
0400
0400
0400
FFF0
C430
C630
C730
C9B0
F0F0
C030
C030
C0E0
ENDCHAR
STARTCHAR uni4E1A
ENCODING 19994
SWIDTH 1000 0
DWIDTH 14 0
BBX 12 13 1 -1
BITMAP
0900
0900
0900
0900
C910
4920
4920
2940
2940
0900
0900
0900
FFF0
ENDCHAR
STARTCHAR uni4E1B
ENCODING 19995
SWIDTH 1000 0
DWIDTH 14 0
BBX 12 13 1 -1
BITMAP
1080
1080
1080
1080
3080
3980
2940
2540
6760
4220
C410
0000
FFF0
ENDCHAR
STARTCHAR uni4E1C
ENCODING 19996
SWIDTH 1000 0
DWIDTH 14 0
BBX 12 14 1 -2
BITMAP
0400
0C00
FFF0
1800
1200
3200
2200
7FE0
0200
1200
2240
6220
C210
0E00
ENDCHAR
STARTCHAR uni4E1D
ENCODING 19997
SWIDTH 1000 0
DWIDTH 14 0
BBX 12 13 1 -1
BITMAP
1040
1080
2080
2510
4920
FBE0
1040
2080
6100
FFF0
0000
0000
FFF0
ENDCHAR
STARTCHAR uni4E1E
ENCODING 19998
SWIDTH 1000 0
DWIDTH 14 0
BBX 12 12 1 -1
BITMAP
7FC0
0080
0300
FF30
1760
16C0
26C0
6660
C630
9C00
0000
FFF0
ENDCHAR
STARTCHAR uni4E22
ENCODING 20002
SWIDTH 1000 0
DWIDTH 14 0
BBX 12 14 1 -2
BITMAP
00E0
7F00
0600
0600
7FE0
0600
0600
FFF0
0800
1880
1040
20E0
7F20
0000
ENDCHAR
STARTCHAR uni4E24
ENCODING 20004
SWIDTH 1000 0
DWIDTH 14 0
BBX 12 13 1 -2
BITMAP
FFF0
0900
0900
FFF0
8910
8910
9990
9590
9650
A250
A010
8010
80E0
ENDCHAR
STARTCHAR uni4E25
ENCODING 20005
SWIDTH 1000 0
DWIDTH 14 0
BBX 13 13 0 -2
BITMAP
7FF8
0480
34B0
14A0
14A0
3FF8
2000
2000
2000
4000
4000
4000
4000
ENDCHAR
STARTCHAR uni4E27
ENCODING 20007
SWIDTH 1000 0
DWIDTH 14 0
BBX 12 14 1 -2
BITMAP
0400
0400
FFF0
0440
2440
3480
0480
FFF0
2220
2260
2180
2180
3C60
2010
ENDCHAR
STARTCHAR uni4E28
ENCODING 20008
SWIDTH 1000 0
DWIDTH 14 0
BBX 2 13 6 -2
BITMAP
C0
C0
C0
C0
C0
C0
C0
C0
C0
C0
C0
C0
C0
ENDCHAR
STARTCHAR uni4E2A
ENCODING 20010
SWIDTH 1000 0
DWIDTH 14 0
BBX 13 13 1 -1
BITMAP
0200
0600
0F00
1980
36C0
C630
8610
0600
0600
0600
0600
0600
0600
ENDCHAR
STARTCHAR uni4E2B
ENCODING 20011
SWIDTH 1000 0
DWIDTH 14 0
BBX 10 13 2 -2
BITMAP
C040
6080
3100
1600
0C00
0C00
0C00
0C00
0C00
0C00
0C00
0C00
0C00
ENDCHAR
STARTCHAR uni4E2C
ENCODING 20012
SWIDTH 1000 0
DWIDTH 14 0
BBX 5 13 3 -2
BITMAP
08
08
48
28
38
08
08
18
78
48
08
08
08
ENDCHAR
STARTCHAR uni4E2D
ENCODING 20013
SWIDTH 1000 0
DWIDTH 14 0
BBX 12 14 1 -2
BITMAP
0600
0600
0600
FFF0
8610
8610
8610
8610
FFF0
8610
0600
0600
0600
0600
ENDCHAR
STARTCHAR uni4E30
ENCODING 20016
SWIDTH 1000 0
DWIDTH 14 0
BBX 12 14 1 -2
BITMAP
0600
0600
FFF0
0600
0600
0600
7FE0
0600
0600
FFF0
0600
0600
0600
0600
ENDCHAR
STARTCHAR uni4E32
ENCODING 20018
SWIDTH 1000 0
DWIDTH 14 0
BBX 12 14 1 -2
BITMAP
0600
0600
7FE0
4620
4620
7FE0
0600
FFF0
C630
C630
FFF0
C630
0600
0600
ENDCHAR
STARTCHAR uni4E34
ENCODING 20020
SWIDTH 1000 0
DWIDTH 14 0
BBX 12 14 1 -2
BITMAP
1200
1200
93F0
9400
9580
9840
9000
97F0
9490
9490
9490
9490
17F0
1410
ENDCHAR
STARTCHAR uni4E36
ENCODING 20022
SWIDTH 1000 0
DWIDTH 14 0
BBX 6 6 4 3
BITMAP
80
C0
20
10
08
04
ENDCHAR
STARTCHAR uni4E38
ENCODING 20024
SWIDTH 1000 0
DWIDTH 14 0
BBX 14 14 0 -2
BITMAP
0400
0400
0400
7FE0
0460
0460
3460
1C60
0C60
0E60
0B64
1064
2064
4038
ENDCHAR
STARTCHAR uni4E39
ENCODING 20025
SWIDTH 1000 0
DWIDTH 14 0
BBX 12 13 1 -2
BITMAP
3FC0
2040
2C40
2640
2340
2040
FFF0
2040
2040
4040
4040
C040
81C0
ENDCHAR
STARTCHAR uni4E3A
ENCODING 20026
SWIDTH 1000 0
DWIDTH 14 0
BBX 12 14 1 -2
BITMAP
0400
2400
2400
0400
FFF0
0430
0820
0A20
0920
11A0
1020
2020
4020
81E0
ENDCHAR
STARTCHAR uni4E3B
ENCODING 20027
SWIDTH 1000 0
DWIDTH 14 0
BBX 12 13 1 -1
BITMAP
0000
0600
0300
FFF0
0600
0600
0600
0600
7FE0
0600
0600
0600
FFF0
ENDCHAR
STARTCHAR uni4E3D
ENCODING 20029
SWIDTH 1000 0
DWIDTH 14 0
BBX 12 13 1 -2
BITMAP
FFF0
0000
0000
79F0
4910
4910
6990
5950
5950
4910
4910
4910
5960
ENDCHAR
STARTCHAR uni4E3E
ENCODING 20030
SWIDTH 1000 0
DWIDTH 14 0
BBX 14 14 0 -2
BITMAP
0200
1220
1840
7FF8
0840
1320
3310
5FE8
0300
0300
7FF8
0300
0300
0300
ENDCHAR
STARTCHAR uni4E3F
ENCODING 20031
SWIDTH 1000 0
DWIDTH 14 0
BBX 5 12 3 -1
BITMAP
08
08
08
08
08
08
08
08
18
10
20
C0
ENDCHAR
STARTCHAR uni4E43
ENCODING 20035
SWIDTH 1000 0
DWIDTH 14 0
BBX 12 13 0 -2
BITMAP
7FC0
0840
0840
0880
1880
10F0
1010
1010
3010
2010
6010
40F0
0000
ENDCHAR
STARTCHAR uni4E45
ENCODING 20037
SWIDTH 1000 0
DWIDTH 14 0
BBX 12 14 1 -2
BITMAP
0800
1800
1000
1F00
2100
6100
4200
8300
0500
0D80
1880
3040
6030
8010
ENDCHAR
STARTCHAR uni4E47
ENCODING 20039
SWIDTH 1000 0
DWIDTH 14 0
BBX 13 14 1 -2
BITMAP
0040
03C0
3E00
C800
0800
0800
0810
FFF0
0800
0800
0800
0810
0C10
07F0
ENDCHAR
STARTCHAR uni4E48
ENCODING 20040
SWIDTH 1000 0
DWIDTH 14 0
BBX 12 12 1 -1
BITMAP
0400
0C00
1800
3080
6100
C300
0600
0C80
1840
3060
6FE0
7010
ENDCHAR
STARTCHAR uni4E49
ENCODING 20041
SWIDTH 1000 0
DWIDTH 14 0
BBX 12 13 1 -1
BITMAP
0400
0420
4220
2240
2040
1080
1980
0900
0600
0700
1980
60E0
8030
ENDCHAR
STARTCHAR uni4E4B
ENCODING 20043
SWIDTH 1000 0
DWIDTH 14 0
BBX 12 14 1 -2
BITMAP
0400
0600
0200
FFE0
0040
00C0
0180
0100
0200
0C00
1800
7000
D800
8FF0
ENDCHAR
STARTCHAR uni4E4C
ENCODING 20044
SWIDTH 1000 0
DWIDTH 14 0
BBX 12 14 1 -2
BITMAP
0400
0400
3FC0
2040
2040
21C0
2000
3FF0
0010
0010
FFD0
0010
0020
00E0
ENDCHAR
STARTCHAR uni4E4D
ENCODING 20045
SWIDTH 1000 0
DWIDTH 14 0
BBX 12 14 1 -2
BITMAP
1000
1000
3000
3FF0
6400
C400
87E0
0400
0400
07F0
0400
0400
0400
0400
ENDCHAR
STARTCHAR uni4E4E
ENCODING 20046
SWIDTH 1000 0
DWIDTH 14 0
BBX 12 13 1 -2
BITMAP
03E0
7E00
0220
2240
2240
0200
FFF0
0200
0200
0200
0200
0200
1C00
ENDCHAR
STARTCHAR uni4E4F
ENCODING 20047
SWIDTH 1000 0
DWIDTH 14 0
BBX 13 13 1 -2
BITMAP
01E0
7E00
0400
0200
7FE0
0060
00C0
0180
0300
0C00
7800
D000
8FF0
ENDCHAR
STARTCHAR uni4E50
ENCODING 20048
SWIDTH 1000 0
DWIDTH 14 0
BBX 12 14 1 -2
BITMAP
0060
7F80
4000
4200
4200
4200
7FF0
0200
0240
2240
4220
C230
8210
0E00
ENDCHAR
STARTCHAR uni4E52
ENCODING 20050
SWIDTH 1000 0
DWIDTH 14 0
BBX 12 14 1 -2
BITMAP
0040
3F80
2000
2000
3FE0
2080
2080
2080
2080
FFF0
0000
1000
6000
8000
ENDCHAR
STARTCHAR uni4E53
ENCODING 20051
SWIDTH 1000 0
DWIDTH 14 0
BBX 12 14 1 -2
BITMAP
0040
3F80
2000
2000
3FE0
2080
2080
2080
2080
FFF0
0000
00C0
0060
0010
ENDCHAR
STARTCHAR uni4E54
ENCODING 20052
SWIDTH 1000 0
DWIDTH 14 0
BBX 14 14 0 -2
BITMAP
0030
3FC0
0200
0600
7FF8
0CC0
1860
3870
4848
0840
0840
1840
3040
2040
ENDCHAR
STARTCHAR uni4E56
ENCODING 20054
SWIDTH 1000 0
DWIDTH 14 0
BBX 12 14 1 -2
BITMAP
0040
7F80
0600
FFF0
0600
1680
F6E0
1680
1690
7690
96F0
0600
0600
0600
ENDCHAR
STARTCHAR uni4E58
ENCODING 20056
SWIDTH 1000 0
DWIDTH 14 0
BBX 12 14 1 -2
BITMAP
0040
7F80
0600
FFF0
0600
1680
F6E0
1680
7690
9FF0
1F80
36C0
C630
0600
ENDCHAR
STARTCHAR uni4E59
ENCODING 20057
SWIDTH 1000 0
DWIDTH 14 0
BBX 12 12 1 -1
BITMAP
FFC0
0180
0300
0600
0C00
1800
3000
6000
4010
8010
C010
7FE0
ENDCHAR
STARTCHAR uni4E5C
ENCODING 20060
SWIDTH 1000 0
DWIDTH 14 0
BBX 13 12 0 -1
BITMAP
1000
1000
1070
13D0
1E20
7020
1020
1020
10E0
1008
1008
0FF0
ENDCHAR
STARTCHAR uni4E5D
ENCODING 20061
SWIDTH 1000 0
DWIDTH 14 0
BBX 13 14 1 -2
BITMAP
0800
0800
0800
0800
FF80
0880
0880
0880
1080
1080
3080
2088
4088
80F0
ENDCHAR
STARTCHAR uni4E5E
ENCODING 20062
SWIDTH 1000 0
DWIDTH 14 0
BBX 12 14 1 -2
BITMAP
1000
3000
3FF0
4000
C000
BFC0
0300
0600
0C00
1800
2000
4010
4010
3FE0
ENDCHAR
STARTCHAR uni4E5F
ENCODING 20063
SWIDTH 1000 0
DWIDTH 14 0
BBX 13 14 0 -2
BITMAP
0100
1100
1100
1170
13D0
1F10
F110
1110
1110
1160
1108
1008
1008
0FF0
ENDCHAR
STARTCHAR uni4E60
ENCODING 20064
SWIDTH 1000 0
DWIDTH 14 0
BBX 11 13 1 -2
BITMAP
7FE0
0020
0020
1020
0C20
0620
0020
01A0
0E20
3820
4020
0020
01C0
ENDCHAR
STARTCHAR uni4E61
ENCODING 20065
SWIDTH 1000 0
DWIDTH 14 0
BBX 11 13 1 -2
BITMAP
0200
0400
1840
3180
7F00
0420
1820
7FC0
00C0
0180
0600
7800
4000
ENDCHAR
STARTCHAR uni4E66
ENCODING 20070
SWIDTH 1000 0
DWIDTH 14 0
BBX 12 14 1 -2
BITMAP
0400
0460
0430
7FD0
0440
0440
0440
FFF0
0410
0410
0410
04E0
0400
0400
ENDCHAR
STARTCHAR uni4E69
ENCODING 20073
SWIDTH 1000 0
DWIDTH 14 0
BBX 12 14 1 -2
BITMAP
2080
2080
2080
3E80
2080
2080
2080
FC80
8480
8490
8490
8490
FCF0
8400
ENDCHAR
STARTCHAR uni4E70
ENCODING 20080
SWIDTH 1000 0
DWIDTH 14 0
BBX 12 13 1 -2
BITMAP
7FF0
0020
3220
0A00
4200
3200
0200
FFF0
0400
0500
18C0
7020
C010
ENDCHAR
STARTCHAR uni4E71
ENCODING 20081
SWIDTH 1000 0
DWIDTH 14 0
BBX 12 14 1 -2
BITMAP
0480
F880
1080
1080
FE80
1080
1080
1080
FC80
8480
8490
8490
FC90
80F0
ENDCHAR
STARTCHAR uni4E73
ENCODING 20083
SWIDTH 1000 0
DWIDTH 14 0
BBX 12 14 1 -2
BITMAP
0600
F880
2280
5480
5480
FC80
0C80
0880
1080
FE80
1090
1090
10F0
7000
ENDCHAR
STARTCHAR uni4E7E
ENCODING 20094
SWIDTH 1000 0
DWIDTH 14 0
BBX 12 14 1 -2
BITMAP
2180
2100
FDF0
2200
FE00
8400
FDE0
8440
FCC0
2080
FD00
2310
2210
21F0
ENDCHAR
STARTCHAR uni4E86
ENCODING 20102
SWIDTH 1000 0
DWIDTH 14 0
BBX 11 13 1 -2
BITMAP
FFE0
0060
00C0
0180
0600
0600
0600
0600
0600
0600
0600
0600
1C00
ENDCHAR
STARTCHAR uni4E88
ENCODING 20104
SWIDTH 1000 0
DWIDTH 14 0
BBX 12 13 1 -2
BITMAP
7FE0
00C0
1980
0E00
0300
FFF0
0230
0220
0240
0200
0200
0200
1C00
ENDCHAR
STARTCHAR uni4E89
ENCODING 20105
SWIDTH 1000 0
DWIDTH 14 0
BBX 12 14 1 -2
BITMAP
0800
1F80
2180
6100
FFE0
0420
0420
FFF0
0420
7FE0
0400
0400
0400
1C00
ENDCHAR
STARTCHAR uni4E8B
ENCODING 20107
SWIDTH 1000 0
DWIDTH 14 0
BBX 12 14 1 -2
BITMAP
0400
FFF0
0400
7FE0
4420
7FE0
0400
7FE0
0420
FFF0
0420
7FE0
0400
1C00
ENDCHAR
STARTCHAR uni4E8C
ENCODING 20108
SWIDTH 1000 0
DWIDTH 14 0
BBX 12 10 1 0
BITMAP
7FE0
0000
0000
0000
0000
0000
0000
0000
0000
FFF0
ENDCHAR
STARTCHAR uni4E8D
ENCODING 20109
SWIDTH 1000 0
DWIDTH 14 0
BBX 12 13 1 -2
BITMAP
7FE0
0000
0000
0000
FFF0
0200
0200
0200
0200
0200
0200
0200
1C00
ENDCHAR
STARTCHAR uni4E8E
ENCODING 20110
SWIDTH 1000 0
DWIDTH 14 0
BBX 12 13 1 -2
BITMAP
7FE0
0200
0200
0200
0200
FFF0
0200
0200
0200
0200
0200
0200
1C00
ENDCHAR
STARTCHAR uni4E8F
ENCODING 20111
SWIDTH 1000 0
DWIDTH 14 0
BBX 12 13 1 -2
BITMAP
7FE0
0000
0000
0000
FFF0
1000
1000
3FE0
0040
0040
0040
0040
03C0
ENDCHAR
STARTCHAR uni4E91
ENCODING 20113
SWIDTH 1000 0
DWIDTH 14 0
BBX 12 13 1 -2
BITMAP
7FE0
0000
0000
0000
0000
FFF0
0800
1880
1080
2040
60E0
7FA0
0010
ENDCHAR
STARTCHAR uni4E92
ENCODING 20114
SWIDTH 1000 0
DWIDTH 14 0
BBX 12 12 1 -1
BITMAP
FFF0
1000
1000
1000
1FC0
1040
20C0
2080
3F80
0080
0080
FFF0
ENDCHAR
STARTCHAR uni4E93
ENCODING 20115
SWIDTH 1000 0
DWIDTH 14 0
BBX 12 12 1 -2
BITMAP
7FE0
0000
0000
FFF0
1080
1080
1080
1080
3080
2080
4080
8080
ENDCHAR
STARTCHAR uni4E94
ENCODING 20116
SWIDTH 1000 0
DWIDTH 14 0
BBX 12 11 1 -1
BITMAP
7FE0
0400
0C00
0800
7FC0
0840
0840
0840
08C0
1080
FFF0
ENDCHAR
STARTCHAR uni4E95
ENCODING 20117
SWIDTH 1000 0
DWIDTH 14 0
BBX 12 14 1 -2
BITMAP
1080
1080
1080
FFF0
1080
1080
1080
1080
FFF0
1080
3080
2080
4080
C080
ENDCHAR
STARTCHAR uni4E98
ENCODING 20120
SWIDTH 1000 0
DWIDTH 14 0
BBX 12 12 1 -1
BITMAP
FFF0
0000
0000
3FC0
2040
2040
3FC0
2040
2040
3FC0
0000
FFF0
ENDCHAR
STARTCHAR uni4E9A
ENCODING 20122
SWIDTH 1000 0
DWIDTH 14 0
BBX 12 12 1 -1
BITMAP
FFF0
0900
0900
8900
4920
4920
4960
2940
2940
0900
0900
FFF0
ENDCHAR
STARTCHAR uni4E9B
ENCODING 20123
SWIDTH 1000 0
DWIDTH 14 0
BBX 12 13 1 -1
BITMAP
1100
1100
5120
5DC0
5100
5110
5110
FDF0
0000
7FE0
0000
0000
FFF0
ENDCHAR
STARTCHAR uni4E9F
ENCODING 20127
SWIDTH 1000 0
DWIDTH 14 0
BBX 12 12 1 -1
BITMAP
7FC0
0180
0600
F5F0
9420
95A0
94C0
F4E0
05A0
1D00
0000
FFF0
ENDCHAR
STARTCHAR uni4EA0
ENCODING 20128
SWIDTH 1000 0
DWIDTH 14 0
BBX 12 5 1 7
BITMAP
0000
0400
0600
0200
FFF0
ENDCHAR
STARTCHAR uni4EA1
ENCODING 20129
SWIDTH 1000 0
DWIDTH 14 0
BBX 12 13 1 -1
BITMAP
0400
0600
0200
FFF0
2000
2000
2000
2000
2000
2000
2000
2000
3FE0
ENDCHAR
STARTCHAR uni4EA2
ENCODING 20130
SWIDTH 1000 0
DWIDTH 14 0
BBX 12 14 1 -2
BITMAP
0400
0200
0200
FFF0
0000
0000
1F80
1080
1080
1080
1080
2090
6090
80F0
ENDCHAR
STARTCHAR uni4EA4
ENCODING 20132
SWIDTH 1000 0
DWIDTH 14 0
BBX 12 14 1 -2
BITMAP
0400
0200
FFF0
0000
10C0
2060
D0B0
1880
0900
0700
0600
1980
70E0
C010
ENDCHAR
STARTCHAR uni4EA5
ENCODING 20133
SWIDTH 1000 0
DWIDTH 14 0
BBX 12 14 1 -2
BITMAP
0400
0200
FFF0
0800
1880
1080
7F00
0660
0C40
7180
4300
0CC0
7060
C000
ENDCHAR
STARTCHAR uni4EA6
ENCODING 20134
SWIDTH 1000 0
DWIDTH 14 0
BBX 12 14 1 -2
BITMAP
0400
0600
0200
FFF0
0900
0900
6960
4920
4920
8910
1110
1100
2100
4700
ENDCHAR
STARTCHAR uni4EA7
ENCODING 20135
SWIDTH 1000 0
DWIDTH 14 0
BBX 12 14 1 -2
BITMAP
0400
0200
7FF0
1000
1080
0880
7FF0
4000
4000
4000
4000
8000
8000
8000
ENDCHAR
STARTCHAR uni4EA8
ENCODING 20136
SWIDTH 1000 0
DWIDTH 14 0
BBX 12 14 1 -2
BITMAP
0400
FFF0
0000
3FC0
2040
2040
3FC0
0000
FFE0
0180
0200
0200
0200
1C00
ENDCHAR
STARTCHAR uni4EA9
ENCODING 20137
SWIDTH 1000 0
DWIDTH 14 0
BBX 12 14 1 -2
BITMAP
0400
0200
FFF0
0000
0000
7FE0
4620
4620
7FE0
4620
4620
4620
7FE0
4020
ENDCHAR
STARTCHAR uni4EAB
ENCODING 20139
SWIDTH 1000 0
DWIDTH 14 0
BBX 12 14 1 -2
BITMAP
0400
FFF0
0000
3FC0
2040
3FC0
0000
7FC0
01C0
0600
FFF0
0600
0600
1C00
ENDCHAR
STARTCHAR uni4EAC
ENCODING 20140
SWIDTH 1000 0
DWIDTH 14 0
BBX 12 14 1 -2
BITMAP
0400
0600
FFF0
0000
3FC0
2040
2040
2040
3FC0
0600
2640
4620
C630
1C00
ENDCHAR
STARTCHAR uni4EAD
ENCODING 20141
SWIDTH 1000 0
DWIDTH 14 0
BBX 12 14 1 -2
BITMAP
0400
FFF0
0000
3FC0
2040
3FC0
0000
FFF0
8010
BFD0
0200
0200
0200
1E00
ENDCHAR
STARTCHAR uni4EAE
ENCODING 20142
SWIDTH 1000 0
DWIDTH 14 0
BBX 12 14 1 -2
BITMAP
0600
FFF0
0000
3FC0
2040
3FC0
0000
FFF0
8010
1F80
1080
1090
3090
C0F0
ENDCHAR
STARTCHAR uni4EB2
ENCODING 20146
SWIDTH 1000 0
DWIDTH 14 0
BBX 12 14 1 -2
BITMAP
0400
0600
7FE0
1080
1080
1080
FFF0
0600
FFF0
0600
26C0
2660
4620
0C00
ENDCHAR
STARTCHAR uni4EB3
ENCODING 20147
SWIDTH 1000 0
DWIDTH 14 0
BBX 12 14 1 -2
BITMAP
0400
FFF0
0000
3FC0
2040
3FC0
0000
FFF0
81D0
3E00
07F0
FC00
0410
07F0
ENDCHAR
STARTCHAR uni4EB5
ENCODING 20149
SWIDTH 1000 0
DWIDTH 14 0
BBX 12 14 1 -2
BITMAP
0400
FFF0
0000
2100
FFE0
2120
FB20
26B0
6430
1A40
F380
1180
1E70
3000
ENDCHAR
STARTCHAR uni4EBA
ENCODING 20154
SWIDTH 1000 0
DWIDTH 14 0
BBX 12 13 1 -2
BITMAP
0600
0400
0600
0600
0600
0600
0D00
0900
1980
1080
2040
C030
8010
ENDCHAR
STARTCHAR uni4EBB
ENCODING 20155
SWIDTH 1000 0
DWIDTH 14 0
BBX 7 13 0 -1
BITMAP
02
04
0C
08
18
38
68
48
08
08
08
08
08
ENDCHAR
STARTCHAR uni4EBF
ENCODING 20159
SWIDTH 1000 0
DWIDTH 14 0
BBX 13 14 0 -2
BITMAP
0000
1800
17F8
1030
3020
7040
5080
1100
1300
1208
1408
1408
13F0
1000
ENDCHAR
STARTCHAR uni4EC0
ENCODING 20160
SWIDTH 1000 0
DWIDTH 14 0
BBX 12 14 1 -2
BITMAP
1180
1180
2180
6180
6180
AFF0
A180
2180
2180
2180
2180
2180
2180
2180
ENDCHAR
STARTCHAR uni4EC1
ENCODING 20161
SWIDTH 1000 0
DWIDTH 14 0
BBX 12 14 1 -2
BITMAP
1000
1000
2000
2FF0
6000
E000
A000
2000
2000
2000
2000
2000
2FF0
2000
ENDCHAR
STARTCHAR uni4EC2
ENCODING 20162
SWIDTH 1000 0
DWIDTH 14 0
BBX 12 14 1 -2
BITMAP
1100
2100
2100
6100
4FF0
C110
C110
4210
4210
4210
4210
4430
4C20
58E0
ENDCHAR
STARTCHAR uni4EC3
ENCODING 20163
SWIDTH 1000 0
DWIDTH 14 0
BBX 13 14 0 -2
BITMAP
0800
17F8
1060
2060
2060
6060
6060
2060
2060
2060
2060
2060
2060
21C0
ENDCHAR
STARTCHAR uni4EC4
ENCODING 20164
SWIDTH 1000 0
DWIDTH 14 0
BBX 12 13 1 -2
BITMAP
7FF0
4000
4100
4100
4300
4300
4300
4300
4680
C4C0
8860
9830
8010
ENDCHAR
STARTCHAR uni4EC5
ENCODING 20165
SWIDTH 1000 0
DWIDTH 14 0
BBX 14 14 0 -2
BITMAP
0800
0800
17F8
1210
3210
7210
D130
1120
11E0
10C0
10C0
1120
1618
1408
ENDCHAR
STARTCHAR uni4EC6
ENCODING 20166
SWIDTH 1000 0
DWIDTH 14 0
BBX 13 13 0 -2
BITMAP
0880
1880
1080
3080
30C0
50A0
1098
1088
1080
1080
1080
1080
1080
ENDCHAR
STARTCHAR uni4EC7
ENCODING 20167
SWIDTH 1000 0
DWIDTH 14 0
BBX 12 14 1 -2
BITMAP
0200
2200
2200
6200
5FC0
C240
C240
4240
4440
4440
4440
4C50
4850
5070
ENDCHAR
STARTCHAR uni4EC9
ENCODING 20169
SWIDTH 1000 0
DWIDTH 14 0
BBX 13 14 0 -2
BITMAP
0800
13E0
1220
3220
2220
6220
6220
2220
2220
2220
2220
2428
2428
2838
ENDCHAR
STARTCHAR uni4ECA
ENCODING 20170
SWIDTH 1000 0
DWIDTH 14 0
BBX 12 14 1 -2
BITMAP
0200
0600
0F00
1980
30C0
E630
8310
0000
7FE0
0040
0080
0100
0300
0200
ENDCHAR
STARTCHAR uni4ECB
ENCODING 20171
SWIDTH 1000 0
DWIDTH 14 0
BBX 14 13 0 -1
BITMAP
0100
0300
0480
0840
3030
6008
0840
0840
0840
0840
1040
3040
6040
ENDCHAR
STARTCHAR uni4ECD
ENCODING 20173
SWIDTH 1000 0
DWIDTH 14 0
BBX 13 14 0 -2
BITMAP
1000
17E0
2220
2220
2220
6240
E278
2208
2208
2208
2408
2410
2810
2870
ENDCHAR
STARTCHAR uni4ECE
ENCODING 20174
SWIDTH 1000 0
DWIDTH 14 0
BBX 12 12 1 -1
BITMAP
1080
1080
1080
3080
3080
3180
2980
2D40
6740
4260
4620
8C10
ENDCHAR
STARTCHAR uni4ED1
ENCODING 20177
SWIDTH 1000 0
DWIDTH 14 0
BBX 13 13 1 -1
BITMAP
0200
0600
0900
1080
6060
F030
30C0
3300
3C00
3000
3020
3020
1FC0
ENDCHAR
STARTCHAR uni4ED3
ENCODING 20179
SWIDTH 1000 0
DWIDTH 14 0
BBX 14 13 0 -1
BITMAP
0100
0300
0480
0840
1030
3FE8
5020
1060
1040
11C0
1010
1010
0FE0
ENDCHAR
STARTCHAR uni4ED4
ENCODING 20180
SWIDTH 1000 0
DWIDTH 14 0
BBX 12 14 1 -2
BITMAP
1000
2FF0
2020
4040
4180
C100
C100
5FF0
4100
4100
4100
4100
4100
4700
ENDCHAR
STARTCHAR uni4ED5
ENCODING 20181
SWIDTH 1000 0
DWIDTH 14 0
BBX 13 14 0 -2
BITMAP
0880
0880
1080
1080
3080
7FF8
5080
1080
1080
1080
1080
1080
17F8
1000
ENDCHAR
STARTCHAR uni4ED6
ENCODING 20182
SWIDTH 1000 0
DWIDTH 14 0
BBX 13 14 0 -2
BITMAP
0840
1040
1240
2258
22E8
63C8
EE48
2248
2248
2270
2240
2208
2208
23F8
ENDCHAR
STARTCHAR uni4ED7
ENCODING 20183
SWIDTH 1000 0
DWIDTH 14 0
BBX 14 14 0 -2
BITMAP
0840
0840
1040
37F8
3040
5440
5240
1240
1340
1180
1180
1340
1630
1408
ENDCHAR
STARTCHAR uni4ED8
ENCODING 20184
SWIDTH 1000 0
DWIDTH 14 0
BBX 12 14 1 -2
BITMAP
1060
1060
3060
2060
6FF0
6060
A060
2460
2260
2260
2060
2060
2060
21C0
ENDCHAR
STARTCHAR uni4ED9
ENCODING 20185
SWIDTH 1000 0
DWIDTH 14 0
BBX 13 14 0 -2
BITMAP
0880
1080
1080
2080
2488
6488
6488
2488
2488
2488
2488
2488
27F8
2008
ENDCHAR
STARTCHAR uni4EDD
ENCODING 20189
SWIDTH 1000 0
DWIDTH 14 0
BBX 13 13 1 -1
BITMAP
0200
0600
0F00
0980
10C0
6060
C030
3FC0
0600
0600
0600
0600
FFF0
ENDCHAR
STARTCHAR uni4EDE
ENCODING 20190
SWIDTH 1000 0
DWIDTH 14 0
BBX 13 14 0 -2
BITMAP
0000
1800
17F8
3088
2088
6288
E488
2488
2888
2108
2108
2208
2618
2C70
ENDCHAR
STARTCHAR uni4EDF
ENCODING 20191
SWIDTH 1000 0
DWIDTH 14 0
BBX 13 14 0 -2
BITMAP
0800
1078
1780
2080
2080
6080
AFF8
2080
2080
2080
2080
2080
2080
2080
ENDCHAR
STARTCHAR uni4EE1
ENCODING 20193
SWIDTH 1000 0
DWIDTH 14 0
BBX 13 14 0 -2
BITMAP
0900
1200
13F8
2600
2400
6400
E3F0
2060
20C0
2180
2300
2208
2408
23F8
ENDCHAR
STARTCHAR uni4EE3
ENCODING 20195
SWIDTH 1000 0
DWIDTH 14 0
BBX 14 14 0 -2
BITMAP
0880
08B0
1898
1080
3098
77F0
D080
1080
1080
1040
1040
1048
1028
1018
ENDCHAR
STARTCHAR uni4EE4
ENCODING 20196
SWIDTH 1000 0
DWIDTH 14 0
BBX 13 14 1 -2
BITMAP
0200
0600
0900
1080
6460
C230
0000
7FE0
0040
0080
0900
0600
0300
0100
ENDCHAR
STARTCHAR uni4EE5
ENCODING 20197
SWIDTH 1000 0
DWIDTH 14 0
BBX 12 12 1 -1
BITMAP
0020
4C20
4460
4240
4040
4040
4040
4480
5CC0
6160
4230
0C10
ENDCHAR
STARTCHAR uni4EE8
ENCODING 20200
SWIDTH 1000 0
DWIDTH 14 0
BBX 13 14 0 -2
BITMAP
0800
0800
17F8
1000
3000
7000
D000
13F0
1000
1000
1000
1000
17F8
1000
ENDCHAR
STARTCHAR uni4EEA
ENCODING 20202
SWIDTH 1000 0
DWIDTH 14 0
BBX 13 13 0 -2
BITMAP
0880
1488
1450
2210
6210
E230
2120
2160
20C0
20C0
2160
2638
2808
ENDCHAR
STARTCHAR uni4EEB
ENCODING 20203
SWIDTH 1000 0
DWIDTH 14 0
BBX 13 13 0 -2
BITMAP
0900
0900
1100
3260
3240
5440
1080
10A0
1110
1310
1238
17C8
1000
ENDCHAR
STARTCHAR uni4EEC
ENCODING 20204
SWIDTH 1000 0
DWIDTH 14 0
BBX 12 14 1 -2
BITMAP
0000
25F0
2410
4810
4810
C810
C810
4810
4810
4810
4810
4810
4810
4870
ENDCHAR
STARTCHAR uni4EF0
ENCODING 20208
SWIDTH 1000 0
DWIDTH 14 0
BBX 13 14 0 -2
BITMAP
1000
1300
1478
2448
2448
6448
6448
2448
2448
2748
2C78
2040
2040
2040
ENDCHAR
STARTCHAR uni4EF2
ENCODING 20210
SWIDTH 1000 0
DWIDTH 14 0
BBX 13 14 0 -2
BITMAP
0880
1080
1080
27F8
2488
6488
6488
2488
27F8
2488
2080
2080
2080
2080
ENDCHAR
STARTCHAR uni4EF3
ENCODING 20211
SWIDTH 1000 0
DWIDTH 14 0
BBX 13 14 0 -2
BITMAP
0C40
1440
1440
2440
2458
6770
6460
2440
2440
2440
2448
2748
2478
2000
ENDCHAR
STARTCHAR uni4EF5
ENCODING 20213
SWIDTH 1000 0
DWIDTH 14 0
BBX 12 14 1 -2
BITMAP
1600
2400
27F0
4980
4980
C180
C180
5FF0
4180
4180
4180
4180
4180
4180
ENDCHAR
STARTCHAR uni4EF6
ENCODING 20214
SWIDTH 1000 0
DWIDTH 14 0
BBX 13 14 0 -2
BITMAP
0880
1280
1280
27F8
2480
6480
6080
2080
2FF8
2080
2080
2080
2080
2080
ENDCHAR
STARTCHAR uni4EF7
ENCODING 20215
SWIDTH 1000 0
DWIDTH 14 0
BBX 13 13 1 -2
BITMAP
1100
2180
2280
4440
C830
D450
4440
4440
4440
4440
4440
4840
5040
ENDCHAR
STARTCHAR uni4EFB
ENCODING 20219
SWIDTH 1000 0
DWIDTH 14 0
BBX 13 14 0 -2
BITMAP
0800
0878
17C0
1080
3080
7080
5080
1FF8
1080
1080
1080
1080
17F8
1000
ENDCHAR
STARTCHAR uni4EFD
ENCODING 20221
SWIDTH 1000 0
DWIDTH 14 0
BBX 13 14 1 -2
BITMAP
1040
2240
2640
4460
4C20
C810
D7F0
4220
4220
4220
4220
4420
4C40
49C0
ENDCHAR
STARTCHAR uni4EFF
ENCODING 20223
SWIDTH 1000 0
DWIDTH 14 0
BBX 13 14 0 -2
BITMAP
0880
10C0
1040
37F8
2100
6100
61F0
2110
2110
2210
2210
2210
2410
2870
ENDCHAR
STARTCHAR uni4F01
ENCODING 20225
SWIDTH 1000 0
DWIDTH 14 0
BBX 13 13 1 -1
BITMAP
0200
0600
0D00
1980
3240
C230
8200
2200
23E0
2200
2200
2200
FFF0
ENDCHAR
STARTCHAR uni4F09
ENCODING 20233
SWIDTH 1000 0
DWIDTH 14 0
BBX 13 14 0 -2
BITMAP
0880
1080
1080
27F8
2000
63E0
2220
2220
2220
2220
2220
2628
2428
2838
ENDCHAR
STARTCHAR uni4F0A
ENCODING 20234
SWIDTH 1000 0
DWIDTH 14 0
BBX 13 14 0 -2
BITMAP
0800
17F0
1090
3090
2090
6FF8
E090
2090
27F0
2110
2100
2200
2600
2800
ENDCHAR
STARTCHAR uni4F0D
ENCODING 20237
SWIDTH 1000 0
DWIDTH 14 0
BBX 13 14 0 -2
BITMAP
0800
17F8
1080
2080
2100
6100
67F0
2110
2110
2110
2110
2210
2FF8
2000
ENDCHAR
STARTCHAR uni4F0E
ENCODING 20238
SWIDTH 1000 0
DWIDTH 14 0
BBX 13 14 0 -2
BITMAP
0880
1080
1FF8
2080
2080
6080
67F8
2210
2210
2120
21C0
21C0
2730
2C08
ENDCHAR
STARTCHAR uni4F0F
ENCODING 20239
SWIDTH 1000 0
DWIDTH 14 0
BBX 13 14 0 -2
BITMAP
0880
18B0
1090
1088
3080
7FF8
F080
30C0
31C0
3140
3120
3230
3418
3008
ENDCHAR
STARTCHAR uni4F10
ENCODING 20240
SWIDTH 1000 0
DWIDTH 14 0
BBX 12 14 1 -2
BITMAP
1200
1240
2320
2100
67F0
F900
A120
2120
2140
2180
2190
2690
2C50
2070
ENDCHAR
STARTCHAR uni4F11
ENCODING 20241
SWIDTH 1000 0
DWIDTH 14 0
BBX 14 14 0 -2
BITMAP
0880
0880
1080
1080
3FF8
71C0
51C0
11A0
12B0
1690
1C88
1888
1080
1080
ENDCHAR
STARTCHAR uni4F17
ENCODING 20247
SWIDTH 1000 0
DWIDTH 14 0
BBX 12 13 1 -1
BITMAP
0200
0600
0F00
1980
7060
D0B0
1080
3080
3980
2D40
6740
4220
8410
ENDCHAR
STARTCHAR uni4F18
ENCODING 20248
SWIDTH 1000 0
DWIDTH 14 0
BBX 12 14 1 -2
BITMAP
1200
3240
2220
2200
5FF0
C200
C280
4280
4280
4480
4490
4C90
58F0
5000
ENDCHAR
STARTCHAR uni4F19
ENCODING 20249
SWIDTH 1000 0
DWIDTH 14 0
BBX 13 13 1 -2
BITMAP
1100
2100
2100
4510
C910
C920
4920
4180
4180
42C0
4640
4C30
4010
ENDCHAR
STARTCHAR uni4F1A
ENCODING 20250
SWIDTH 1000 0
DWIDTH 14 0
BBX 12 14 1 -2
BITMAP
0200
0600
0F00
1980
7060
DFB0
0000
0000
FFF0
0800
1880
3040
7FE0
0020
ENDCHAR
STARTCHAR uni4F1B
ENCODING 20251
SWIDTH 1000 0
DWIDTH 14 0
BBX 13 14 0 -2
BITMAP
0800
17F8
1400
2510
2590
64A0
6460
2460
24F0
2490
2500
2400
27F8
2000
ENDCHAR
STARTCHAR uni4F1E
ENCODING 20254
SWIDTH 1000 0
DWIDTH 14 0
BBX 14 14 0 -2
BITMAP
0100
0300
0CC0
1870
6318
1320
1B20
0B40
0300
7FF8
0300
0300
0300
0300
ENDCHAR
STARTCHAR uni4F1F
ENCODING 20255
SWIDTH 1000 0
DWIDTH 14 0
BBX 12 14 1 -2
BITMAP
1100
2100
2FF0
6100
4100
CFE0
C100
4100
5FF0
4110
4110
4110
4130
4100
ENDCHAR
STARTCHAR uni4F20
ENCODING 20256
SWIDTH 1000 0
DWIDTH 14 0
BBX 13 14 0 -2
BITMAP
0080
1080
17F8
2100
2100
6FF8
E300
2200
23F0
2030
2060
21C0
2040
2020
ENDCHAR
STARTCHAR uni4F22
ENCODING 20258
SWIDTH 1000 0
DWIDTH 14 0
BBX 12 14 1 -2
BITMAP
0000
2FF0
2040
6440
4440
C440
CFF0
40C0
41C0
4340
4640
4C40
5840
41C0
ENDCHAR
STARTCHAR uni4F24
ENCODING 20260
SWIDTH 1000 0
DWIDTH 14 0
BBX 13 14 0 -2
BITMAP
0900
1200
13F8
2400
6C80
6080
27F8
2088
2108
2108
2110
2210
2610
2C70
ENDCHAR
STARTCHAR uni4F25
ENCODING 20261
SWIDTH 1000 0
DWIDTH 14 0
BBX 14 14 0 -2
BITMAP
0A00
1210
1230
3260
22C0
6280
6FF8
2240
2240
2220
2220
22D0
2388
2000
ENDCHAR
STARTCHAR uni4F26
ENCODING 20262
SWIDTH 1000 0
DWIDTH 14 0
BBX 14 14 0 -2
BITMAP
0880
1080
1140
2320
2610
6C08
6A00
2230
22C0
2300
2200
2208
2208
23F0
ENDCHAR
STARTCHAR uni4F27
ENCODING 20263
SWIDTH 1000 0
DWIDTH 14 0
BBX 13 14 0 -2
BITMAP
0880
10C0
1140
2220
2418
6BE8
A220
2220
2220
22E0
2208
2208
23F0
2000
ENDCHAR
STARTCHAR uni4F2A
ENCODING 20266
SWIDTH 1000 0
DWIDTH 14 0
BBX 13 14 0 -2
BITMAP
0880
1480
1280
2080
2FF8
6108
6108
21C8
2148
2328
2208
2610
2410
2870
ENDCHAR
STARTCHAR uni4F2B
ENCODING 20267
SWIDTH 1000 0
DWIDTH 14 0
BBX 13 14 0 -2
BITMAP
0880
0880
1040
17F8
3408
7408
5000
1000
1000
1000
1000
1000
17F8
1000
ENDCHAR
STARTCHAR uni4F2F
ENCODING 20271
SWIDTH 1000 0
DWIDTH 14 0
BBX 11 14 1 -2
BITMAP
1100
1100
2100
2FE0
4820
C820
C820
4FE0
4820
4820
4820
4820
4FE0
4820
ENDCHAR
STARTCHAR uni4F30
ENCODING 20272
SWIDTH 1000 0
DWIDTH 14 0
BBX 13 14 0 -2
BITMAP
0880
1080
1080
27F8
6080
6080
E080
2080
27F8
2418
2418
2418
27F8
2418
ENDCHAR
STARTCHAR uni4F32
ENCODING 20274
SWIDTH 1000 0
DWIDTH 14 0
BBX 12 14 1 -2
BITMAP
0000
2FF0
2810
4810
4FF0
C800
CA00
4A20
4AC0
4B00
4A00
5A10
5210
51F0
ENDCHAR
STARTCHAR uni4F34
ENCODING 20276
SWIDTH 1000 0
DWIDTH 14 0
BBX 13 14 0 -2
BITMAP
0880
1498
1690
3290
2080
67F8
6080
2080
2080
2FF8
2080
2080
2080
2080
ENDCHAR
STARTCHAR uni4F36
ENCODING 20278
SWIDTH 1000 0
DWIDTH 14 0
BBX 13 14 0 -2
BITMAP
0880
1080
1140
2220
2410
6888
A000
27F0
2030
2020
2240
2180
20C0
2040
ENDCHAR
STARTCHAR uni4F38
ENCODING 20280
SWIDTH 1000 0
DWIDTH 14 0
BBX 13 14 0 -2
BITMAP
0080
1080
1080
37F8
2488
6488
E7F8
2488
2488
27F8
2488
2080
2080
2080
ENDCHAR
STARTCHAR uni4F3A
ENCODING 20282
SWIDTH 1000 0
DWIDTH 14 0
BBX 13 14 0 -2
BITMAP
0000
17F8
1008
27E8
6008
6008
E7C8
2448
2448
2448
27C8
2408
2008
2038
ENDCHAR
STARTCHAR uni4F3C
ENCODING 20284
SWIDTH 1000 0
DWIDTH 14 0
BBX 13 13 0 -2
BITMAP
1010
1510
2510
2490
6490
E490
2430
2430
25B0
2778
2448
2088
2000
ENDCHAR
STARTCHAR uni4F3D
ENCODING 20285
SWIDTH 1000 0
DWIDTH 14 0
BBX 13 14 0 -2
BITMAP
1400
1400
2478
2448
2FC8
64C8
64C8
24C8
2548
2548
2548
2978
2948
2B48
ENDCHAR
STARTCHAR uni4F43
ENCODING 20291
SWIDTH 1000 0
DWIDTH 14 0
BBX 13 14 0 -2
BITMAP
0800
17F8
1488
2488
6488
6488
27F8
2488
2488
2488
2488
2488
27F8
2408
ENDCHAR
STARTCHAR uni4F46
ENCODING 20294
SWIDTH 1000 0
DWIDTH 14 0
BBX 13 14 0 -2
BITMAP
0800
17F0
1610
2610
2610
67F0
6610
2610
2610
27F0
2000
2000
2FF8
2000
ENDCHAR
STARTCHAR uni4F4D
ENCODING 20301
SWIDTH 1000 0
DWIDTH 14 0
BBX 12 14 1 -2
BITMAP
1100
1100
2080
2FF0
6000
E420
A420
2240
2240
2240
2240
2040
2FF0
2000
ENDCHAR
STARTCHAR uni4F4E
ENCODING 20302
SWIDTH 1000 0
DWIDTH 14 0
BBX 14 14 0 -2
BITMAP
0810
11F0
1640
3440
2440
6440
E7F8
2420
2420
2420
2420
24A8
2558
2658
ENDCHAR
STARTCHAR uni4F4F
ENCODING 20303
SWIDTH 1000 0
DWIDTH 14 0
BBX 12 14 1 -2
BITMAP
1100
3100
2080
6FF0
6100
A100
A100
2FF0
2100
2100
2100
2100
3FF0
2000
ENDCHAR
STARTCHAR uni4F50
ENCODING 20304
SWIDTH 1000 0
DWIDTH 14 0
BBX 13 14 0 -2
BITMAP
0980
1100
1100
2FF8
2100
6300
A200
23F8
2640
2440
2840
2840
23F8
2000
ENDCHAR
STARTCHAR uni4F51
ENCODING 20305
SWIDTH 1000 0
DWIDTH 14 0
BBX 13 14 0 -2
BITMAP
0880
1080
1080
2FF8
2100
6100
A200
23F8
2608
2E08
2A08
2208
23F8
2208
ENDCHAR
STARTCHAR uni4F53
ENCODING 20307
SWIDTH 1000 0
DWIDTH 14 0
BBX 14 14 0 -2
BITMAP
1880
1080
1080
2FF8
21C0
61C0
62A0
22A0
2690
2498
2BEC
2080
2080
2080
ENDCHAR
STARTCHAR uni4F55
ENCODING 20309
SWIDTH 1000 0
DWIDTH 14 0
BBX 12 14 1 -2
BITMAP
0000
2000
2FF0
6020
4020
CFA0
C8A0
48A0
48A0
4FA0
4820
4020
4020
40E0
ENDCHAR
STARTCHAR uni4F57
ENCODING 20311
SWIDTH 1000 0
DWIDTH 14 0
BBX 12 14 1 -2
BITMAP
1100
2180
2FF0
4810
4C10
C400
C420
44C0
4700
4400
4400
4410
4410
43F0
ENDCHAR
STARTCHAR uni4F58
ENCODING 20312
SWIDTH 1000 0
DWIDTH 14 0
BBX 14 14 0 -2
BITMAP
0100
0300
0480
0840
3030
6FCC
0000
3FF0
0300
1B60
1320
2310
4308
0600
ENDCHAR
STARTCHAR uni4F59
ENCODING 20313
SWIDTH 1000 0
DWIDTH 14 0
BBX 14 14 0 -2
BITMAP
0100
0300
0480
0840
3030
FFE8
0100
0100
7FF8
0100
1960
3130
6118
0600
ENDCHAR
STARTCHAR uni4F5A
ENCODING 20314
SWIDTH 1000 0
DWIDTH 14 0
BBX 14 14 0 -2
BITMAP
0880
1280
1280
27F8
2480
6480
E080
2FF8
20C0
20C0
2120
2320
2618
2808
ENDCHAR
STARTCHAR uni4F5B
ENCODING 20315
SWIDTH 1000 0
DWIDTH 14 0
BBX 13 14 0 -2
BITMAP
0940
1140
1FF8
2148
6148
67F8
A940
2940
2FF8
2148
2248
2248
2458
2840
ENDCHAR
STARTCHAR uni4F5C
ENCODING 20316
SWIDTH 1000 0
DWIDTH 14 0
BBX 12 14 1 -2
BITMAP
1200
1200
2200
27F0
6500
E900
A1F0
2100
2100
21F0
2100
2100
2100
2100
ENDCHAR
STARTCHAR uni4F5D
ENCODING 20317
SWIDTH 1000 0
DWIDTH 14 0
BBX 12 14 1 -2
BITMAP
0200
2400
2400
6FF0
4810
D790
4490
4490
4490
4790
4410
4010
4030
40E0
ENDCHAR
STARTCHAR uni4F5E
ENCODING 20318
SWIDTH 1000 0
DWIDTH 14 0
BBX 13 14 0 -2
BITMAP
0800
17F0
1000
2000
2FF8
6080
A100
2FF8
2220
2620
23C0
20E0
2330
2C08
ENDCHAR
STARTCHAR uni4F5F
ENCODING 20319
SWIDTH 1000 0
DWIDTH 14 0
BBX 14 14 0 -2
BITMAP
0100
1100
13F0
3630
2720
61C0
E1C0
2630
2808
21C0
2020
2700
21E0
2020
ENDCHAR
STARTCHAR uni4F60
ENCODING 20320
SWIDTH 1000 0
DWIDTH 14 0
BBX 13 14 0 -2
BITMAP
0B00
1200
1200
23F8
2448
6448
E050
2250
2250
2648
2448
2448
2040
2180
ENDCHAR
STARTCHAR uni4F63
ENCODING 20323
SWIDTH 1000 0
DWIDTH 14 0
BBX 13 14 0 -2
BITMAP
0800
17F8
1488
2488
2488
67F8
E488
2488
27F8
2488
2488
2C88
2888
28B8
ENDCHAR
STARTCHAR uni4F64
ENCODING 20324
SWIDTH 1000 0
DWIDTH 14 0
BBX 14 14 0 -2
BITMAP
0800
17F8
1200
2200
23E0
6220
6220
22A0
22A0
2260
2220
2628
25A8
2618
ENDCHAR
STARTCHAR uni4F65
ENCODING 20325
SWIDTH 1000 0
DWIDTH 14 0
BBX 13 13 1 -1
BITMAP
0200
0600
0B00
1980
6060
DFB0
0000
4460
2440
2240
1280
0080
FFF0
ENDCHAR
STARTCHAR uni4F67
ENCODING 20327
SWIDTH 1000 0
DWIDTH 14 0
BBX 13 14 0 -2
BITMAP
0880
1080
10F8
2080
2080
6080
6FF8
2080
20C0
20E0
2098
2080
2080
2080
ENDCHAR
STARTCHAR uni4F69
ENCODING 20329
SWIDTH 1000 0
DWIDTH 14 0
BBX 13 14 0 -2
BITMAP
1000
17F0
2810
2BF0
2890
6890
EBF0
2AB0
2AB0
2AB0
2AB0
2AD8
2898
3088
ENDCHAR
STARTCHAR uni4F6C
ENCODING 20332
SWIDTH 1000 0
DWIDTH 14 0
BBX 13 14 0 -2
BITMAP
0900
1108
17F0
2130
2120
6FF8
6080
2100
2730
2FE0
2B00
2308
2308
21F8
ENDCHAR
STARTCHAR uni4F6F
ENCODING 20335
SWIDTH 1000 0
DWIDTH 14 0
BBX 12 14 1 -2
BITMAP
2420
2420
2240
4FF0
4100
C100
CFF0
4100
4100
5FF0
4100
4100
4100
4100
ENDCHAR
STARTCHAR uni4F70
ENCODING 20336
SWIDTH 1000 0
DWIDTH 14 0
BBX 12 14 1 -2
BITMAP
1000
2FF0
2100
2100
4FE0
C820
C820
4820
4FE0
4820
4820
4820
4FE0
4820
ENDCHAR
STARTCHAR uni4F73
ENCODING 20339
SWIDTH 1000 0
DWIDTH 14 0
BBX 12 14 1 -2
BITMAP
1100
2100
2FE0
4100
4100
CFF0
C000
4100
4100
4FF0
4100
4100
5FF0
4000
ENDCHAR
STARTCHAR uni4F74
ENCODING 20340
SWIDTH 1000 0
DWIDTH 14 0
BBX 12 14 1 -2
BITMAP
1000
2FF0
2420
4420
47E0
C420
C420
47E0
4420
4420
47F0
4C20
4020
4020
ENDCHAR
STARTCHAR uni4F76
ENCODING 20342
SWIDTH 1000 0
DWIDTH 14 0
BBX 13 14 0 -2
BITMAP
0880
1080
1FF8
2080
2080
6080
67F8
2000
27F0
2410
2410
2410
27F0
2410
ENDCHAR
STARTCHAR uni4F7B
ENCODING 20347
SWIDTH 1000 0
DWIDTH 14 0
BBX 13 14 0 -2
BITMAP
0940
1140
1140
2558
2550
6360
6140
2160
2750
2948
2240
2240
2448
2C78
ENDCHAR
STARTCHAR uni4F7C
ENCODING 20348
SWIDTH 1000 0
DWIDTH 14 0
BBX 14 14 0 -2
BITMAP
0880
10C0
1FF8
2000
6230
6618
AC28
2320
2120
21C0
20C0
21E0
2638
2C08
ENDCHAR
STARTCHAR uni4F7E
ENCODING 20350
SWIDTH 1000 0
DWIDTH 14 0
BBX 14 14 0 -2
BITMAP
0940
1320
1220
2410
6FF8
6C18
A410
27F0
2410
27F0
2410
2410
2410
2470
ENDCHAR
STARTCHAR uni4F7F
ENCODING 20351
SWIDTH 1000 0
DWIDTH 14 0
BBX 14 14 0 -2
BITMAP
0800
1880
1FF8
2080
67F8
6488
2488
27F8
2480
2680
2380
2180
2670
2C18
ENDCHAR
STARTCHAR uni4F83
ENCODING 20355
SWIDTH 1000 0
DWIDTH 14 0
BBX 14 14 0 -2
BITMAP
0000
17F0
1410
2410
6410
67F0
2000
2290
2290
2490
2490
2494
2498
2818
ENDCHAR
STARTCHAR uni4F84
ENCODING 20356
SWIDTH 1000 0
DWIDTH 14 0
BBX 13 14 0 -2
BITMAP
0800
17F8
1100
2320
2210
67F8
6408
2080
2080
27F8
2080
2080
2FF8
2000
ENDCHAR
STARTCHAR uni4F88
ENCODING 20360
SWIDTH 1000 0
DWIDTH 14 0
BBX 13 14 0 -2
BITMAP
0080
1980
13F0
3630
2160
6180
E640
20F8
2308
2E10
20E0
20C0
2380
2C00
ENDCHAR
STARTCHAR uni4F89
ENCODING 20361
SWIDTH 1000 0
DWIDTH 14 0
BBX 14 14 0 -2
BITMAP
0880
1100
1FF8
2260
2630
6FE8
2000
27F8
2200
2200
23F0
2010
2020
20E0
ENDCHAR
STARTCHAR uni4F8B
ENCODING 20363
SWIDTH 1000 0
DWIDTH 14 0
BBX 13 14 0 -2
BITMAP
1008
1F88
2228
2428
67A8
64A8
2928
2928
2728
2328
2208
2208
2408
2838
ENDCHAR
STARTCHAR uni4F8D
ENCODING 20365
SWIDTH 1000 0
DWIDTH 14 0
BBX 13 14 0 -2
BITMAP
0880
1080
17F8
2080
2080
6FF8
E020
2020
2FF8
2220
2220
2120
2020
20E0
ENDCHAR
STARTCHAR uni4F8F
ENCODING 20367
SWIDTH 1000 0
DWIDTH 14 0
BBX 13 14 1 -2
BITMAP
0100
2500
2500
6FF0
4900
C100
5FF0
4380
4340
4540
4D20
5910
5100
4100
ENDCHAR
STARTCHAR uni4F91
ENCODING 20369
SWIDTH 1000 0
DWIDTH 14 0
BBX 13 14 0 -2
BITMAP
0880
1100
17F8
3100
2200
63F0
6610
2BF0
2210
2210
23F0
2210
2210
2230
ENDCHAR
STARTCHAR uni4F94
ENCODING 20372
SWIDTH 1000 0
DWIDTH 14 0
BBX 12 14 1 -2
BITMAP
0100
2240
2660
65E0
4F10
C500
C500
4FF0
4900
4100
5FF0
4100
4100
4100
ENDCHAR
STARTCHAR uni4F97
ENCODING 20375
SWIDTH 1000 0
DWIDTH 14 0
BBX 13 14 0 -2
BITMAP
1000
17F8
3408
27E8
2408
6408
E5E8
2528
2528
25E8
2508
2408
2408
2438
ENDCHAR
STARTCHAR uni4F9B
ENCODING 20379
SWIDTH 1000 0
DWIDTH 14 0
BBX 13 14 0 -2
BITMAP
0B20
1320
1320
27F8
6320
6320
A320
2320
2FF8
2000
2320
2210
2408
2008
ENDCHAR
STARTCHAR uni4F9D
ENCODING 20381
SWIDTH 1000 0
DWIDTH 14 0
BBX 13 14 1 -2
BITMAP
1100
2100
2180
5FF0
4300
C310
C510
4CE0
74C0
4440
4440
4420
4710
4800
ENDCHAR
STARTCHAR uni4FA0
ENCODING 20384
SWIDTH 1000 0
DWIDTH 14 0
BBX 14 14 0 -2
BITMAP
0880
1080
17F8
2080
6490
6290
2080
2FF8
2080
20C0
2160
2320
2618
2808
ENDCHAR
STARTCHAR uni4FA3
ENCODING 20387
SWIDTH 1000 0
DWIDTH 14 0
BBX 13 14 0 -2
BITMAP
1000
17F0
1410
2410
2410
67F0
E000
2000
27F8
2418
2418
2418
27F8
2418
ENDCHAR
STARTCHAR uni4FA5
ENCODING 20389
SWIDTH 1000 0
DWIDTH 14 0
BBX 13 14 0 -2
BITMAP
0900
1118
1FE0
2190
60E0
63C8
2438
2000
2FF8
2340
2240
2240
2648
2878
ENDCHAR
STARTCHAR uni4FA6
ENCODING 20390
SWIDTH 1000 0
DWIDTH 14 0
BBX 13 14 0 -2
BITMAP
0880
10F8
1080
2080
67F0
6410
2490
2490
2490
2490
2080
2160
2618
2008
ENDCHAR
STARTCHAR uni4FA7
ENCODING 20391
SWIDTH 1000 0
DWIDTH 14 0
BBX 13 14 0 -2
BITMAP
1008
2F88
28A8
2AA8
6AA8
6AA8
AAA8
2AA8
2AA8
2AA8
2AA8
2508
2488
28B8
ENDCHAR
STARTCHAR uni4FA8
ENCODING 20392
SWIDTH 1000 0
DWIDTH 14 0
BBX 14 14 0 -2
BITMAP
0810
17E0
1080
2080
2FF8
6320
A230
2C18
2A20
2220
2220
2220
2420
2020
ENDCHAR
STARTCHAR uni4FA9
ENCODING 20393
SWIDTH 1000 0
DWIDTH 14 0
BBX 12 14 1 -2
BITMAP
1100
2100
2280
4440
4830
D7D0
C000
4000
5FF0
4200
4440
4460
5FE0
4000
ENDCHAR
STARTCHAR uni4FAA
ENCODING 20394
SWIDTH 1000 0
DWIDTH 14 0
BBX 14 14 0 -2
BITMAP
1080
1080
3FF8
2220
2160
60C0
E360
2C18
2220
2220
2220
2220
2420
2820
ENDCHAR
STARTCHAR uni4FAC
ENCODING 20396
SWIDTH 1000 0
DWIDTH 14 0
BBX 14 14 0 -2
BITMAP
1080
1080
3FF8
2888
6988
6140
A248
2650
2E60
2A20
2230
22D0
2388
2000
ENDCHAR
STARTCHAR uni4FAE
ENCODING 20398
SWIDTH 1000 0
DWIDTH 14 0
BBX 13 14 0 -2
BITMAP
1200
1200
37F8
2400
6BF0
6290
A450
2FF8
2410
2490
2450
27F8
2010
2060
ENDCHAR
STARTCHAR uni4FAF
ENCODING 20399
SWIDTH 1000 0
DWIDTH 14 0
BBX 12 14 1 -2
BITMAP
2000
2FC0
2040
4040
5FF0
C400
CFE0
4900
4100
5FF0
4300
4280
4C60
5010
ENDCHAR
STARTCHAR uni4FB5
ENCODING 20405
SWIDTH 1000 0
DWIDTH 14 0
BBX 13 14 0 -2
BITMAP
0FF0
1010
13F0
2010
67F0
6000
AFF8
2808
23F8
2230
2120
20C0
2360
2418
ENDCHAR
STARTCHAR uni4FBF
ENCODING 20415
SWIDTH 1000 0
DWIDTH 14 0
BBX 13 14 1 -2
BITMAP
0000
2FF0
2100
4FF0
4910
C910
CFF0
4910
4FF0
4900
4D00
4600
4DE0
5830
ENDCHAR
STARTCHAR uni4FC3
ENCODING 20419
SWIDTH 1000 0
DWIDTH 14 0
BBX 13 14 0 -2
BITMAP
1000
17F0
1410
2410
2410
67F0
A080
2280
24F8
2480
2680
2D80
28F8
2000
ENDCHAR
STARTCHAR uni4FC4
ENCODING 20420
SWIDTH 1000 0
DWIDTH 14 0
BBX 13 14 0 -2
BITMAP
1040
13D0
1E48
2248
2240
6FF8
E240
2248
23B0
2E30
2220
2268
22B8
2E18
ENDCHAR
STARTCHAR uni4FC5
ENCODING 20421
SWIDTH 1000 0
DWIDTH 14 0
BBX 14 14 0 -2
BITMAP
0080
1090
1080
37F8
2080
6488
E2D0
22E0
20A0
23A0
2690
2C88
2080
2380
ENDCHAR
STARTCHAR uni4FCA
ENCODING 20426
SWIDTH 1000 0
DWIDTH 14 0
BBX 13 14 0 -2
BITMAP
0980
1120
1230
37F0
2000
6230
6518
2908
23F0
2620
2160
20C0
2370
2C18
ENDCHAR
STARTCHAR uni4FCE
ENCODING 20430
SWIDTH 1000 0
DWIDTH 14 0
BBX 14 12 0 -1
BITMAP
11F0
1110
1110
2910
65F0
5110
1110
11F0
3910
2510
4510
07FC
ENDCHAR
STARTCHAR uni4FCF
ENCODING 20431
SWIDTH 1000 0
DWIDTH 14 0
BBX 12 14 1 -2
BITMAP
1100
2910
2520
4100
4FF0
C810
C810
4FF0
4810
4810
4FF0
4810
4810
4860
ENDCHAR
STARTCHAR uni4FD0
ENCODING 20432
SWIDTH 1000 0
DWIDTH 14 0
BBX 13 14 0 -2
BITMAP
1008
1388
1E28
2228
2228
6FA8
6228
2728
26A8
2AA8
2A28
2208
2208
2238
ENDCHAR
STARTCHAR uni4FD1
ENCODING 20433
SWIDTH 1000 0
DWIDTH 14 0
BBX 13 14 0 -2
BITMAP
1000
17F0
1020
21C0
20C0
67F8
E488
27F8
2488
2488
27F8
2488
2488
24B8
ENDCHAR
STARTCHAR uni4FD7
ENCODING 20439
SWIDTH 1000 0
DWIDTH 14 0
BBX 14 14 0 -2
BITMAP
0900
1220
1210
2488
21C0
6140
A220
2C18
2FF8
2410
2410
2410
27F0
2410
ENDCHAR
STARTCHAR uni4FD8
ENCODING 20440
SWIDTH 1000 0
DWIDTH 14 0
BBX 12 14 1 -2
BITMAP
3020
2FC0
2920
4520
4540
CFE0
C060
40C0
4100
5FF0
4100
4100
4100
4300
ENDCHAR
STARTCHAR uni4FDA
ENCODING 20442
SWIDTH 1000 0
DWIDTH 14 0
BBX 12 14 1 -2
BITMAP
0000
2FF0
2910
6910
4FF0
C910
C910
4FF0
4100
4FF0
4100
4100
5FF0
4000
ENDCHAR
STARTCHAR uni4FDC
ENCODING 20444
SWIDTH 1000 0
DWIDTH 14 0
BBX 13 14 0 -2
BITMAP
0880
17F8
1488
27F8
6488
67F8
2000
2FF8
2200
2200
23F0
2010
2010
2070
ENDCHAR
STARTCHAR uni4FDD
ENCODING 20445
SWIDTH 1000 0
DWIDTH 14 0
BBX 14 14 0 -2
BITMAP
0800
1FF8
1418
3418
2418
67F8
6080
2FF8
21C0
21A0
22B0
2498
2888
2080
ENDCHAR
STARTCHAR uni4FDE
ENCODING 20446
SWIDTH 1000 0
DWIDTH 14 0
BBX 14 14 0 -2
BITMAP
0100
0300
04C0
1860
6FD8
0000
3E10
2290
3E90
2290
3E90
2290
2210
2630
ENDCHAR
STARTCHAR uni4FDF
ENCODING 20447
SWIDTH 1000 0
DWIDTH 14 0
BBX 12 14 1 -2
BITMAP
1100
2240
2460
6FE0
4000
C400
CFF0
4900
4100
5FF0
4180
42C0
4C60
5010
ENDCHAR
STARTCHAR uni4FE1
ENCODING 20449
SWIDTH 1000 0
DWIDTH 14 0
BBX 13 14 0 -2
BITMAP
0080
1080
1080
3FF8
2000
67F0
6000
27F0
2000
27F0
2410
2410
27F0
2410
ENDCHAR
STARTCHAR uni4FE3
ENCODING 20451
SWIDTH 1000 0
DWIDTH 14 0
BBX 13 14 1 -2
BITMAP
0000
2FE0
2820
6820
4FE0
C000
4FF0
4100
4100
5FF0
4180
42C0
4C60
5010
ENDCHAR
STARTCHAR uni4FE6
ENCODING 20454
SWIDTH 1000 0
DWIDTH 14 0
BBX 13 14 0 -2
BITMAP
0080
1080
17F8
2080
27F8
6100
6FF8
2110
23F8
2210
2490
2CD0
2810
2070
ENDCHAR
STARTCHAR uni4FE8
ENCODING 20456
SWIDTH 1000 0
DWIDTH 14 0
BBX 13 14 0 -2
BITMAP
0800
17F8
1140
2548
2350
6140
E7F8
2400
2400
2400
2400
2800
2800
2800
ENDCHAR
STARTCHAR uni4FE9
ENCODING 20457
SWIDTH 1000 0
DWIDTH 14 0
BBX 13 14 0 -2
BITMAP
1000
1FF8
2140
2140
6FF8
6948
A948
2968
2AE8
2A68
2A98
2888
2808
2838
ENDCHAR
STARTCHAR uni4FEA
ENCODING 20458
SWIDTH 1000 0
DWIDTH 14 0
BBX 13 14 0 -2
BITMAP
1000
1FF8
2000
2000
2F78
6948
E948
2D68
2B68
2B68
2948
2948
2948
2B58
ENDCHAR
STARTCHAR uni4FED
ENCODING 20461
SWIDTH 1000 0
DWIDTH 14 0
BBX 13 14 0 -2
BITMAP
1080
1180
1140
2220
2410
7BE8
E000
2490
2490
24A0
2220
2020
2FF8
2000
ENDCHAR
STARTCHAR uni4FEE
ENCODING 20462
SWIDTH 1000 0
DWIDTH 14 0
BBX 14 14 0 -2
BITMAP
1080
1100
11F8
2310
2EB0
6860
EBB8
2840
2980
2820
28C8
2910
20E0
2300
ENDCHAR
STARTCHAR uni4FEF
ENCODING 20463
SWIDTH 1000 0
DWIDTH 14 0
BBX 13 14 0 -2
BITMAP
1080
1080
3FF8
2910
2910
69F8
6B10
2B10
2950
2950
2910
2910
2910
2130
ENDCHAR
STARTCHAR uni4FF1
ENCODING 20465
SWIDTH 1000 0
DWIDTH 14 0
BBX 13 14 0 -2
BITMAP
0000
17F0
1410
27F0
2410
67F0
A410
27F0
2410
2FF8
2020
2230
2418
2808
ENDCHAR
STARTCHAR uni4FF3
ENCODING 20467
SWIDTH 1000 0
DWIDTH 14 0
BBX 12 14 1 -2
BITMAP
0280
2280
2280
7EF0
4280
C280
CEF0
4280
4280
5EF0
4280
4280
4280
4280
ENDCHAR
STARTCHAR uni4FF8
ENCODING 20472
SWIDTH 1000 0
DWIDTH 14 0
BBX 14 14 0 -2
BITMAP
0880
17F8
1080
27F0
6100
6FF8
2230
2490
2BFC
2080
27F8
2080
2080
2080
ENDCHAR
STARTCHAR uni4FFA
ENCODING 20474
SWIDTH 1000 0
DWIDTH 14 0
BBX 14 14 0 -2
BITMAP
0900
1100
1FF8
2220
2220
6490
EFF8
2490
27F0
2490
27F0
2488
2088
20F8
ENDCHAR
STARTCHAR uni4FFE
ENCODING 20478
SWIDTH 1000 0
DWIDTH 14 0
BBX 13 14 0 -2
BITMAP
00C0
1080
17F8
2488
27F8
6488
E488
27F8
2140
2640
2FF8
2040
2040
2040
ENDCHAR
STARTCHAR uni500C
ENCODING 20492
SWIDTH 1000 0
DWIDTH 14 0
BBX 12 14 1 -2
BITMAP
0100
2180
2FF0
4810
47E0
C420
C420
47E0
4400
47E0
4420
4420
47E0
4420
ENDCHAR
STARTCHAR uni500D
ENCODING 20493
SWIDTH 1000 0
DWIDTH 14 0
BBX 13 14 0 -2
BITMAP
0080
1080
17F8
2210
2220
6120
6FF8
2000
23F0
2210
2210
2210
23F0
2210
ENDCHAR
STARTCHAR uni500F
ENCODING 20495
SWIDTH 1000 0
DWIDTH 14 0
BBX 14 14 0 -2
BITMAP
1080
1080
19F8
2B10
2AA0
6860
E9B8
2A58
2858
2BF8
28C0
28A0
2310
2608
ENDCHAR
STARTCHAR uni5012
ENCODING 20498
SWIDTH 1000 0
DWIDTH 14 0
BBX 13 14 0 -2
BITMAP
1000
1FA8
2428
2528
68A8
6FA8
A028
2228
2FA8
2228
2208
2388
2C08
2038
ENDCHAR
STARTCHAR uni5014
ENCODING 20500
SWIDTH 1000 0
DWIDTH 14 0
BBX 12 14 1 -2
BITMAP
0000
2FF0
2810
6810
4FF0
C880
CA90
4A90
4BF0
4880
4C90
5490
53F0
4010
ENDCHAR
STARTCHAR uni5018
ENCODING 20504
SWIDTH 1000 0
DWIDTH 14 0
BBX 12 14 1 -2
BITMAP
2100
2920
2520
4540
4100
CFF0
C810
4B90
4A90
4A90
4B90
4A10
4810
4860
ENDCHAR
STARTCHAR uni5019
ENCODING 20505
SWIDTH 1000 0
DWIDTH 14 0
BBX 14 14 0 -2
BITMAP
1000
13F0
1010
2810
2BF8
6900
69F8
2A40
2A40
2BF8
2840
20A0
2118
2208
ENDCHAR
STARTCHAR uni501A
ENCODING 20506
SWIDTH 1000 0
DWIDTH 14 0
BBX 13 14 0 -2
BITMAP
00C0
1080
17F8
2080
2370
6C08
AFF8
2010
2790
2490
2490
2790
2410
2070
ENDCHAR
STARTCHAR uni501C
ENCODING 20508
SWIDTH 1000 0
DWIDTH 14 0
BBX 13 14 0 -2
BITMAP
0000
17F8
1488
25E8
2488
6488
67E8
2408
25E8
2528
29E8
2908
2808
3038
ENDCHAR
STARTCHAR uni501F
ENCODING 20511
SWIDTH 1000 0
DWIDTH 14 0
BBX 14 14 0 -2
BITMAP
0A20
1220
17F8
2220
2220
6FFC
A000
27F0
2410
2410
27F0
2410
27F0
2410
ENDCHAR
STARTCHAR uni5021
ENCODING 20513
SWIDTH 1000 0
DWIDTH 14 0
BBX 13 14 0 -2
BITMAP
0000
17F0
1410
27F0
2410
67F0
A000
27F8
2408
2408
27F8
2408
27F8
2408
ENDCHAR
STARTCHAR uni5025
ENCODING 20517
SWIDTH 1000 0
DWIDTH 14 0
BBX 13 14 0 -2
BITMAP
0880
10C0
17F8
3408
2128
6310
E608
2408
23F0
20C0
20C0
20C0
27F8
2000
ENDCHAR
STARTCHAR uni5026
ENCODING 20518
SWIDTH 1000 0
DWIDTH 14 0
BBX 13 14 0 -2
BITMAP
0880
1290
12A0
27F0
2100
6100
EFF8
2220
27F8
2A20
2260
2210
2210
23F0
ENDCHAR
STARTCHAR uni5028
ENCODING 20520
SWIDTH 1000 0
DWIDTH 14 0
BBX 13 14 0 -2
BITMAP
0000
17F0
1410
3410
27F0
6440
27F8
2440
2440
27F8
2608
2A08
2BF8
2A08
ENDCHAR
STARTCHAR uni5029
ENCODING 20521
SWIDTH 1000 0
DWIDTH 14 0
BBX 13 14 0 -2
BITMAP
1080
1FF8
3080
27F0
2080
6FF8
E000
27F0
2410
27F0
2410
27F0
2410
2430
ENDCHAR
STARTCHAR uni502A
ENCODING 20522
SWIDTH 1000 0
DWIDTH 14 0
BBX 13 14 0 -2
BITMAP
0800
1778
1408
2408
2778
6408
2408
27F8
2140
2140
2240
2248
2648
2C78
ENDCHAR
STARTCHAR uni502C
ENCODING 20524
SWIDTH 1000 0
DWIDTH 14 0
BBX 13 14 0 -2
BITMAP
0080
1880
10F8
3080
27F8
6418
A7F8
2418
27F8
2080
2FF8
2080
2080
2080
ENDCHAR
STARTCHAR uni502D
ENCODING 20525
SWIDTH 1000 0
DWIDTH 14 0
BBX 14 14 0 -2
BITMAP
0810
17E0
1080
2FF8
21C0
62B0
6C88
2100
2FF8
2220
2220
21C0
23B0
2400
ENDCHAR
STARTCHAR uni502E
ENCODING 20526
SWIDTH 1000 0
DWIDTH 14 0
BBX 13 14 1 -2
BITMAP
0000
2FE0
2920
4FE0
4920
C920
CFE0
4100
5FF0
4380
4740
4D20
5910
4100
ENDCHAR
STARTCHAR uni503A
ENCODING 20538
SWIDTH 1000 0
DWIDTH 14 0
BBX 12 14 1 -2
BITMAP
2100
2FF0
2100
4FE0
4100
DFF0
C000
4FE0
4820
4920
4920
4180
4660
5810
ENDCHAR
STARTCHAR uni503C
ENCODING 20540
SWIDTH 1000 0
DWIDTH 14 0
BBX 13 14 0 -2
BITMAP
0080
1080
17F8
2080
27F0
6410
67F0
2410
27F0
2410
27F0
2410
2FF8
2000
ENDCHAR
STARTCHAR uni503E
ENCODING 20542
SWIDTH 1000 0
DWIDTH 14 0
BBX 13 14 0 -2
BITMAP
1000
11F8
2820
2840
28F8
6E88
E8A8
28A8
28A8
2AC8
2CC8
2060
2098
2108
ENDCHAR
STARTCHAR uni5043
ENCODING 20547
SWIDTH 1000 0
DWIDTH 14 0
BBX 13 13 0 -1
BITMAP
1000
17F8
1400
25F0
25F0
6510
65F0
27F8
2510
25A0
24E0
2710
27F8
ENDCHAR
STARTCHAR uni5047
ENCODING 20551
SWIDTH 1000 0
DWIDTH 14 0
BBX 12 14 1 -2
BITMAP
2000
3EF0
5210
5210
5EF0
D000
D000
5FF0
5090
50A0
5E60
5040
51B0
5110
ENDCHAR
STARTCHAR uni5048
ENCODING 20552
SWIDTH 1000 0
DWIDTH 14 0
BBX 12 14 1 -2
BITMAP
0000
2FE0
2820
6FE0
4820
CFE0
C400
4FF0
4810
4990
4A50
4FD0
4020
4060
ENDCHAR
STARTCHAR uni504C
ENCODING 20556
SWIDTH 1000 0
DWIDTH 14 0
BBX 13 14 0 -2
BITMAP
0220
1220
1FF8
2220
2080
6100
EFF8
2100
2200
27F8
2E18
2218
23F8
2218
ENDCHAR
STARTCHAR uni504E
ENCODING 20558
SWIDTH 1000 0
DWIDTH 14 0
BBX 12 14 1 -2
BITMAP
0000
2FE0
2920
6FE0
4920
CFE0
4000
5FF0
4500
44B0
44C0
4440
4730
4410
ENDCHAR
STARTCHAR uni504F
ENCODING 20559
SWIDTH 1000 0
DWIDTH 14 0
BBX 13 14 0 -2
BITMAP
0880
1880
17F8
3408
27F8
6400
27F8
26A8
26A8
27F8
26A8
2AA8
2AA8
2218
ENDCHAR
STARTCHAR uni5055
ENCODING 20565
SWIDTH 1000 0
DWIDTH 14 0
BBX 12 14 1 -2
BITMAP
1880
2890
2EE0
4880
4890
CEF0
C100
4100
4FF0
4830
4FF0
4830
4FF0
4830
ENDCHAR
STARTCHAR uni505A
ENCODING 20570
SWIDTH 1000 0
DWIDTH 14 0
BBX 14 14 0 -2
BITMAP
1220
1240
3240
2FF8
2248
62C8
E2D0
2F50
2930
2930
2920
2F50
28C8
2080
ENDCHAR
STARTCHAR uni505C
ENCODING 20572
SWIDTH 1000 0
DWIDTH 14 0
BBX 12 14 1 -2
BITMAP
1100
2FF0
2000
47E0
4420
C7E0
C000
5FF0
5010
47E0
4100
4100
4100
4700
ENDCHAR
STARTCHAR uni5065
ENCODING 20581
SWIDTH 1000 0
DWIDTH 14 0
BBX 12 14 1 -2
BITMAP
2080
3FE0
44A0
4BF0
C8A0
DFE0
4480
47F0
5880
5BF0
4880
4C80
5600
61F0
ENDCHAR
STARTCHAR uni506C
ENCODING 20588
SWIDTH 1000 0
DWIDTH 14 0
BBX 13 14 0 -2
BITMAP
1200
1200
17F8
2D28
2B48
62C8
A488
2130
2000
2A90
2AC8
2A08
2A28
23E0
ENDCHAR
STARTCHAR uni5076
ENCODING 20598
SWIDTH 1000 0
DWIDTH 14 0
BBX 13 14 0 -2
BITMAP
0000
17F8
1498
27F8
2498
67F8
6080
2080
27F8
24A8
24A8
27D8
2408
2438
ENDCHAR
STARTCHAR uni5077
ENCODING 20599
SWIDTH 1000 0
DWIDTH 14 0
BBX 12 14 1 -2
BITMAP
2100
2380
2640
5830
57C0
C000
CE20
4AA0
4EA0
4AA0
4EA0
4A20
4A20
4A60
ENDCHAR
STARTCHAR uni507B
ENCODING 20603
SWIDTH 1000 0
DWIDTH 14 0
BBX 13 14 0 -2
BITMAP
0890
1290
12A0
27F8
21E0
62B0
6488
2100
2FF8
2220
2220
21C0
23B0
2608
ENDCHAR
STARTCHAR uni507E
ENCODING 20606
SWIDTH 1000 0
DWIDTH 14 0
BBX 13 14 0 -2
BITMAP
1080
17F8
1080
2220
2FF8
6220
67F0
2410
2490
2490
2490
21E0
2718
2808
ENDCHAR
STARTCHAR uni507F
ENCODING 20607
SWIDTH 1000 0
DWIDTH 14 0
BBX 13 14 0 -2
BITMAP
1080
1690
12A0
2FF8
6808
6808
A1E0
2000
2FF8
2100
2230
2610
27F8
2008
ENDCHAR
STARTCHAR uni5080
ENCODING 20608
SWIDTH 1000 0
DWIDTH 14 0
BBX 12 14 1 -2
BITMAP
0100
2100
2FF0
6910
4FF0
C910
C910
4FF0
4320
4340
4350
4570
4910
50F0
ENDCHAR
STARTCHAR uni5085
ENCODING 20613
SWIDTH 1000 0
DWIDTH 14 0
BBX 13 14 0 -2
BITMAP
08B0
1FF8
1080
27F8
2488
67F8
E488
27F8
2020
2FF8
2220
2220
2120
2060
ENDCHAR
STARTCHAR uni5088
ENCODING 20616
SWIDTH 1000 0
DWIDTH 14 0
BBX 13 14 1 -2
BITMAP
2000
3FF0
2280
4FF0
4A90
CA90
CFF0
4100
5FF0
4380
4740
4D20
5910
4100
ENDCHAR
STARTCHAR uni508D
ENCODING 20621
SWIDTH 1000 0
DWIDTH 14 0
BBX 13 14 0 -2
BITMAP
0080
1080
17F8
3320
2FF8
6808
6888
27F8
2100
2100
21F0
2210
2610
2C60
ENDCHAR
STARTCHAR uni50A3
ENCODING 20643
SWIDTH 1000 0
DWIDTH 14 0
BBX 14 14 0 -2
BITMAP
0080
1080
17F8
3080
27F8
6100
EFF8
2620
2C98
2EA8
22E0
27B0
2C98
2180
ENDCHAR
STARTCHAR uni50A5
ENCODING 20645
SWIDTH 1000 0
DWIDTH 14 0
BBX 13 14 0 -2
BITMAP
1080
1490
22A0
2FF8
2808
6808
6FF8
2410
2410
27F0
2140
2340
2248
2C78
ENDCHAR
STARTCHAR uni50A7
ENCODING 20647
SWIDTH 1000 0
DWIDTH 14 0
BBX 13 14 0 -2
BITMAP
0080
1080
17F8
2418
23E0
6200
63F8
2220
2220
2220
2FF8
2120
2610
2808
ENDCHAR
STARTCHAR uni50A8
ENCODING 20648
SWIDTH 1000 0
DWIDTH 14 0
BBX 13 14 0 -2
BITMAP
1040
1848
25E8
2450
2070
7DF8
A440
24F8
2788
2488
24F8
2688
2CF8
2088
ENDCHAR
STARTCHAR uni50A9
ENCODING 20649
SWIDTH 1000 0
DWIDTH 14 0
BBX 13 14 0 -2
BITMAP
1040
1050
2E90
22F8
6390
6A90
AAF8
2490
2490
26F8
2A90
3890
20F8
2080
ENDCHAR
STARTCHAR uni50AC
ENCODING 20652
SWIDTH 1000 0
DWIDTH 14 0
BBX 13 14 0 -2
BITMAP
1080
1488
3488
27F8
2040
6440
67F8
2C40
2FF8
2440
27F8
2440
27F8
2400
ENDCHAR
STARTCHAR uni50B2
ENCODING 20658
SWIDTH 1000 0
DWIDTH 14 0
BBX 13 14 1 -2
BITMAP
2040
2440
3F70
4490
5F90
C490
C5A0
5F60
4860
4F60
4A60
4A60
5290
5690
ENDCHAR
STARTCHAR uni50BA
ENCODING 20666
SWIDTH 1000 0
DWIDTH 14 0
BBX 14 14 0 -2
BITMAP
1200
17F8
1548
2B50
2120
6630
67F8
2800
2000
27F8
2080
2490
2C88
2180
ENDCHAR
STARTCHAR uni50BB
ENCODING 20667
SWIDTH 1000 0
DWIDTH 14 0
BBX 13 14 0 -2
BITMAP
1080
17F8
1428
25C8
6728
67F8
A120
2618
2908
23F0
2E20
21C0
23E0
2C18
ENDCHAR
STARTCHAR uni50CF
ENCODING 20687
SWIDTH 1000 0
DWIDTH 14 0
BBX 14 14 0 -2
BITMAP
0900
13E0
1440
2FF8
2C88
6488
E7F8
2300
2CB0
2160
2ED0
2158
2E48
2180
ENDCHAR
STARTCHAR uni50D6
ENCODING 20694
SWIDTH 1000 0
DWIDTH 14 0
BBX 13 14 0 -2
BITMAP
0880
1FF8
1080
27F8
2000
67F0
27F0
2220
2FF8
2000
27F8
2418
27F8
2418
ENDCHAR
STARTCHAR uni50DA
ENCODING 20698
SWIDTH 1000 0
DWIDTH 14 0
BBX 14 14 0 -2
BITMAP
0080
1080
1FF8
2128
2630
67F0
6C1C
27F0
2410
27F0
2280
2490
2888
2180
ENDCHAR
STARTCHAR uni50E6
ENCODING 20710
SWIDTH 1000 0
DWIDTH 14 0
BBX 13 14 1 -2
BITMAP
2840
2450
5F50
4040
DEF0
D240
5240
5E40
4440
5640
55C0
54C8
65D0
4D30
ENDCHAR
STARTCHAR uni50E7
ENCODING 20711
SWIDTH 1000 0
DWIDTH 14 0
BBX 13 14 0 -2
BITMAP
0A10
1220
17F8
2488
26A8
65C8
27F8
2000
27F0
2410
27F0
2410
27F0
2410
ENDCHAR
STARTCHAR uni50EC
ENCODING 20716
SWIDTH 1000 0
DWIDTH 14 0
BBX 12 14 1 -2
BITMAP
1480
3480
2480
2FF0
4880
DFF0
C880
4FF0
4880
4FF0
4000
4A90
4A50
5010
ENDCHAR
STARTCHAR uni50ED
ENCODING 20717
SWIDTH 1000 0
DWIDTH 14 0
BBX 12 14 1 -2
BITMAP
0000
3EF0
54A0
54A0
5EF0
CC60
56B0
5000
4FF0
4810
4FF0
4810
4FF0
4810
ENDCHAR
STARTCHAR uni50EE
ENCODING 20718
SWIDTH 1000 0
DWIDTH 14 0
BBX 12 14 1 -2
BITMAP
2100
2FF0
6440
5FF0
4000
CFE0
C920
4FE0
4920
4FE0
4100
4FF0
4100
5FF0
ENDCHAR
STARTCHAR uni50F3
ENCODING 20723
SWIDTH 1000 0
DWIDTH 14 0
BBX 13 14 1 -2
BITMAP
2000
3FF0
2240
4FF0
4A90
CA90
CFF0
4920
4520
5FF0
43C0
4560
5930
4100
ENDCHAR
STARTCHAR uni50F5
ENCODING 20725
SWIDTH 1000 0
DWIDTH 14 0
BBX 12 14 1 -2
BITMAP
2000
3FF0
2FE0
4920
4FE0
CFE0
C000
4FF0
4FE0
4920
4FE0
4FE0
4000
5FF0
ENDCHAR
STARTCHAR uni50FB
ENCODING 20731
SWIDTH 1000 0
DWIDTH 14 0
BBX 13 14 0 -2
BITMAP
1020
1F20
2978
2948
2950
6F50
68F8
2F20
2D20
2D78
2D20
3520
3720
2420
ENDCHAR
STARTCHAR uni5106
ENCODING 20742
SWIDTH 1000 0
DWIDTH 14 0
BBX 12 14 1 -2
BITMAP
2240
5F40
5280
42F0
C890
DE90
D1A0
7E60
5660
5660
5E60
5260
4290
4690
ENDCHAR
STARTCHAR uni5107
ENCODING 20743
SWIDTH 1000 0
DWIDTH 14 0
BBX 14 14 0 -2
BITMAP
1000
17F8
1548
27F8
2000
6FF8
67F0
2410
2410
27F0
2348
2E30
22D0
2308
ENDCHAR
STARTCHAR uni510B
ENCODING 20747
SWIDTH 1000 0
DWIDTH 14 0
BBX 12 14 1 -2
BITMAP
1600
27C0
2880
5FF0
5960
CE90
CFF0
4800
4BE0
4BE0
4800
53F0
53F0
5010
ENDCHAR
STARTCHAR uni5112
ENCODING 20754
SWIDTH 1000 0
DWIDTH 14 0
BBX 13 14 0 -2
BITMAP
17F8
1080
1FF8
2888
27F0
67F0
6080
2FF8
2080
27F8
2548
2548
2548
2558
ENDCHAR
STARTCHAR uni5121
ENCODING 20769
SWIDTH 1000 0
DWIDTH 14 0
BBX 13 14 0 -2
BITMAP
1000
17F0
3490
27F0
6490
67F0
A000
2F78
2D68
2D68
2F78
2D68
2F78
2848
ENDCHAR
STARTCHAR uni513F
ENCODING 20799
SWIDTH 1000 0
DWIDTH 14 0
BBX 13 13 0 -2
BITMAP
0840
0840
0840
0840
0840
0840
0840
1840
1040
1048
3048
2048
4078
ENDCHAR
STARTCHAR uni5140
ENCODING 20800
SWIDTH 1000 0
DWIDTH 14 0
BBX 12 12 1 -2
BITMAP
FFF0
1100
1100
1100
1100
1100
1100
1100
2110
2110
4110
80F0
ENDCHAR
STARTCHAR uni5141
ENCODING 20801
SWIDTH 1000 0
DWIDTH 14 0
BBX 12 14 1 -2
BITMAP
0400
0800
0800
1080
3040
63E0
7F20
0900
0900
1900
1110
1110
2110
C1F0
ENDCHAR
STARTCHAR uni5143
ENCODING 20803
SWIDTH 1000 0
DWIDTH 14 0
BBX 12 13 1 -2
BITMAP
7FE0
0000
0000
0000
0000
FFF0
1100
1100
1100
1110
2110
6110
C1F0
ENDCHAR
STARTCHAR uni5144
ENCODING 20804
SWIDTH 1000 0
DWIDTH 14 0
BBX 12 13 1 -2
BITMAP
7FE0
4020
4020
4020
4020
7FE0
1900
1100
1100
1110
3110
6110
C1F0
ENDCHAR
STARTCHAR uni5145
ENCODING 20805
SWIDTH 1000 0
DWIDTH 14 0
BBX 12 14 1 -2
BITMAP
0400
0600
0200
FFF0
1800
1080
2040
7FE0
0900
0900
1110
3110
E1F0
8000
ENDCHAR
STARTCHAR uni5146
ENCODING 20806
SWIDTH 1000 0
DWIDTH 14 0
BBX 12 14 1 -2
BITMAP
0900
0900
C920
4920
2940
2940
0900
19C0
6960
9910
1100
3110
6110
C1F0
ENDCHAR
STARTCHAR uni5148
ENCODING 20808
SWIDTH 1000 0
DWIDTH 14 0
BBX 12 14 1 -2
BITMAP
0600
2600
2600
3FE0
4600
4600
0600
FFF0
1900
1100
1100
3110
2110
C1F0
ENDCHAR
STARTCHAR uni5149
ENCODING 20809
SWIDTH 1000 0
DWIDTH 14 0
BBX 12 14 1 -2
BITMAP
0400
4420
2460
2440
34C0
0400
FFF0
1900
1100
1100
1110
3110
6110
81F0
ENDCHAR
STARTCHAR uni514B
ENCODING 20811
SWIDTH 1000 0
DWIDTH 14 0
BBX 12 14 1 -2
BITMAP
0400
0400
FFF0
0400
3FE0
2060
2060
2060
3FE0
0900
1900
1110
2110
C1F0
ENDCHAR
STARTCHAR uni514D
ENCODING 20813
SWIDTH 1000 0
DWIDTH 14 0
BBX 12 14 1 -2
BITMAP
1800
1F80
2100
6200
FFE0
C620
4420
4420
7FE0
0500
0900
1910
3110
C1F0
ENDCHAR
STARTCHAR uni5151
ENCODING 20817
SWIDTH 1000 0
DWIDTH 14 0
BBX 12 14 1 -2
BITMAP
2040
1080
1980
7FE0
4020
4020
4020
7FE0
0900
0900
1900
1110
2110
C1F0
ENDCHAR
STARTCHAR uni5154
ENCODING 20820
SWIDTH 1000 0
DWIDTH 14 0
BBX 13 14 0 -2
BITMAP
0C00
0F80
1080
3100
7FF0
6110
2210
2210
3FF0
0300
0520
0D18
1908
60F8
ENDCHAR
STARTCHAR uni5155
ENCODING 20821
SWIDTH 1000 0
DWIDTH 14 0
BBX 12 13 1 -2
BITMAP
79E0
4920
4920
4F20
4020
4020
7FE0
0900
1100
1110
3110
E1F0
8000
ENDCHAR
STARTCHAR uni5156
ENCODING 20822
SWIDTH 1000 0
DWIDTH 14 0
BBX 12 14 1 -2
BITMAP
0400
0200
FFF0
1080
3060
C430
0980
30C0
7FE0
1900
1100
3110
E1F0
0000
ENDCHAR
STARTCHAR uni515A
ENCODING 20826
SWIDTH 1000 0
DWIDTH 14 0
BBX 12 14 1 -2
BITMAP
0600
2640
1640
FFF0
8010
BFD0
2040
2040
3FC0
0900
0900
1110
3110
C1F0
ENDCHAR
STARTCHAR uni515C
ENCODING 20828
SWIDTH 1000 0
DWIDTH 14 0
BBX 12 14 1 -2
BITMAP
0600
3460
4F20
4920
4F20
4920
5920
EF60
8000
0900
1100
1110
6110
C1F0
ENDCHAR
STARTCHAR uni5162
ENCODING 20834
SWIDTH 1000 0
DWIDTH 14 0
BBX 14 14 0 -2
BITMAP
1060
1060
7FF8
1060
7DF8
4508
4508
7DF8
28A0
28A0
28A0
2EA4
49A8
4318
ENDCHAR
STARTCHAR uni5165
ENCODING 20837
SWIDTH 1000 0
DWIDTH 14 0
BBX 12 12 1 -1
BITMAP
1000
0800
0400
0600
0600
0500
0D00
0880
18C0
3040
6020
C010
ENDCHAR
STARTCHAR uni5168
ENCODING 20840
SWIDTH 1000 0
DWIDTH 14 0
BBX 14 13 0 -1
BITMAP
0100
0300
0480
0CC0
1860
2018
5FE8
0300
0300
1FE0
0300
0300
7FF8
ENDCHAR
STARTCHAR uni516B
ENCODING 20843
SWIDTH 1000 0
DWIDTH 14 0
BBX 13 12 1 -2
BITMAP
1100
1100
1100
1080
1080
1080
2080
2040
6040
4020
8030
0010
ENDCHAR
STARTCHAR uni516C
ENCODING 20844
SWIDTH 1000 0
DWIDTH 14 0
BBX 12 12 1 -1
BITMAP
1980
1080
3040
2060
4630
8410
0800
1880
10C0
2040
7FE0
4030
ENDCHAR
STARTCHAR uni516D
ENCODING 20845
SWIDTH 1000 0
DWIDTH 14 0
BBX 12 14 1 -2
BITMAP
0400
0400
0200
0000
FFF0
0000
0000
1080
10C0
2040
6060
4020
C010
8000
ENDCHAR
STARTCHAR uni516E
ENCODING 20846
SWIDTH 1000 0
DWIDTH 14 0
BBX 14 14 0 -2
BITMAP
0000
0840
0840
1020
3030
7FF8
4408
0800
0FE0
0020
0020
0020
0040
03C0
ENDCHAR
STARTCHAR uni5170
ENCODING 20848
SWIDTH 1000 0
DWIDTH 14 0
BBX 12 13 1 -1
BITMAP
0040
30C0
1080
1180
FFF0
0000
0000
0000
7FE0
0000
0000
0000
FFF0
ENDCHAR
STARTCHAR uni5171
ENCODING 20849
SWIDTH 1000 0
DWIDTH 14 0
BBX 12 14 1 -2
BITMAP
1080
1080
1080
FFF0
1080
1080
1080
1080
FFF0
0000
1980
3040
6020
8010
ENDCHAR
STARTCHAR uni5173
ENCODING 20851
SWIDTH 1000 0
DWIDTH 14 0
BBX 12 14 1 -2
BITMAP
2040
1080
1080
7FE0
0600
0600
0600
FFF0
0600
0500
0980
30C0
6070
8010
ENDCHAR
STARTCHAR uni5174
ENCODING 20852
SWIDTH 1000 0
DWIDTH 14 0
BBX 12 14 1 -2
BITMAP
0000
0C10
8420
4420
6640
20C0
0000
FFF0
0000
1080
3040
6060
C030
8010
ENDCHAR
STARTCHAR uni5175
ENCODING 20853
SWIDTH 1000 0
DWIDTH 14 0
BBX 12 14 1 -2
BITMAP
0040
3F80
2000
2000
3FE0
2080
2080
2080
2080
FFF0
0000
10C0
6060
8010
ENDCHAR
STARTCHAR uni5176
ENCODING 20854
SWIDTH 1000 0
DWIDTH 14 0
BBX 12 14 1 -2
BITMAP
2040
2040
FFF0
2040
3FC0
2040
2040
3FC0
2040
2040
FFF0
0000
70E0
8010
ENDCHAR
STARTCHAR uni5177
ENCODING 20855
SWIDTH 1000 0
DWIDTH 14 0
BBX 12 13 1 -2
BITMAP
3FC0
2040
3FC0
2040
3FC0
2040
3FC0
2040
2040
FFF0
1080
6060
8010
ENDCHAR
STARTCHAR uni5178
ENCODING 20856
SWIDTH 1000 0
DWIDTH 14 0
BBX 12 14 1 -2
BITMAP
0900
0900
7FE0
4920
4920
4920
7FE0
4920
4920
FFF0
0000
30C0
6030
8000
ENDCHAR
STARTCHAR uni5179
ENCODING 20857
SWIDTH 1000 0
DWIDTH 14 0
BBX 12 14 1 -2
BITMAP
0000
30C0
1080
FFF0
2080
2080
4D20
CA20
F3C0
3080
29A0
4910
FFF0
0010
ENDCHAR
STARTCHAR uni517B
ENCODING 20859
SWIDTH 1000 0
DWIDTH 14 0
BBX 12 14 1 -2
BITMAP
10C0
1080
FFF0
0400
7FE0
0C00
FFF0
1080
F0E0
9090
1080
1080
6080
4080
ENDCHAR
STARTCHAR uni517C
ENCODING 20860
SWIDTH 1000 0
DWIDTH 14 0
BBX 12 14 1 -2
BITMAP
2040
1080
FFF0
0900
7FE0
0920
0920
FFF0
0920
7FE0
1980
2940
C930
0900
ENDCHAR
STARTCHAR uni517D
ENCODING 20861
SWIDTH 1000 0
DWIDTH 14 0
BBX 12 14 1 -2
BITMAP
1080
1080
7FE0
4420
7FE0
4420
7FE0
0000
FFF0
0000
7FE0
4020
7FE0
4020
ENDCHAR
STARTCHAR uni5180
ENCODING 20864
SWIDTH 1000 0
DWIDTH 14 0
BBX 12 14 1 -2
BITMAP
0900
F9E0
0910
F9F0
7FE0
4420
7FE0
7FE0
0000
FFF0
1080
FFF0
38E0
C010
ENDCHAR
STARTCHAR uni5181
ENCODING 20865
SWIDTH 1000 0
DWIDTH 14 0
BBX 12 14 1 -2
BITMAP
8000
53F0
FA10
ABF0
AAA0
FAA0
ABF0
AAA0
FBF0
2540
FD50
2520
29D0
2100
ENDCHAR
STARTCHAR uni5182
ENCODING 20866
SWIDTH 1000 0
DWIDTH 14 0
BBX 12 13 1 -2
BITMAP
FFF0
C010
C010
C010
C010
C010
C010
C010
C010
C010
C010
C010
C0E0
ENDCHAR
STARTCHAR uni5185
ENCODING 20869
SWIDTH 1000 0
DWIDTH 14 0
BBX 12 14 1 -2
BITMAP
0600
0600
0600
FFF0
8410
8410
8610
8710
8990
90D0
A050
8010
8010
80E0
ENDCHAR
STARTCHAR uni5188
ENCODING 20872
SWIDTH 1000 0
DWIDTH 14 0
BBX 12 13 1 -2
BITMAP
FFF0
8010
8090
9090
8910
8710
8610
8710
8D10
9890
B010
8010
80E0
ENDCHAR
STARTCHAR uni5189
ENCODING 20873
SWIDTH 1000 0
DWIDTH 14 0
BBX 12 14 1 -2
BITMAP
0400
0400
7FE0
4420
4420
7FE0
4420
4420
FFF0
4020
4020
4020
4020
40E0
ENDCHAR
STARTCHAR uni518C
ENCODING 20876
SWIDTH 1000 0
DWIDTH 14 0
BBX 12 13 1 -2
BITMAP
79E0
4920
4920
4920
4920
FFF0
4920
4B20
4A20
4A20
CA20
8A20
9CE0
ENDCHAR
STARTCHAR uni518D
ENCODING 20877
SWIDTH 1000 0
DWIDTH 14 0
BBX 12 13 1 -2
BITMAP
FFF0
0400
0400
7FE0
4420
7FE0
4420
4420
FFF0
4020
4020
4020
40E0
ENDCHAR
STARTCHAR uni5192
ENCODING 20882
SWIDTH 1000 0
DWIDTH 14 0
BBX 10 13 2 -2
BITMAP
FFC0
8040
BF40
BF40
8040
7F80
4080
7F80
4080
7F80
4080
7F80
4080
ENDCHAR
STARTCHAR uni5195
ENCODING 20885
SWIDTH 1000 0
DWIDTH 14 0
BBX 12 13 1 -2
BITMAP
7FE0
5FA0
4020
5FA0
1F80
2100
FFE0
4420
7FE0
0500
0910
3110
E1F0
ENDCHAR
STARTCHAR uni5196
ENCODING 20886
SWIDTH 1000 0
DWIDTH 14 0
BBX 12 4 1 4
BITMAP
FFF0
8010
8010
8010
ENDCHAR
STARTCHAR uni5197
ENCODING 20887
SWIDTH 1000 0
DWIDTH 14 0
BBX 12 13 1 -2
BITMAP
FFF0
8010
8010
8010
1F80
1080
1080
1080
1080
1090
2090
6090
80F0
ENDCHAR
STARTCHAR uni5199
ENCODING 20889
SWIDTH 1000 0
DWIDTH 14 0
BBX 12 13 1 -2
BITMAP
FFF0
9010
9010
1FC0
1000
2000
3FC0
0040
0040
FF40
0040
0040
0380
ENDCHAR
STARTCHAR uni519B
ENCODING 20891
SWIDTH 1000 0
DWIDTH 14 0
BBX 12 13 1 -2
BITMAP
FFF0
8810
0800
3FC0
1000
2200
3FE0
0200
0200
FFF0
0200
0200
0200
ENDCHAR
STARTCHAR uni519C
ENCODING 20892
SWIDTH 1000 0
DWIDTH 14 0
BBX 13 14 0 -2
BITMAP
0100
0100
7FF8
4208
4608
0500
0930
19E0
68C0
08C0
0860
0930
1E18
1000
ENDCHAR
STARTCHAR uni51A0
ENCODING 20896
SWIDTH 1000 0
DWIDTH 14 0
BBX 12 13 1 -2
BITMAP
FFF0
8010
7C20
0020
03F0
0020
FD20
4920
4820
4820
48F0
C810
8FF0
ENDCHAR
STARTCHAR uni51A2
ENCODING 20898
SWIDTH 1000 0
DWIDTH 14 0
BBX 12 13 1 -2
BITMAP
FFF0
8010
BFD0
0C00
3420
C640
2F80
3280
D680
0940
3220
C210
0E00
ENDCHAR
STARTCHAR uni51A4
ENCODING 20900
SWIDTH 1000 0
DWIDTH 14 0
BBX 13 13 1 -2
BITMAP
FFF0
8810
9F10
2100
FFE0
C420
4420
7FE0
0600
0A40
1A30
3210
C1F0
ENDCHAR
STARTCHAR uni51A5
ENCODING 20901
SWIDTH 1000 0
DWIDTH 14 0
BBX 12 13 1 -2
BITMAP
FFF0
8010
BFD0
2040
3FC0
2040
3FC0
0600
FFF0
0000
30C0
6030
8000
ENDCHAR
STARTCHAR uni51AB
ENCODING 20907
SWIDTH 1000 0
DWIDTH 14 0
BBX 4 11 1 -1
BITMAP
C0
60
30
00
00
00
10
20
60
40
80
ENDCHAR
STARTCHAR uni51AC
ENCODING 20908
SWIDTH 1000 0
DWIDTH 14 0
BBX 12 14 1 -2
BITMAP
0C00
0800
1FC0
3080
6980
CF00
0F00
31C0
C830
0700
0080
3800
0700
0080
ENDCHAR
STARTCHAR uni51AF
ENCODING 20911
SWIDTH 1000 0
DWIDTH 14 0
BBX 12 13 1 -2
BITMAP
9FE0
4020
4C40
6840
0840
0840
0FF0
4010
4010
5FD0
8020
8020
01E0
ENDCHAR
STARTCHAR uni51B0
ENCODING 20912
SWIDTH 1000 0
DWIDTH 14 0
BBX 13 14 1 -2
BITMAP
0100
8100
C100
4110
1F20
05E0
05C0
2540
4940
4960
9930
B110
0100
0700
ENDCHAR
STARTCHAR uni51B1
ENCODING 20913
SWIDTH 1000 0
DWIDTH 14 0
BBX 12 12 1 -1
BITMAP
9FF0
4400
4400
2400
07E0
0420
0440
2840
4FC0
4040
8040
BFF0
ENDCHAR
STARTCHAR uni51B2
ENCODING 20914
SWIDTH 1000 0
DWIDTH 14 0
BBX 12 14 1 -2
BITMAP
0100
8100
4100
2FF0
0910
0910
0910
2910
6FF0
4910
C100
8100
8100
0100
ENDCHAR
STARTCHAR uni51B3
ENCODING 20915
SWIDTH 1000 0
DWIDTH 14 0
BBX 13 14 1 -2
BITMAP
0100
8100
C100
4FE0
0120
0120
0120
1FF0
2380
4280
42C0
8440
9830
1010
ENDCHAR
STARTCHAR uni51B5
ENCODING 20917
SWIDTH 1000 0
DWIDTH 14 0
BBX 13 13 1 -2
BITMAP
8FF0
4830
2830
0830
0830
0FF0
2280
4280
4680
8480
8490
0890
1070
ENDCHAR
STARTCHAR uni51B6
ENCODING 20918
SWIDTH 1000 0
DWIDTH 14 0
BBX 12 14 1 -2
BITMAP
0100
8200
4240
6440
0C20
0FF0
0C10
0000
2FE0
4820
4820
8820
8FE0
0820
ENDCHAR
STARTCHAR uni51B7
ENCODING 20919
SWIDTH 1000 0
DWIDTH 14 0
BBX 12 14 1 -2
BITMAP
0100
8100
4280
4440
0820
1110
0000
0FE0
4060
4040
C480
8300
8180
0080
ENDCHAR
STARTCHAR uni51BB
ENCODING 20923
SWIDTH 1000 0
DWIDTH 14 0
BBX 12 14 1 -2
BITMAP
0200
8200
5FF0
4400
0500
0D00
0900
0FF0
2100
4520
4920
8910
9110
0300
ENDCHAR
STARTCHAR uni51BC
ENCODING 20924
SWIDTH 1000 0
DWIDTH 14 0
BBX 13 14 1 -2
BITMAP
0100
8500
C900
6FF0
0900
1100
0100
3FF0
2240
4640
C440
8448
0850
3070
ENDCHAR
STARTCHAR uni51BD
ENCODING 20925
SWIDTH 1000 0
DWIDTH 14 0
BBX 12 14 1 -2
BITMAP
0010
9F10
C850
4850
0F50
0950
1250
5A50
4E50
4650
4410
8410
8810
1070
ENDCHAR
STARTCHAR uni51C0
ENCODING 20928
SWIDTH 1000 0
DWIDTH 14 0
BBX 12 14 1 -2
BITMAP
0600
87C0
4880
4880
1FE0
0120
0120
1FF0
2120
4FE0
4120
C100
8100
0700
ENDCHAR
STARTCHAR uni51C4
ENCODING 20932
SWIDTH 1000 0
DWIDTH 14 0
BBX 12 14 1 -2
BITMAP
0100
BFF0
8100
5FE0
0120
3FF0
0120
1FE0
4200
7FF0
8CC0
8780
86E0
1800
ENDCHAR
STARTCHAR uni51C6
ENCODING 20934
SWIDTH 1000 0
DWIDTH 14 0
BBX 12 14 1 -2
BITMAP
0400
8480
CC80
4FF0
5880
1880
2FF0
0880
2880
4FF0
4880
C880
8FF0
0800
ENDCHAR
STARTCHAR uni51C7
ENCODING 20935
SWIDTH 1000 0
DWIDTH 14 0
BBX 12 14 1 -2
BITMAP
0820
88A0
88A0
7F20
4910
0F50
1CC0
1A80
6880
68A0
8920
8910
89F0
0810
ENDCHAR
STARTCHAR uni51C9
ENCODING 20937
SWIDTH 1000 0
DWIDTH 14 0
BBX 12 14 1 -2
BITMAP
0100
8100
DFF0
4000
4FE0
0820
0820
0FE0
4100
4960
4920
9130
9110
0700
ENDCHAR
STARTCHAR uni51CB
ENCODING 20939
SWIDTH 1000 0
DWIDTH 14 0
BBX 12 13 1 -2
BITMAP
8FF0
4910
2FD0
0910
0910
0FD0
2810
57D0
5450
97D0
9410
2010
2070
ENDCHAR
STARTCHAR uni51CC
ENCODING 20940
SWIDTH 1000 0
DWIDTH 14 0
BBX 12 14 1 -2
BITMAP
0100
8FE0
4100
4100
1FF0
0440
0C20
1210
47E0
4C40
D2C0
8180
8EE0
1010
ENDCHAR
STARTCHAR uni51CF
ENCODING 20943
SWIDTH 1000 0
DWIDTH 14 0
BBX 13 14 1 -2
BITMAP
0080
80B0
8090
5FF0
5080
1790
1050
1760
5560
5560
9740
94D0
A1B0
2030
ENDCHAR
STARTCHAR uni51D1
ENCODING 20945
SWIDTH 1000 0
DWIDTH 14 0
BBX 13 14 1 -2
BITMAP
0100
8100
9FF0
4200
6FE0
0200
1FF0
0C40
5FF0
4100
4FE0
8280
8C60
1010
ENDCHAR
STARTCHAR uni51DB
ENCODING 20955
SWIDTH 1000 0
DWIDTH 14 0
BBX 12 14 1 -2
BITMAP
0100
9FF0
C000
6FE0
0820
0FA0
0B20
2FE0
4FE0
4000
9FF0
8D60
1930
0310
ENDCHAR
STARTCHAR uni51DD
ENCODING 20957
SWIDTH 1000 0
DWIDTH 14 0
BBX 13 14 1 -2
BITMAP
1000
97F0
D820
52C0
1E20
11F0
1E50
5850
4940
5F70
8940
8DC0
93C0
3270
ENDCHAR
STARTCHAR uni51E0
ENCODING 20960
SWIDTH 1000 0
DWIDTH 14 0
BBX 12 13 1 -2
BITMAP
1F80
1080
1080
1080
1080
1080
3080
2080
2090
2090
4090
C0F0
8000
ENDCHAR
STARTCHAR uni51E1
ENCODING 20961
SWIDTH 1000 0
DWIDTH 14 0
BBX 12 13 1 -2
BITMAP
3F80
2080
2080
2080
2C80
2480
2280
2080
2080
6090
4090
80F0
0000
ENDCHAR
STARTCHAR uni51E4
ENCODING 20964
SWIDTH 1000 0
DWIDTH 14 0
BBX 12 13 1 -2
BITMAP
7FE0
4020
4020
5FA0
4120
4120
4920
4620
4620
4520
89B0
B030
8010
ENDCHAR
STARTCHAR uni51EB
ENCODING 20971
SWIDTH 1000 0
DWIDTH 14 0
BBX 12 14 1 -2
BITMAP
0400
7FC0
6040
6C40
66C0
6000
7FF0
0010
1F10
1110
1160
2110
6110
C1F0
ENDCHAR
STARTCHAR uni51ED
ENCODING 20973
SWIDTH 1000 0
DWIDTH 14 0
BBX 14 14 0 -2
BITMAP
0810
17E0
2080
6FF8
2080
2080
27F8
0000
0FC0
0840
0840
1044
3048
6078
ENDCHAR
STARTCHAR uni51EF
ENCODING 20975
SWIDTH 1000 0
DWIDTH 14 0
BBX 12 14 1 -2
BITMAP
0000
A5E0
A520
A520
FD20
0120
FD20
0520
0520
FD20
8220
8220
FA30
8430
ENDCHAR
STARTCHAR uni51F0
ENCODING 20976
SWIDTH 1000 0
DWIDTH 14 0
BBX 13 13 1 -2
BITMAP
7FE0
4620
5FA0
50A0
5FA0
5FA0
4020
5FA0
4420
5FA0
8430
BFF0
8010
ENDCHAR
STARTCHAR uni51F3
ENCODING 20979
SWIDTH 1000 0
DWIDTH 14 0
BBX 12 14 1 -2
BITMAP
0000
7DC0
59B0
2F40
FFF0
2040
3FC0
1080
FFF0
0000
1F80
1080
2090
C0F0
ENDCHAR
STARTCHAR uni51F5
ENCODING 20981
SWIDTH 1000 0
DWIDTH 14 0
BBX 11 13 2 -2
BITMAP
8020
8020
8020
8020
8020
8020
8020
8020
8020
8020
8020
FFE0
0020
ENDCHAR
STARTCHAR uni51F6
ENCODING 20982
SWIDTH 1000 0
DWIDTH 14 0
BBX 12 13 1 -2
BITMAP
0040
2080
9090
8910
8710
8210
8510
8990
90D0
A010
8010
FFF0
0010
ENDCHAR
STARTCHAR uni51F8
ENCODING 20984
SWIDTH 1000 0
DWIDTH 14 0
BBX 12 13 1 -2
BITMAP
1F80
1080
1080
1080
1080
F0F0
8010
8010
8010
8010
8010
FFF0
8010
ENDCHAR
STARTCHAR uni51F9
ENCODING 20985
SWIDTH 1000 0
DWIDTH 14 0
BBX 12 11 1 -1
BITMAP
F9F0
8930
8930
8930
8930
8F30
8030
8030
8030
FFF0
8030
ENDCHAR
STARTCHAR uni51FA
ENCODING 20986
SWIDTH 1000 0
DWIDTH 14 0
BBX 11 14 1 -2
BITMAP
0600
0600
4620
4620
4620
4620
7FE0
0600
C620
C620
C620
C620
FFE0
0020
ENDCHAR
STARTCHAR uni51FB
ENCODING 20987
SWIDTH 1000 0
DWIDTH 14 0
BBX 12 14 1 -2
BITMAP
0600
0600
0600
7FE0
0600
0600
FFF0
0600
4620
4620
4620
4620
7FE0
0020
ENDCHAR
STARTCHAR uni51FC
ENCODING 20988
SWIDTH 1000 0
DWIDTH 14 0
BBX 12 14 1 -2
BITMAP
0200
8210
8250
BAD0
8B90
8B10
9290
9290
A250
A250
8E10
8010
FFF0
0010
ENDCHAR
STARTCHAR uni51FD
ENCODING 20989
SWIDTH 1000 0
DWIDTH 14 0
BBX 12 13 1 -2
BITMAP
3FC0
0180
0300
A650
9690
8710
8F10
9690
A650
8C10
8010
FFF0
0010
ENDCHAR
STARTCHAR uni51FF
ENCODING 20991
SWIDTH 1000 0
DWIDTH 14 0
BBX 12 14 1 -2
BITMAP
0900
4920
2940
0940
FFF0
1000
4920
7FE0
4420
5FA0
4420
4020
7FE0
0020
ENDCHAR
STARTCHAR uni5200
ENCODING 20992
SWIDTH 1000 0
DWIDTH 14 0
BBX 12 12 1 -2
BITMAP
FFF0
0C10
0C10
0830
0830
0820
0820
1820
1020
3020
6020
C1E0
ENDCHAR
STARTCHAR uni5201
ENCODING 20993
SWIDTH 1000 0
DWIDTH 14 0
BBX 11 12 1 -2
BITMAP
7FE0
0020
0020
0120
0320
0420
1820
3020
C020
0020
0060
03C0
ENDCHAR
STARTCHAR uni5202
ENCODING 20994
SWIDTH 1000 0
DWIDTH 14 0
BBX 5 14 7 -2
BITMAP
08
08
88
88
88
88
88
88
88
88
08
08
08
38
ENDCHAR
STARTCHAR uni5203
ENCODING 20995
SWIDTH 1000 0
DWIDTH 14 0
BBX 11 12 1 -2
BITMAP
FFE0
0420
0420
2420
4420
4420
8820
0820
1020
3020
6060
C1C0
ENDCHAR
STARTCHAR uni5206
ENCODING 20998
SWIDTH 1000 0
DWIDTH 14 0
BBX 12 14 1 -2
BITMAP
0000
1080
1080
2040
6060
4030
BFD0
0840
0840
0840
1840
1040
2040
C380
ENDCHAR
STARTCHAR uni5207
ENCODING 20999
SWIDTH 1000 0
DWIDTH 14 0
BBX 13 14 0 -2
BITMAP
2000
23F8
2088
2488
7888
2088
2088
2088
2088
2D08
3908
2308
0618
0470
ENDCHAR
STARTCHAR uni5208
ENCODING 21000
SWIDTH 1000 0
DWIDTH 14 0
BBX 12 14 1 -2
BITMAP
0010
0410
8410
C490
4890
2890
1890
1090
1890
2C90
6410
4410
8010
00E0
ENDCHAR
STARTCHAR uni520A
ENCODING 21002
SWIDTH 1000 0
DWIDTH 14 0
BBX 12 14 1 -2
BITMAP
0010
FC10
1090
1090
1090
1090
FE90
1090
1090
1090
1010
1010
1010
10F0
ENDCHAR
STARTCHAR uni520D
ENCODING 21005
SWIDTH 1000 0
DWIDTH 14 0
BBX 11 14 1 -2
BITMAP
0C00
0800
1FC0
3040
6080
C080
FFE0
0020
0020
3FE0
0020
0020
7FE0
0020
ENDCHAR
STARTCHAR uni520E
ENCODING 21006
SWIDTH 1000 0
DWIDTH 14 0
BBX 13 14 0 -2
BITMAP
1008
2008
3F48
2D48
5548
5548
1548
2548
2948
4948
4908
1108
2308
0638
ENDCHAR
STARTCHAR uni5211
ENCODING 21009
SWIDTH 1000 0
DWIDTH 14 0
BBX 12 14 1 -2
BITMAP
0010
FE10
4490
4490
4490
4490
FE90
4490
4490
4490
4410
4410
8410
8470
ENDCHAR
STARTCHAR uni5212
ENCODING 21010
SWIDTH 1000 0
DWIDTH 14 0
BBX 12 14 1 -2
BITMAP
2010
2810
2490
2090
7E90
E090
2490
2490
2890
1890
1010
3210
CA10
8670
ENDCHAR
STARTCHAR uni5216
ENCODING 21014
SWIDTH 1000 0
DWIDTH 14 0
BBX 13 14 0 -2
BITMAP
0008
3E08
2248
2248
3E48
2248
2248
2248
3E48
2248
2208
4208
4208
4E38
ENDCHAR
STARTCHAR uni5217
ENCODING 21015
SWIDTH 1000 0
DWIDTH 14 0
BBX 12 14 1 -2
BITMAP
0010
FE10
2090
2090
7E90
4490
4490
A490
3C90
1890
1810
1010
6010
C070
ENDCHAR
STARTCHAR uni5218
ENCODING 21016
SWIDTH 1000 0
DWIDTH 14 0
BBX 12 14 1 -2
BITMAP
0000
1010
1090
FE90
0490
0890
4890
2890
1090
1890
3C10
2410
4010
8070
ENDCHAR
STARTCHAR uni5219
ENCODING 21017
SWIDTH 1000 0
DWIDTH 14 0
BBX 12 14 1 -2
BITMAP
0010
FC10
8490
9490
9490
9490
9490
9490
9490
9490
2090
2810
4410
80E0
ENDCHAR
STARTCHAR uni521A
ENCODING 21018
SWIDTH 1000 0
DWIDTH 14 0
BBX 12 13 1 -2
BITMAP
FE10
8250
8A50
AA50
AA50
9A50
9250
9A50
9A50
A610
A210
8210
8E70
ENDCHAR
STARTCHAR uni521B
ENCODING 21019
SWIDTH 1000 0
DWIDTH 14 0
BBX 13 14 0 -2
BITMAP
0808
0808
1448
1248
2148
4148
3E48
2248
2248
2E48
2008
2108
2108
3F78
ENDCHAR
STARTCHAR uni521D
ENCODING 21021
SWIDTH 1000 0
DWIDTH 14 0
BBX 12 14 1 -2
BITMAP
6000
27F0
0110
F910
1110
3910
2910
7110
FA10
AA10
2230
2620
2420
28E0
ENDCHAR
STARTCHAR uni5220
ENCODING 21024
SWIDTH 1000 0
DWIDTH 14 0
BBX 12 13 1 -2
BITMAP
7710
9950
9950
9950
9950
FF50
9950
9950
9950
9910
9910
9910
AA70
ENDCHAR
STARTCHAR uni5224
ENCODING 21028
SWIDTH 1000 0
DWIDTH 14 0
BBX 12 14 1 -2
BITMAP
1000
9210
5690
5490
5490
FE90
1090
1090
FE90
1090
2010
2010
4010
C0F0
ENDCHAR
STARTCHAR uni5228
ENCODING 21032
SWIDTH 1000 0
DWIDTH 14 0
BBX 13 14 0 -2
BITMAP
1008
3008
3F48
6148
7D48
2548
2548
3D48
2148
2648
2008
2108
2108
3F38
ENDCHAR
STARTCHAR uni5229
ENCODING 21033
SWIDTH 1000 0
DWIDTH 14 0
BBX 13 14 0 -2
BITMAP
0200
3C08
6888
0888
0888
7E88
1888
1888
2C88
2A88
4808
8808
0808
0878
ENDCHAR
STARTCHAR uni522B
ENCODING 21035
SWIDTH 1000 0
DWIDTH 14 0
BBX 13 13 0 -2
BITMAP
7E08
4248
4248
4248
7E48
1048
7E48
1248
1248
1208
2208
6208
4C38
ENDCHAR
STARTCHAR uni522D
ENCODING 21037
SWIDTH 1000 0
DWIDTH 14 0
BBX 12 14 1 -2
BITMAP
0010
FC90
0C90
1890
3890
C690
0290
FE90
1090
1090
1010
1210
FE10
8070
ENDCHAR
STARTCHAR uni522E
ENCODING 21038
SWIDTH 1000 0
DWIDTH 14 0
BBX 12 14 1 -2
BITMAP
0410
F810
1090
1090
FE90
1090
1090
1090
FE90
8690
8610
8610
FE10
8670
ENDCHAR
STARTCHAR uni5230
ENCODING 21040
SWIDTH 1000 0
DWIDTH 14 0
BBX 12 13 1 -1
BITMAP
0010
FE90
2090
2490
4490
7A90
0090
1090
FE90
1090
1010
7E10
8070
ENDCHAR
STARTCHAR uni5233
ENCODING 21043
SWIDTH 1000 0
DWIDTH 14 0
BBX 13 14 0 -2
BITMAP
0800
0808
7F48
1648
2348
5D48
0048
7F48
2048
3E48
0208
0208
0208
1E38
ENDCHAR
STARTCHAR uni5236
ENCODING 21046
SWIDTH 1000 0
DWIDTH 14 0
BBX 12 14 1 -2
BITMAP
1010
5090
FE90
9090
9090
FE90
1090
FE90
9290
9290
9210
9210
9610
1070
ENDCHAR
STARTCHAR uni5237
ENCODING 21047
SWIDTH 1000 0
DWIDTH 14 0
BBX 13 14 0 -2
BITMAP
0008
3F08
4148
4148
3F48
4448
5F48
5548
5548
5548
5508
5708
4408
0438
ENDCHAR
STARTCHAR uni5238
ENCODING 21048
SWIDTH 1000 0
DWIDTH 14 0
BBX 13 14 1 -2
BITMAP
0200
2240
1480
7FE0
0800
FFF0
3080
6040
FFF0
0850
0840
1880
3080
4380
ENDCHAR
STARTCHAR uni5239
ENCODING 21049
SWIDTH 1000 0
DWIDTH 14 0
BBX 12 14 1 -2
BITMAP
0010
0410
6890
1890
6C90
D090
1090
FE90
1090
5490
5410
9210
9010
3070
ENDCHAR
STARTCHAR uni523A
ENCODING 21050
SWIDTH 1000 0
DWIDTH 14 0
BBX 13 14 0 -2
BITMAP
0808
0808
7F48
0848
7F48
4948
4948
4B48
1848
1C48
2B08
4808
4808
0838
ENDCHAR
STARTCHAR uni523B
ENCODING 21051
SWIDTH 1000 0
DWIDTH 14 0
BBX 12 14 1 -2
BITMAP
1010
1010
FE90
2090
2490
4490
F890
1A90
3290
6490
8810
1410
6210
8070
ENDCHAR
STARTCHAR uni523D
ENCODING 21053
SWIDTH 1000 0
DWIDTH 14 0
BBX 12 14 1 -2
BITMAP
1810
1810
2C90
6690
C390
7C90
0090
FE90
2090
2490
6410
4210
FE10
8270
ENDCHAR
STARTCHAR uni523F
ENCODING 21055
SWIDTH 1000 0
DWIDTH 14 0
BBX 12 14 1 -2
BITMAP
1010
9210
9290
9290
FE90
2090
3E90
4490
C490
B490
1810
1010
6010
C070
ENDCHAR
STARTCHAR uni5240
ENCODING 21056
SWIDTH 1000 0
DWIDTH 14 0
BBX 12 14 1 -2
BITMAP
1010
9210
9290
FE90
0090
FE90
0290
0290
FE90
8090
8010
8E10
F810
0070
ENDCHAR
STARTCHAR uni5241
ENCODING 21057
SWIDTH 1000 0
DWIDTH 14 0
BBX 13 14 0 -2
BITMAP
0008
3E08
2248
2248
2248
4348
0848
7F48
1C48
1E48
2A08
6908
4808
0838
ENDCHAR
STARTCHAR uni5242
ENCODING 21058
SWIDTH 1000 0
DWIDTH 14 0
BBX 12 14 1 -2
BITMAP
1010
1010
FF90
0490
6890
1890
3690
C290
2490
2490
2410
4410
4410
8470
ENDCHAR
STARTCHAR uni5243
ENCODING 21059
SWIDTH 1000 0
DWIDTH 14 0
BBX 12 14 1 -2
BITMAP
0410
4410
2490
FE90
1290
FE90
9090
9090
FE90
3290
3210
5E10
9010
1070
ENDCHAR
STARTCHAR uni524A
ENCODING 21066
SWIDTH 1000 0
DWIDTH 14 0
BBX 12 14 1 -2
BITMAP
1010
9410
D490
1490
FC90
8490
8490
FC90
8490
FC90
8410
8410
8410
9CF0
ENDCHAR
STARTCHAR uni524C
ENCODING 21068
SWIDTH 1000 0
DWIDTH 14 0
BBX 13 13 0 -2
BITMAP
0808
7F48
0848
7F48
4948
4948
7F48
1848
1C48
2A08
6908
4808
0838
ENDCHAR
STARTCHAR uni524D
ENCODING 21069
SWIDTH 1000 0
DWIDTH 14 0
BBX 12 14 1 -2
BITMAP
2040
3040
1080
FFF0
0000
7D20
4520
7D20
4520
4520
7D20
4420
4420
5CE0
ENDCHAR
STARTCHAR uni5250
ENCODING 21072
SWIDTH 1000 0
DWIDTH 14 0
BBX 12 14 1 -2
BITMAP
0010
7E10
4290
4290
7E90
1090
FE90
9290
9A90
9A90
A610
8210
8210
8670
ENDCHAR
STARTCHAR uni5251
ENCODING 21073
SWIDTH 1000 0
DWIDTH 14 0
BBX 13 14 0 -2
BITMAP
0800
0C08
1648
3348
6148
7E48
0048
0948
2948
2A48
2208
0508
7E08
0038
ENDCHAR
STARTCHAR uni5254
ENCODING 21076
SWIDTH 1000 0
DWIDTH 14 0
BBX 13 13 0 -2
BITMAP
7F08
4148
7F48
4148
7F48
1048
3F48
5548
1548
2508
2908
4908
1638
ENDCHAR
STARTCHAR uni5256
ENCODING 21078
SWIDTH 1000 0
DWIDTH 14 0
BBX 12 14 1 -2
BITMAP
1010
1010
FE90
4490
2490
2890
FE90
0090
7E90
4690
4610
4610
7E10
4660
ENDCHAR
STARTCHAR uni525C
ENCODING 21084
SWIDTH 1000 0
DWIDTH 14 0
BBX 13 14 0 -2
BITMAP
0808
0808
7FA8
40A8
2028
3F28
4D28
4D28
7528
3728
1408
2588
2708
4038
ENDCHAR
STARTCHAR uni525E
ENCODING 21086
SWIDTH 1000 0
DWIDTH 14 0
BBX 12 14 1 -2
BITMAP
1010
1010
FE90
3090
6C90
8090
FE90
0490
F490
9490
F410
8410
0410
0C70
ENDCHAR
STARTCHAR uni5261
ENCODING 21089
SWIDTH 1000 0
DWIDTH 14 0
BBX 12 14 1 -2
BITMAP
1010
5210
5490
9490
3890
6490
D290
1090
5290
5490
9010
2C10
6610
8270
ENDCHAR
STARTCHAR uni5265
ENCODING 21093
SWIDTH 1000 0
DWIDTH 14 0
BBX 13 13 0 -2
BITMAP
3E08
0248
3E48
0248
7FC8
0848
6948
2A48
1C48
3A08
C908
0808
3838
ENDCHAR
STARTCHAR uni5267
ENCODING 21095
SWIDTH 1000 0
DWIDTH 14 0
BBX 13 14 0 -2
BITMAP
0008
3F08
2148
2148
3F48
2448
3FC8
4448
4448
5F48
5108
5108
5F08
1138
ENDCHAR
STARTCHAR uni5269
ENCODING 21097
SWIDTH 1000 0
DWIDTH 14 0
BBX 12 14 1 -2
BITMAP
0210
FC10
1050
FF50
3450
F750
3450
7550
B750
1850
3610
5310
D010
1070
ENDCHAR
STARTCHAR uni526A
ENCODING 21098
SWIDTH 1000 0
DWIDTH 14 0
BBX 12 14 1 -2
BITMAP
20C0
1080
FFF0
7D20
4520
7D20
7D20
4420
4860
FFE0
0420
0820
3020
C1C0
ENDCHAR
STARTCHAR uni526F
ENCODING 21103
SWIDTH 1000 0
DWIDTH 14 0
BBX 12 13 1 -2
BITMAP
FF10
0090
7E90
4290
7E90
0090
FE90
9290
9290
FE10
9210
FE10
8270
ENDCHAR
STARTCHAR uni5272
ENCODING 21106
SWIDTH 1000 0
DWIDTH 14 0
BBX 12 14 1 -2
BITMAP
1010
FF10
8190
9F90
7090
7C90
1090
FE90
1090
7E90
4210
4210
7E10
4270
ENDCHAR
STARTCHAR uni527D
ENCODING 21117
SWIDTH 1000 0
DWIDTH 14 0
BBX 12 14 1 -2
BITMAP
0010
FF10
2890
FE90
AA90
FE90
0090
7E90
0090
FF90
1010
5210
9310
3070
ENDCHAR
STARTCHAR uni527F
ENCODING 21119
SWIDTH 1000 0
DWIDTH 14 0
BBX 13 14 0 -2
BITMAP
2908
4A08
4A48
2548
7F48
4948
7F48
7F48
0848
7F48
1C08
3A08
6908
0838
ENDCHAR
STARTCHAR uni5281
ENCODING 21121
SWIDTH 1000 0
DWIDTH 14 0
BBX 12 14 1 -2
BITMAP
2810
4810
7F90
C890
FE90
4890
7E90
4890
4890
7F90
0090
AA10
9510
9570
ENDCHAR
STARTCHAR uni5282
ENCODING 21122
SWIDTH 1000 0
DWIDTH 14 0
BBX 13 14 0 -2
BITMAP
0008
7FC8
5528
5A28
7DE8
4AA8
4FA8
6F28
6D28
5D28
4988
5288
5248
0418
ENDCHAR
STARTCHAR uni5288
ENCODING 21128
SWIDTH 1000 0
DWIDTH 14 0
BBX 13 14 0 -2
BITMAP
0040
7DF8
4490
7C90
41F8
7C40
65F8
7C40
0000
7FF0
0210
0410
1810
60F0
ENDCHAR
STARTCHAR uni5290
ENCODING 21136
SWIDTH 1000 0
DWIDTH 14 0
BBX 12 14 1 -2
BITMAP
2410
FF10
6490
7F90
C890
FE90
7E90
4890
7F90
0090
FE10
6410
1C10
E270
ENDCHAR
STARTCHAR uni5293
ENCODING 21139
SWIDTH 1000 0
DWIDTH 14 0
BBX 12 14 1 -2
BITMAP
1010
7C10
7C90
4490
7C90
7C90
FE90
FE90
9290
FE90
FE10
4410
4410
8470
ENDCHAR
STARTCHAR uni529B
ENCODING 21147
SWIDTH 1000 0
DWIDTH 14 0
BBX 12 14 1 -2
BITMAP
0400
0400
0400
FFF0
0410
0430
0820
0820
0820
1820
1020
2020
6020
81C0
ENDCHAR
STARTCHAR uni529D
ENCODING 21149
SWIDTH 1000 0
DWIDTH 14 0
BBX 13 14 0 -2
BITMAP
0080
0080
7C80
0480
47F8
6888
2888
1888
1888
1888
2508
6108
4210
0470
ENDCHAR
STARTCHAR uni529E
ENCODING 21150
SWIDTH 1000 0
DWIDTH 14 0
BBX 12 14 1 -2
BITMAP
0C00
0C00
0C00
FFC0
0C80
08A0
48A0
4890
9890
9090
3080
6080
C780
8000
ENDCHAR
STARTCHAR uni529F
ENCODING 21151
SWIDTH 1000 0
DWIDTH 14 0
BBX 12 14 1 -2
BITMAP
0100
0100
F900
2100
27F0
2110
2110
2110
2110
3B10
E210
0610
0C30
08E0
ENDCHAR
STARTCHAR uni52A0
ENCODING 21152
SWIDTH 1000 0
DWIDTH 14 0
BBX 13 14 0 -2
BITMAP
1000
1000
10F8
7E88
1288
1288
1288
1288
2288
2288
2288
22F8
4688
CC00
ENDCHAR
STARTCHAR uni52A1
ENCODING 21153
SWIDTH 1000 0
DWIDTH 14 0
BBX 12 14 1 -2
BITMAP
0800
0800
1FE0
7040
4980
0F00
F0F0
0400
7FE0
0C20
0820
1820
3040
C1C0
ENDCHAR
STARTCHAR uni52A2
ENCODING 21154
SWIDTH 1000 0
DWIDTH 14 0
BBX 13 14 0 -2
BITMAP
0040
7E40
1040
1040
11F8
3048
3E48
2248
2248
2248
2288
2488
4598
DD30
ENDCHAR
STARTCHAR uni52A3
ENCODING 21155
SWIDTH 1000 0
DWIDTH 14 0
BBX 12 14 1 -2
BITMAP
0400
14C0
2420
44F0
8580
0E00
F000
0400
7FE0
0420
0820
1820
3020
C1C0
ENDCHAR
STARTCHAR uni52A8
ENCODING 21160
SWIDTH 1000 0
DWIDTH 14 0
BBX 12 14 1 -2
BITMAP
0080
FC80
0080
03F0
0090
FC90
2090
4890
4890
4510
9D10
E510
0210
02E0
ENDCHAR
STARTCHAR uni52A9
ENCODING 21161
SWIDTH 1000 0
DWIDTH 14 0
BBX 12 14 1 -2
BITMAP
0080
7880
8880
8880
7BF0
8890
8890
7910
8910
8910
9D10
F210
0630
0CE0
ENDCHAR
STARTCHAR uni52AA
ENCODING 21162
SWIDTH 1000 0
DWIDTH 14 0
BBX 12 14 1 -2
BITMAP
1000
23F0
FD10
4520
48E0
38C0
3DE0
C210
0400
7FE0
0420
0820
3020
C1C0
ENDCHAR
STARTCHAR uni52AB
ENCODING 21163
SWIDTH 1000 0
DWIDTH 14 0
BBX 12 14 1 -2
BITMAP
1080
1080
1080
FC80
13F0
1090
FC90
2090
2890
4890
4510
FD10
8330
0260
ENDCHAR
STARTCHAR uni52AC
ENCODING 21164
SWIDTH 1000 0
DWIDTH 14 0
BBX 13 14 0 -2
BITMAP
2040
2040
3E40
4240
42F8
7A48
4A48
4A48
4A48
3A48
4288
0288
0388
1D30
ENDCHAR
STARTCHAR uni52AD
ENCODING 21165
SWIDTH 1000 0
DWIDTH 14 0
BBX 13 14 0 -2
BITMAP
0040
7E40
1240
1240
23F8
2248
CC48
0048
7E48
4288
4288
4288
7F08
4370
ENDCHAR
STARTCHAR uni52B1
ENCODING 21169
SWIDTH 1000 0
DWIDTH 14 0
BBX 13 14 0 -2
BITMAP
0040
7F40
4040
4040
7FF8
4848
4E48
4A48
4A48
4A48
5248
5288
5288
2F30
ENDCHAR
STARTCHAR uni52B2
ENCODING 21170
SWIDTH 1000 0
DWIDTH 14 0
BBX 12 14 1 -2
BITMAP
0080
FC80
0880
1880
33F0
6C90
8090
FC90
2090
2090
2110
2D10
FA10
0660
ENDCHAR
STARTCHAR uni52B3
ENCODING 21171
SWIDTH 1000 0
DWIDTH 14 0
BBX 12 14 1 -2
BITMAP
1080
1080
FFF0
1080
0000
FFF0
8410
0400
7FE0
0C20
0820
1820
3040
C1C0
ENDCHAR
STARTCHAR uni52BE
ENCODING 21182
SWIDTH 1000 0
DWIDTH 14 0
BBX 12 14 1 -2
BITMAP
2080
1080
FC80
2080
61F0
4890
F890
1490
2490
C890
9910
3D10
4320
8260
ENDCHAR
STARTCHAR uni52BF
ENCODING 21183
SWIDTH 1000 0
DWIDTH 14 0
BBX 12 14 1 -2
BITMAP
2100
2100
FFE0
2120
FB20
23A0
6430
0400
FFE0
0820
0820
1820
3040
C1C0
ENDCHAR
STARTCHAR uni52C3
ENCODING 21187
SWIDTH 1000 0
DWIDTH 14 0
BBX 12 14 1 -2
BITMAP
1080
1080
FC80
1080
FDF0
8490
7C90
1890
1090
7E90
9110
1110
1330
72E0
ENDCHAR
STARTCHAR uni52C7
ENCODING 21191
SWIDTH 1000 0
DWIDTH 14 0
BBX 11 13 1 -2
BITMAP
7FE0
1980
0700
7FE0
7FE0
4420
7FE0
4420
0400
7FE0
0C20
3820
C1C0
ENDCHAR
STARTCHAR uni52C9
ENCODING 21193
SWIDTH 1000 0
DWIDTH 14 0
BBX 13 14 0 -2
BITMAP
1040
3C40
2440
4DF8
FF48
4948
4948
4948
7F88
0C88
1530
3408
2408
C7F8
ENDCHAR
STARTCHAR uni52CB
ENCODING 21195
SWIDTH 1000 0
DWIDTH 14 0
BBX 13 14 0 -2
BITMAP
0040
3E40
2240
3FF8
0048
7E48
4248
4A48
4A48
4A48
52C8
1C88
2688
4130
ENDCHAR
STARTCHAR uni52D0
ENCODING 21200
SWIDTH 1000 0
DWIDTH 14 0
BBX 12 14 1 -2
BITMAP
0080
FC80
0880
1080
FDF0
1090
7090
0090
FC90
B490
B590
B710
FB10
0060
ENDCHAR
STARTCHAR uni52D2
ENCODING 21202
SWIDTH 1000 0
DWIDTH 14 0
BBX 12 14 1 -2
BITMAP
4880
4880
FC80
4880
7BF0
1090
FC90
9490
FC90
1110
FF10
1110
1230
14E0
ENDCHAR
STARTCHAR uni52D6
ENCODING 21206
SWIDTH 1000 0
DWIDTH 14 0
BBX 12 14 1 -2
BITMAP
0080
FE80
FA80
8280
FBF0
8290
FC90
8490
FC90
8490
FC90
8510
FD30
8060
ENDCHAR
STARTCHAR uni52D8
ENCODING 21208
SWIDTH 1000 0
DWIDTH 14 0
BBX 12 14 1 -2
BITMAP
4480
4480
FE80
4480
7DF0
4490
7C90
4490
FE90
8890
A590
A510
FD10
0260
ENDCHAR
STARTCHAR uni52DF
ENCODING 21215
SWIDTH 1000 0
DWIDTH 14 0
BBX 13 14 1 -2
BITMAP
1080
FFF0
1080
7FE0
4020
7FE0
7FE0
0800
FFF0
2440
FFF0
0840
1840
6180
ENDCHAR
STARTCHAR uni52E4
ENCODING 21220
SWIDTH 1000 0
DWIDTH 14 0
BBX 12 14 1 -2
BITMAP
4880
FE80
4880
7880
13F0
FC90
9490
FC90
FC90
1090
FD10
1110
FF10
0260
ENDCHAR
STARTCHAR uni52F0
ENCODING 21232
SWIDTH 1000 0
DWIDTH 14 0
BBX 12 13 1 -2
BITMAP
21F0
FE50
2650
47F0
DA50
81F0
8800
FC40
B540
B710
B730
B720
48E0
ENDCHAR
STARTCHAR uni52F9
ENCODING 21241
SWIDTH 1000 0
DWIDTH 14 0
BBX 12 14 1 -2
BITMAP
1000
1000
3000
3FF0
6010
4010
C010
8010
0010
0010
0020
0020
0020
01E0
ENDCHAR
STARTCHAR uni52FA
ENCODING 21242
SWIDTH 1000 0
DWIDTH 14 0
BBX 12 14 1 -2
BITMAP
1000
1000
3FF0
2010
4010
C010
9810
0810
0430
0620
0020
0020
0020
01E0
ENDCHAR
STARTCHAR uni52FE
ENCODING 21246
SWIDTH 1000 0
DWIDTH 14 0
BBX 12 14 1 -2
BITMAP
1000
1000
3FF0
2010
4810
C810
9A10
1110
2110
23B0
7EA0
0020
0020
01E0
ENDCHAR
STARTCHAR uni52FF
ENCODING 21247
SWIDTH 1000 0
DWIDTH 14 0
BBX 13 14 0 -2
BITMAP
0800
0800
1000
1FF8
3248
2448
4488
4C88
0888
1108
3118
6210
0610
0470
ENDCHAR
STARTCHAR uni5300
ENCODING 21248
SWIDTH 1000 0
DWIDTH 14 0
BBX 12 14 1 -2
BITMAP
1000
1000
3000
3FF0
6030
4020
9820
8C20
0020
0120
0E20
7020
4020
03C0
ENDCHAR
STARTCHAR uni5305
ENCODING 21253
SWIDTH 1000 0
DWIDTH 14 0
BBX 12 14 1 -2
BITMAP
1000
1000
3FE0
6020
C020
BE20
2220
2220
3E20
2020
20E0
2010
2010
3FF0
ENDCHAR
STARTCHAR uni5306
ENCODING 21254
SWIDTH 1000 0
DWIDTH 14 0
BBX 13 14 0 -2
BITMAP
0800
1800
1000
1FF8
2648
6488
5498
0C90
0B90
1990
1150
2210
4610
04F0
ENDCHAR
STARTCHAR uni5308
ENCODING 21256
SWIDTH 1000 0
DWIDTH 14 0
BBX 13 14 0 -2
BITMAP
0800
1800
1FF8
3008
6108
6948
2648
2648
2548
2948
2048
3FD8
0010
0070
ENDCHAR
STARTCHAR uni530D
ENCODING 21261
SWIDTH 1000 0
DWIDTH 14 0
BBX 12 14 1 -2
BITMAP
1000
2000
3FF0
4710
FF90
0410
7F90
4490
7F90
44A0
7FA0
44A0
45A0
00E0
ENDCHAR
STARTCHAR uni530F
ENCODING 21263
SWIDTH 1000 0
DWIDTH 14 0
BBX 13 14 0 -2
BITMAP
1080
1080
7EF8
2908
65E8
7928
0128
7F28
21E8
3D38
0500
0508
0508
38F8
ENDCHAR
STARTCHAR uni5310
ENCODING 21264
SWIDTH 1000 0
DWIDTH 14 0
BBX 12 14 1 -2
BITMAP
1000
2000
3FF0
4010
BF90
BF10
2110
3F10
7FB0
44A0
7FA0
44A0
7FA0
00E0
ENDCHAR
STARTCHAR uni5315
ENCODING 21269
SWIDTH 1000 0
DWIDTH 14 0
BBX 10 12 3 -1
BITMAP
8000
8000
8180
8600
B800
E000
8000
8000
8040
8040
80C0
FF80
ENDCHAR
STARTCHAR uni5316
ENCODING 21270
SWIDTH 1000 0
DWIDTH 14 0
BBX 12 14 1 -2
BITMAP
1200
1200
3200
2230
6220
E240
A280
2300
2600
2E00
2210
2210
2210
21F0
ENDCHAR
STARTCHAR uni5317
ENCODING 21271
SWIDTH 1000 0
DWIDTH 14 0
BBX 13 13 1 -1
BITMAP
0900
0900
0900
0910
F960
09C0
0900
0900
0900
3900
C908
0910
09F0
ENDCHAR
STARTCHAR uni5319
ENCODING 21273
SWIDTH 1000 0
DWIDTH 14 0
BBX 14 13 0 -2
BITMAP
7E80
4280
7E88
7EF0
0080
7F80
0880
2888
2F88
2888
6878
5800
C7F8
ENDCHAR
STARTCHAR uni531A
ENCODING 21274
SWIDTH 1000 0
DWIDTH 14 0
BBX 11 12 2 -1
BITMAP
FFC0
8000
8000
8000
8000
8000
8000
8000
8000
8000
8000
FFE0
ENDCHAR
STARTCHAR uni531D
ENCODING 21277
SWIDTH 1000 0
DWIDTH 14 0
BBX 12 12 1 -1
BITMAP
FFF0
8200
8200
9FE0
9220
9220
9220
9220
92E0
8200
8000
FFF0
ENDCHAR
STARTCHAR uni5320
ENCODING 21280
SWIDTH 1000 0
DWIDTH 14 0
BBX 12 12 1 -1
BITMAP
FFF0
8000
9FC0
9000
9000
9FF0
9080
9080
9080
B080
8080
FFF0
ENDCHAR
STARTCHAR uni5321
ENCODING 21281
SWIDTH 1000 0
DWIDTH 14 0
BBX 12 12 1 -1
BITMAP
FFF0
8000
9FE0
8200
8200
9FE0
8200
8200
8200
9FE0
8000
FFF0
ENDCHAR
STARTCHAR uni5323
ENCODING 21283
SWIDTH 1000 0
DWIDTH 14 0
BBX 12 12 1 -1
BITMAP
FFF0
8000
9FE0
9220
9FE0
9220
9220
9FE0
8200
8200
8200
FFF0
ENDCHAR
STARTCHAR uni5326
ENCODING 21286
SWIDTH 1000 0
DWIDTH 14 0
BBX 12 12 1 -1
BITMAP
FFF0
8080
9080
BDE0
98A0
BCA0
88A0
8F20
B930
8A30
8000
FFF0
ENDCHAR
STARTCHAR uni532A
ENCODING 21290
SWIDTH 1000 0
DWIDTH 14 0
BBX 12 12 1 -1
BITMAP
FFF0
8000
8500
BCF0
8500
9CE0
8500
8500
BCF0
8500
8400
FFF0
ENDCHAR
STARTCHAR uni532E
ENCODING 21294
SWIDTH 1000 0
DWIDTH 14 0
BBX 12 13 1 -1
BITMAP
FFF0
8000
9FE0
9220
9FE0
BFF0
8000
9FE0
9060
9260
9300
9CE0
FFF0
ENDCHAR
STARTCHAR uni5339
ENCODING 21305
SWIDTH 1000 0
DWIDTH 14 0
BBX 12 12 1 -1
BITMAP
FFF0
8880
8880
8880
8880
8880
8890
9090
B0F0
A000
8000
FFF0
ENDCHAR
STARTCHAR uni533A
ENCODING 21306
SWIDTH 1000 0
DWIDTH 14 0
BBX 12 12 1 -1
BITMAP
FFF0
8000
9040
9880
8D80
8300
8300
8C80
9840
9040
8000
FFF0
ENDCHAR
STARTCHAR uni533B
ENCODING 21307
SWIDTH 1000 0
DWIDTH 14 0
BBX 12 12 1 -1
BITMAP
FFF0
8800
8800
9FE0
B200
8200
BFF0
8300
8680
8C40
9020
FFF0
ENDCHAR
STARTCHAR uni533E
ENCODING 21310
SWIDTH 1000 0
DWIDTH 14 0
BBX 12 13 1 -2
BITMAP
FFF0
8200
9FE0
9020
9FE0
9000
9FE0
9AA0
AFE0
AAA0
A820
8000
FFF0
ENDCHAR
STARTCHAR uni533F
ENCODING 21311
SWIDTH 1000 0
DWIDTH 14 0
BBX 12 12 1 -1
BITMAP
FFF0
8480
BFE0
8480
8200
BFF0
8C00
9FC0
B840
8FC0
8000
FFF0
ENDCHAR
STARTCHAR uni5341
ENCODING 21313
SWIDTH 1000 0
DWIDTH 14 0
BBX 12 14 1 -2
BITMAP
0600
0600
0600
0600
0600
0600
FFF0
0600
0600
0600
0600
0600
0600
0600
ENDCHAR
STARTCHAR uni5343
ENCODING 21315
SWIDTH 1000 0
DWIDTH 14 0
BBX 12 14 1 -2
BITMAP
0000
07C0
7E00
0600
0600
0600
FFF0
0600
0600
0600
0600
0600
0600
0600
ENDCHAR
STARTCHAR uni5345
ENCODING 21317
SWIDTH 1000 0
DWIDTH 14 0
BBX 13 13 0 -2
BITMAP
1330
1330
1330
1330
1330
7FF8
1330
1330
3330
2330
2330
6330
4030
ENDCHAR
STARTCHAR uni5347
ENCODING 21319
SWIDTH 1000 0
DWIDTH 14 0
BBX 12 14 1 -2
BITMAP
0080
0C80
F080
1080
1080
1080
FFF0
1080
1080
3080
2080
6080
C080
8080
ENDCHAR
STARTCHAR uni5348
ENCODING 21320
SWIDTH 1000 0
DWIDTH 14 0
BBX 12 14 1 -2
BITMAP
3000
2000
3FE0
4600
C600
8600
0600
FFF0
0600
0600
0600
0600
0600
0600
ENDCHAR
STARTCHAR uni5349
ENCODING 21321
SWIDTH 1000 0
DWIDTH 14 0
BBX 12 14 1 -2
BITMAP
0600
0600
7FE0
0600
0600
1080
1080
FFF0
3080
2080
2080
6080
C080
8080
ENDCHAR
STARTCHAR uni534A
ENCODING 21322
SWIDTH 1000 0
DWIDTH 14 0
BBX 12 14 1 -2
BITMAP
0400
6460
2440
34C0
0400
7FE0
0400
0400
0400
FFF0
0400
0400
0400
0400
ENDCHAR
STARTCHAR uni534E
ENCODING 21326
SWIDTH 1000 0
DWIDTH 14 0
BBX 12 14 1 -2
BITMAP
1A00
1220
22E0
6380
AE00
2210
21F0
0000
0600
FFF0
0600
0600
0600
0600
ENDCHAR
STARTCHAR uni534F
ENCODING 21327
SWIDTH 1000 0
DWIDTH 14 0
BBX 13 14 1 -2
BITMAP
4100
4100
4100
4FE0
F120
4120
4A30
4A30
4A50
5250
4440
4440
4840
51C0
ENDCHAR
STARTCHAR uni5351
ENCODING 21329
SWIDTH 1000 0
DWIDTH 14 0
BBX 12 14 1 -2
BITMAP
0600
0400
7FE0
4420
7FE0
4420
4420
7FE0
0900
7100
FFF0
0100
0100
0100
ENDCHAR
STARTCHAR uni5352
ENCODING 21330
SWIDTH 1000 0
DWIDTH 14 0
BBX 12 14 1 -2
BITMAP
0400
0200
FFF0
1080
1080
3180
6960
C230
0400
FFF0
0400
0400
0400
0400
ENDCHAR
STARTCHAR uni5353
ENCODING 21331
SWIDTH 1000 0
DWIDTH 14 0
BBX 12 14 1 -2
BITMAP
0400
07F0
0400
7FE0
4020
4020
7FE0
4020
7FE0
0400
FFF0
0400
0400
0400
ENDCHAR
STARTCHAR uni5355
ENCODING 21333
SWIDTH 1000 0
DWIDTH 14 0
BBX 12 14 1 -2
BITMAP
0000
10C0
1880
7FE0
4420
7FE0
4420
4420
7FE0
0400
FFF0
0400
0400
0400
ENDCHAR
STARTCHAR uni5356
ENCODING 21334
SWIDTH 1000 0
DWIDTH 14 0
BBX 12 14 1 -2
BITMAP
0600
0600
7FE0
0600
FFF0
0220
1A20
6200
1200
FFF0
0400
0D80
3060
C010
ENDCHAR
STARTCHAR uni5357
ENCODING 21335
SWIDTH 1000 0
DWIDTH 14 0
BBX 12 14 1 -2
BITMAP
0600
0600
FFF0
0600
7FE0
4020
4920
4920
5FA0
4420
7FE0
4420
4420
44E0
ENDCHAR
STARTCHAR uni535A
ENCODING 21338
SWIDTH 1000 0
DWIDTH 14 0
BBX 12 14 1 -2
BITMAP
4160
4FF0
4100
4FF0
F910
4FF0
4910
4FF0
4950
5FF0
4440
4240
4240
40C0
ENDCHAR
STARTCHAR uni535C
ENCODING 21340
SWIDTH 1000 0
DWIDTH 14 0
BBX 8 13 5 -2
BITMAP
80
80
80
80
80
F0
8C
82
80
80
80
80
80
ENDCHAR
STARTCHAR uni535E
ENCODING 21342
SWIDTH 1000 0
DWIDTH 14 0
BBX 12 14 1 -2
BITMAP
0400
0600
0200
FFF0
0400
0400
0700
0580
0460
0420
0400
0400
0400
0400
ENDCHAR
STARTCHAR uni535F
ENCODING 21343
SWIDTH 1000 0
DWIDTH 14 0
BBX 12 13 1 -2
BITMAP
0100
F100
9100
9100
91C0
9160
9130
9110
F100
8100
0100
0100
0100
ENDCHAR
STARTCHAR uni5360
ENCODING 21344
SWIDTH 1000 0
DWIDTH 14 0
BBX 11 14 2 -2
BITMAP
0800
0800
0800
0FE0
0800
0800
0800
FFC0
8040
8040
8040
8040
FFC0
8040
ENDCHAR
STARTCHAR uni5361
ENCODING 21345
SWIDTH 1000 0
DWIDTH 14 0
BBX 12 14 1 -2
BITMAP
0400
0400
07E0
0400
0400
0400
FFF0
0400
0400
0580
0460
0400
0400
0400
ENDCHAR
STARTCHAR uni5362
ENCODING 21346
SWIDTH 1000 0
DWIDTH 14 0
BBX 12 14 1 -2
BITMAP
0400
0400
07F0
0400
3FE0
2020
2020
2020
3FE0
4020
4000
4000
C000
8000
ENDCHAR
STARTCHAR uni5363
ENCODING 21347
SWIDTH 1000 0
DWIDTH 14 0
BBX 11 14 2 -2
BITMAP
0800
0FE0
0800
0800
FFE0
8020
FE20
8220
8220
FE20
8020
8020
FFE0
8020
ENDCHAR
STARTCHAR uni5364
ENCODING 21348
SWIDTH 1000 0
DWIDTH 14 0
BBX 11 14 2 -2
BITMAP
0800
0800
0FE0
0800
FFC0
8140
B340
9E40
8C40
9B40
B140
8040
FFC0
8040
ENDCHAR
STARTCHAR uni5366
ENCODING 21350
SWIDTH 1000 0
DWIDTH 14 0
BBX 12 14 1 -2
BITMAP
1080
1080
FC80
1080
1080
FEC0
00A0
1090
FC80
1080
1080
1E80
F880
0080
ENDCHAR
STARTCHAR uni5367
ENCODING 21351
SWIDTH 1000 0
DWIDTH 14 0
BBX 12 14 1 -2
BITMAP
0080
FE80
8880
8880
8880
FCC0
84E0
84B0
FC90
8880
8880
8880
FE80
0080
ENDCHAR
STARTCHAR uni5369
ENCODING 21353
SWIDTH 1000 0
DWIDTH 14 0
BBX 6 13 4 -2
BITMAP
FC
84
84
84
84
84
84
84
84
9C
80
80
80
ENDCHAR
STARTCHAR uni536B
ENCODING 21355
SWIDTH 1000 0
DWIDTH 14 0
BBX 12 12 1 -1
BITMAP
7FE0
0420
0420
0420
0420
0420
0420
04E0
0400
0400
0400
FFF0
ENDCHAR
STARTCHAR uni536E
ENCODING 21358
SWIDTH 1000 0
DWIDTH 14 0
BBX 12 14 1 -2
BITMAP
0060
7F80
4000
4000
7FF0
4000
5FC0
5040
5040
5040
51C0
9010
9010
8FE0
ENDCHAR
STARTCHAR uni536F
ENCODING 21359
SWIDTH 1000 0
DWIDTH 14 0
BBX 12 13 1 -2
BITMAP
1C00
61F0
4910
4910
4910
4910
4910
4910
F910
1970
1100
6100
4100
ENDCHAR
STARTCHAR uni5370
ENCODING 21360
SWIDTH 1000 0
DWIDTH 14 0
BBX 12 14 1 -2
BITMAP
0800
73F0
C310
C310
C310
FB10
C310
C310
C310
CB10
F370
8300
0300
0300
ENDCHAR
STARTCHAR uni5371
ENCODING 21361
SWIDTH 1000 0
DWIDTH 14 0
BBX 13 14 0 -2
BITMAP
0800
0FC0
1080
3080
7FF8
6000
27E0
2420
2420
2420
24E0
2408
4408
47F8
ENDCHAR
STARTCHAR uni5373
ENCODING 21363
SWIDTH 1000 0
DWIDTH 14 0
BBX 12 13 1 -2
BITMAP
7DF0
4510
4510
7D10
4510
4510
7D10
4110
4910
4970
7D00
C500
0100
ENDCHAR
STARTCHAR uni5374
ENCODING 21364
SWIDTH 1000 0
DWIDTH 14 0
BBX 12 14 1 -2
BITMAP
1000
11F0
FD10
1110
1110
1110
FD10
2110
2910
4510
5D70
E500
0100
0100
ENDCHAR
STARTCHAR uni5375
ENCODING 21365
SWIDTH 1000 0
DWIDTH 14 0
BBX 12 14 1 -2
BITMAP
0800
71F0
4110
4910
6990
5950
5950
4910
7910
E910
1970
3100
6100
0100
ENDCHAR
STARTCHAR uni5377
ENCODING 21367
SWIDTH 1000 0
DWIDTH 14 0
BBX 13 14 1 -2
BITMAP
0200
2240
1480
7FE0
0800
FFF0
1080
20C0
DFE0
1090
1380
1020
1020
1FC0
ENDCHAR
STARTCHAR uni5378
ENCODING 21368
SWIDTH 1000 0
DWIDTH 14 0
BBX 13 14 0 -2
BITMAP
3000
20F8
3E88
4888
4888
7E88
0888
0888
4E88
4888
49B8
7E80
4080
0080
ENDCHAR
STARTCHAR uni537A
ENCODING 21370
SWIDTH 1000 0
DWIDTH 14 0
BBX 12 14 1 -2
BITMAP
3FC0
0180
7A20
1BC0
32C0
6C30
8000
7FE0
0000
7FC0
4040
43D0
4010
3FE0
ENDCHAR
STARTCHAR uni537F
ENCODING 21375
SWIDTH 1000 0
DWIDTH 14 0
BBX 12 13 1 -2
BITMAP
7F70
8950
A950
AF50
A950
A950
AF50
A850
EA50
2F70
4D40
C140
8040
ENDCHAR
STARTCHAR uni5382
ENCODING 21378
SWIDTH 1000 0
DWIDTH 14 0
BBX 12 13 1 -2
BITMAP
7FF0
4000
4000
4000
4000
4000
4000
4000
4000
4000
8000
8000
8000
ENDCHAR
STARTCHAR uni5384
ENCODING 21380
SWIDTH 1000 0
DWIDTH 14 0
BBX 12 13 1 -2
BITMAP
7FF0
4000
4000
4FE0
4860
4860
4860
49C0
4800
C810
8810
8FF0
8000
ENDCHAR
STARTCHAR uni5385
ENCODING 21381
SWIDTH 1000 0
DWIDTH 14 0
BBX 12 13 1 -2
BITMAP
7FF0
4000
4000
4000
5FF0
4100
4100
4100
4100
4100
8100
8100
8700
ENDCHAR
STARTCHAR uni5386
ENCODING 21382
SWIDTH 1000 0
DWIDTH 14 0
BBX 12 13 1 -2
BITMAP
7FF0
4000
4200
4200
5FE0
4220
4220
4420
C420
8420
8820
9820
B1C0
ENDCHAR
STARTCHAR uni5389
ENCODING 21385
SWIDTH 1000 0
DWIDTH 14 0
BBX 12 13 1 -2
BITMAP
7FF0
4000
4000
5FF0
4400
4400
47E0
4420
4C20
4820
8820
9040
A1C0
ENDCHAR
STARTCHAR uni538B
ENCODING 21387
SWIDTH 1000 0
DWIDTH 14 0
BBX 13 13 0 -2
BITMAP
3FF8
2000
2100
2100
2100
2FF8
2100
2120
4130
4110
4100
5FF8
0000
ENDCHAR
STARTCHAR uni538C
ENCODING 21388
SWIDTH 1000 0
DWIDTH 14 0
BBX 12 13 1 -2
BITMAP
7FF0
4000
4140
4120
4100
7FF0
4300
4300
4280
C4C0
8C60
9830
A010
ENDCHAR
STARTCHAR uni538D
ENCODING 21389
SWIDTH 1000 0
DWIDTH 14 0
BBX 12 13 1 -2
BITMAP
7FF0
4000
4400
5FF0
4C00
4900
4900
5FE0
4100
BFF0
8100
8100
8100
ENDCHAR
STARTCHAR uni5395
ENCODING 21397
SWIDTH 1000 0
DWIDTH 14 0
BBX 12 13 1 -2
BITMAP
7FF0
4000
5F10
6150
6550
6550
6550
6550
A950
8950
8C10
9210
2170
ENDCHAR
STARTCHAR uni5398
ENCODING 21400
SWIDTH 1000 0
DWIDTH 14 0
BBX 12 12 1 -1
BITMAP
7FF0
4000
5FE0
5120
5FE0
5120
5120
5FE0
4100
DFE0
8100
BFF0
ENDCHAR
STARTCHAR uni539A
ENCODING 21402
SWIDTH 1000 0
DWIDTH 14 0
BBX 12 13 1 -2
BITMAP
7FF0
4000
5FE0
5FE0
5020
5FE0
4000
5FE0
4180
BFF0
8100
8100
8600
ENDCHAR
STARTCHAR uni539D
ENCODING 21405
SWIDTH 1000 0
DWIDTH 14 0
BBX 12 13 1 -2
BITMAP
7FF0
4480
5FF0
4480
4480
7FF0
4000
4FE0
4820
8FE0
8820
8FE0
8820
ENDCHAR
STARTCHAR uni539F
ENCODING 21407
SWIDTH 1000 0
DWIDTH 14 0
BBX 12 13 1 -2
BITMAP
7FF0
4300
4200
5FE0
5020
5FE0
5020
5FE0
4100
8940
9120
A110
0600
ENDCHAR
STARTCHAR uni53A2
ENCODING 21410
SWIDTH 1000 0
DWIDTH 14 0
BBX 12 13 1 -2
BITMAP
7FF0
4000
49F0
4910
7F10
49F0
5D10
5D10
A9F0
A910
8910
89F0
8910
ENDCHAR
STARTCHAR uni53A3
ENCODING 21411
SWIDTH 1000 0
DWIDTH 14 0
BBX 13 13 0 -2
BITMAP
3FF8
20A0
2110
3FF8
2640
3FF8
4910
4FF0
4910
4FF0
4100
4100
0100
ENDCHAR
STARTCHAR uni53A5
ENCODING 21413
SWIDTH 1000 0
DWIDTH 14 0
BBX 12 13 1 -2
BITMAP
7FF0
4080
5480
44F0
7E90
4B50
6B50
AA40
BE40
8AA0
88A0
9110
A210
ENDCHAR
STARTCHAR uni53A6
ENCODING 21414
SWIDTH 1000 0
DWIDTH 14 0
BBX 12 13 1 -2
BITMAP
7FF0
4000
7FF0
5FE0
5020
5FE0
5FE0
5FE0
4400
8FC0
B480
8780
B870
ENDCHAR
STARTCHAR uni53A8
ENCODING 21416
SWIDTH 1000 0
DWIDTH 14 0
BBX 12 13 1 -2
BITMAP
7FF0
4000
7E20
4020
7FF0
6220
62A0
7EA0
92A0
9420
9420
9F20
A060
ENDCHAR
STARTCHAR uni53A9
ENCODING 21417
SWIDTH 1000 0
DWIDTH 14 0
BBX 12 13 1 -2
BITMAP
7FF0
4000
7DF0
6420
7D40
6540
7DF0
6040
A440
A4C0
BDD0
A150
8230
ENDCHAR
STARTCHAR uni53AE
ENCODING 21422
SWIDTH 1000 0
DWIDTH 14 0
BBX 12 13 1 -2
BITMAP
7FF0
4000
52F0
7E80
5280
5E80
5EF0
52A0
92A0
BEA0
9520
A320
A120
ENDCHAR
STARTCHAR uni53B6
ENCODING 21430
SWIDTH 1000 0
DWIDTH 14 0
BBX 12 12 1 -1
BITMAP
0400
0400
0C00
0800
1800
1000
3040
2040
6020
7FE0
6030
0000
ENDCHAR
STARTCHAR uni53BB
ENCODING 21435
SWIDTH 1000 0
DWIDTH 14 0
BBX 12 14 1 -2
BITMAP
0600
0600
0600
7FE0
0600
0600
FFF0
0800
1880
10C0
2040
63E0
7E20
0000
ENDCHAR
STARTCHAR uni53BF
ENCODING 21439
SWIDTH 1000 0
DWIDTH 14 0
BBX 12 13 1 -2
BITMAP
3FC0
2040
3FC0
2040
2040
3FC0
2040
2040
FFF0
1880
3040
7FE0
0010
ENDCHAR
STARTCHAR uni53C1
ENCODING 21441
SWIDTH 1000 0
DWIDTH 14 0
BBX 14 13 0 -1
BITMAP
0200
0440
0FF0
3E10
0400
7FF8
0840
3FE0
6018
4000
1FE0
0000
7FF8
ENDCHAR
STARTCHAR uni53C2
ENCODING 21442
SWIDTH 1000 0
DWIDTH 14 0
BBX 12 14 1 -2
BITMAP
0400
0880
1FE0
7C20
0800
FFF0
1080
2640
D830
8310
1C60
0180
0F00
3000
ENDCHAR
STARTCHAR uni53C8
ENCODING 21448
SWIDTH 1000 0
DWIDTH 14 0
BBX 13 13 1 -2
BITMAP
FFE0
2020
2040
2040
1080
1080
0900
0F00
0600
0F00
31C0
E070
8010
ENDCHAR
STARTCHAR uni53C9
ENCODING 21449
SWIDTH 1000 0
DWIDTH 14 0
BBX 13 12 0 -2
BITMAP
7FF0
1010
1220
1120
0840
0C40
0480
0300
0780
0CC0
3038
4008
ENDCHAR
STARTCHAR uni53CA
ENCODING 21450
SWIDTH 1000 0
DWIDTH 14 0
BBX 12 13 1 -2
BITMAP
FF80
1080
1100
1100
19F0
1820
3820
2440
2640
6380
4380
8E60
1810
ENDCHAR
STARTCHAR uni53CB
ENCODING 21451
SWIDTH 1000 0
DWIDTH 14 0
BBX 12 14 1 -2
BITMAP
0800
0800
0800
FFF0
1000
1000
1FC0
1840
28C0
2480
6300
4300
8CE0
1030
ENDCHAR
STARTCHAR uni53CC
ENCODING 21452
SWIDTH 1000 0
DWIDTH 14 0
BBX 12 13 1 -2
BITMAP
FBF0
0A10
0A20
8920
4920
3120
3140
10C0
2880
29C0
4360
C630
8410
ENDCHAR
STARTCHAR uni53CD
ENCODING 21453
SWIDTH 1000 0
DWIDTH 14 0
BBX 12 14 1 -2
BITMAP
0060
7F80
4000
4000
4000
7FE0
4860
4840
4CC0
4480
4300
4780
9CE0
A010
ENDCHAR
STARTCHAR uni53D1
ENCODING 21457
SWIDTH 1000 0
DWIDTH 14 0
BBX 13 14 0 -2
BITMAP
0300
1220
1230
2200
3FF8
0400
07F0
0C20
0A20
1340
3180
61C0
0670
0808
ENDCHAR
STARTCHAR uni53D4
ENCODING 21460
SWIDTH 1000 0
DWIDTH 14 0
BBX 13 14 1 -2
BITMAP
2000
23F0
3D10
2110
2120
FF20
10A0
10E0
54C0
9440
94C0
91E0
1330
7610
ENDCHAR
STARTCHAR uni53D6
ENCODING 21462
SWIDTH 1000 0
DWIDTH 14 0
BBX 13 13 1 -2
BITMAP
FC00
4BF0
4910
7910
4920
4920
78A0
48C0
48C0
7CC0
89A0
0B30
0A10
ENDCHAR
STARTCHAR uni53D7
ENCODING 21463
SWIDTH 1000 0
DWIDTH 14 0
BBX 12 14 1 -2
BITMAP
00E0
FF00
6460
2240
FFF0
8010
8010
3FC0
30C0
1880
0F00
0F00
79E0
C030
ENDCHAR
STARTCHAR uni53D8
ENCODING 21464
SWIDTH 1000 0
DWIDTH 14 0
BBX 12 14 1 -2
BITMAP
0400
0200
FFF0
0900
2940
4920
C910
0900
7FC0
30C0
1980
0600
3B80
C070
ENDCHAR
STARTCHAR uni53D9
ENCODING 21465
SWIDTH 1000 0
DWIDTH 14 0
BBX 13 14 0 -2
BITMAP
0800
1DF8
2688
6288
7E88
0890
0890
7E50
0870
2A60
4A60
4A70
0898
3908
ENDCHAR
STARTCHAR uni53DB
ENCODING 21467
SWIDTH 1000 0
DWIDTH 14 0
BBX 12 14 1 -2
BITMAP
2030
ABC0
AA00
6A00
23F0
FB10
2320
22A0
FAA0
2240
2440
44A0
4D30
8010
ENDCHAR
STARTCHAR uni53DF
ENCODING 21471
SWIDTH 1000 0
DWIDTH 14 0
BBX 12 14 1 -2
BITMAP
0400
75E0
4420
4420
75E0
4420
7FE0
0400
7FE0
3040
1980
0700
3FC0
C030
ENDCHAR
STARTCHAR uni53E0
ENCODING 21472
SWIDTH 1000 0
DWIDTH 14 0
BBX 12 14 1 -2
BITMAP
3FC0
18C0
0700
38C0
FBF0
31C0
CF30
FFF0
BFD0
2040
3FC0
3FC0
2040
FFF0
ENDCHAR
STARTCHAR uni53E3
ENCODING 21475
SWIDTH 1000 0
DWIDTH 14 0
BBX 10 11 2 -1
BITMAP
FFC0
8040
8040
8040
8040
8040
8040
8040
8040
FFC0
8040
ENDCHAR
STARTCHAR uni53E4
ENCODING 21476
SWIDTH 1000 0
DWIDTH 14 0
BBX 12 14 1 -2
BITMAP
0600
0600
0600
FFF0
0600
0600
0600
7FE0
4020
4020
4020
4020
7FE0
4020
ENDCHAR
STARTCHAR uni53E5
ENCODING 21477
SWIDTH 1000 0
DWIDTH 14 0
BBX 12 14 1 -2
BITMAP
1000
1000
3FF0
2010
4010
4010
BF10
A110
2130
2120
3F20
2020
0020
01E0
ENDCHAR
STARTCHAR uni53E6
ENCODING 21478
SWIDTH 1000 0
DWIDTH 14 0
BBX 11 13 1 -2
BITMAP
7FE0
4020
4020
4020
7FE0
0400
0400
FFE0
0420
0820
1820
3020
C1C0
ENDCHAR
STARTCHAR uni53E8
ENCODING 21480
SWIDTH 1000 0
DWIDTH 14 0
BBX 12 13 1 -2
BITMAP
07F0
F110
9110
9110
9110
9110
9110
9210
F210
8230
0420
0C20
08E0
ENDCHAR
STARTCHAR uni53E9
ENCODING 21481
SWIDTH 1000 0
DWIDTH 14 0
BBX 12 13 1 -2
BITMAP
FBF0
8A10
8A10
8A10
8A10
8A10
8A10
8A10
FA10
8210
0270
0200
0200
ENDCHAR
STARTCHAR uni53EA
ENCODING 21482
SWIDTH 1000 0
DWIDTH 14 0
BBX 12 13 1 -2
BITMAP
7FE0
4020
4020
4020
4020
4020
7FE0
0000
0000
10C0
2060
4030
8010
ENDCHAR
STARTCHAR uni53EB
ENCODING 21483
SWIDTH 1000 0
DWIDTH 14 0
BBX 11 14 1 -2
BITMAP
0020
0020
FA20
8A20
8A20
8A20
8A20
8A20
8A20
FBE0
8220
0020
0020
0020
ENDCHAR
STARTCHAR uni53EC
ENCODING 21484
SWIDTH 1000 0
DWIDTH 14 0
BBX 11 13 1 -2
BITMAP
FFE0
0C20
0820
0820
1060
61C0
C000
3FE0
2020
2020
2020
3FE0
2020
ENDCHAR
STARTCHAR uni53ED
ENCODING 21485
SWIDTH 1000 0
DWIDTH 14 0
BBX 12 13 1 -2
BITMAP
F240
9240
9240
9240
9240
9240
9260
9420
F420
8420
0C30
0810
0810
ENDCHAR
STARTCHAR uni53EE
ENCODING 21486
SWIDTH 1000 0
DWIDTH 14 0
BBX 12 13 1 -2
BITMAP
F7F0
F040
9040
9040
9040
9040
9040
9040
F040
8040
0040
0040
0380
ENDCHAR
STARTCHAR uni53EF
ENCODING 21487
SWIDTH 1000 0
DWIDTH 14 0
BBX 12 13 1 -2
BITMAP
FFF0
0060
0060
0060
7E60
4260
4260
4260
7E60
4060
0060
0040
01C0
ENDCHAR
STARTCHAR uni53F0
ENCODING 21488
SWIDTH 1000 0
DWIDTH 14 0
BBX 12 14 1 -2
BITMAP
0400
0800
1980
10C0
2040
7FE0
4010
0000
3FC0
2040
2040
2040
3FC0
2040
ENDCHAR
STARTCHAR uni53F1
ENCODING 21489
SWIDTH 1000 0
DWIDTH 14 0
BBX 12 13 1 -2
BITMAP
0100
F100
9110
9120
9140
9180
9300
9D00
F100
8110
8110
0110
01F0
ENDCHAR
STARTCHAR uni53F2
ENCODING 21490
SWIDTH 1000 0
DWIDTH 14 0
BBX 12 14 1 -2
BITMAP
0600
0600
0600
7FE0
4620
4620
7FE0
0400
2400
2400
1C00
1C00
3700
C0F0
ENDCHAR
STARTCHAR uni53F3
ENCODING 21491
SWIDTH 1000 0
DWIDTH 14 0
BBX 13 14 0 -2
BITMAP
0200
0600
0400
7FF8
0400
0800
0800
1FF0
3810
6810
4810
0810
0FF0
0810
ENDCHAR
STARTCHAR uni53F5
ENCODING 21493
SWIDTH 1000 0
DWIDTH 14 0
BBX 11 12 2 -1
BITMAP
FFE0
8000
8000
9F80
9080
9080
9080
9080
9F80
8000
8000
FFE0
ENDCHAR
STARTCHAR uni53F6
ENCODING 21494
SWIDTH 1000 0
DWIDTH 14 0
BBX 12 13 1 -2
BITMAP
0080
F080
9080
9080
9FF0
9080
9080
9080
F080
8080
0080
0080
0080
ENDCHAR
STARTCHAR uni53F7
ENCODING 21495
SWIDTH 1000 0
DWIDTH 14 0
BBX 12 13 1 -2
BITMAP
3FC0
2040
2040
3FC0
0000
FFF0
1000
3000
3FC0
0040
0040
0040
0780
ENDCHAR
STARTCHAR uni53F8
ENCODING 21496
SWIDTH 1000 0
DWIDTH 14 0
BBX 11 13 1 -2
BITMAP
FFE0
0020
0020
FFA0
0020
7F20
4120
4120
4120
7F20
4020
0020
00E0
ENDCHAR
STARTCHAR uni53F9
ENCODING 21497
SWIDTH 1000 0
DWIDTH 14 0
BBX 12 13 1 -2
BITMAP
0FE0
F420
9420
9420
9220
9240
9240
91C0
9180
F180
83C0
0C60
0810
ENDCHAR
STARTCHAR uni53FB
ENCODING 21499
SWIDTH 1000 0
DWIDTH 14 0
BBX 12 14 1 -2
BITMAP
0100
F100
9100
97F0
9110
9110
9110
9110
9210
F210
8230
8420
0C20
08E0
ENDCHAR
STARTCHAR uni53FC
ENCODING 21500
SWIDTH 1000 0
DWIDTH 14 0
BBX 12 12 1 -2
BITMAP
F7F0
9010
9010
90D0
9090
9130
9220
F420
8420
8020
0020
01E0
ENDCHAR
STARTCHAR uni53FD
ENCODING 21501
SWIDTH 1000 0
DWIDTH 14 0
BBX 12 13 1 -2
BITMAP
03C0
F240
9240
9240
9240
9240
9240
9440
F440
8450
0450
0850
1870
ENDCHAR
STARTCHAR uni5401
ENCODING 21505
SWIDTH 1000 0
DWIDTH 14 0
BBX 12 13 1 -2
BITMAP
07F0
F080
9080
9080
9080
9FF0
9080
9080
F080
8080
0080
0080
0380
ENDCHAR
STARTCHAR uni5403
ENCODING 21507
SWIDTH 1000 0
DWIDTH 14 0
BBX 12 14 1 -2
BITMAP
0200
0200
F3F0
9400
9400
9800
93E0
9040
9180
F300
8600
0410
0410
07F0
ENDCHAR
STARTCHAR uni5404
ENCODING 21508
SWIDTH 1000 0
DWIDTH 14 0
BBX 14 14 0 -2
BITMAP
0400
0C00
0FE0
1860
6CC0
4780
0780
1CE0
7038
1FE0
1020
1020
1FE0
1020
ENDCHAR
STARTCHAR uni5406
ENCODING 21510
SWIDTH 1000 0
DWIDTH 14 0
BBX 12 14 1 -2
BITMAP
0000
0180
F100
9300
9220
9660
9FC0
9080
9180
F120
8220
05F0
0710
0010
ENDCHAR
STARTCHAR uni5408
ENCODING 21512
SWIDTH 1000 0
DWIDTH 14 0
BBX 13 14 1 -2
BITMAP
0200
0600
0F00
1980
3060
FFF0
0000
0000
3FC0
2040
2040
2040
3FC0
2040
ENDCHAR
STARTCHAR uni5409
ENCODING 21513
SWIDTH 1000 0
DWIDTH 14 0
BBX 12 14 1 -2
BITMAP
0600
0600
FFF0
0600
0600
0600
7FE0
0000
3FE0
2060
2060
2060
3FE0
2060
ENDCHAR
STARTCHAR uni540A
ENCODING 21514
SWIDTH 1000 0
DWIDTH 14 0
BBX 10 13 2 -2
BITMAP
7F80
4080
4080
7F80
0C00
0C00
FFC0
8C40
8C40
8C40
8C40
8DC0
0C00
ENDCHAR
STARTCHAR uni540C
ENCODING 21516
SWIDTH 1000 0
DWIDTH 14 0
BBX 12 13 1 -2
BITMAP
FFF0
8010
8010
BFD0
8010
9F90
9090
9090
9090
9F90
9010
8010
8070
ENDCHAR
STARTCHAR uni540D
ENCODING 21517
SWIDTH 1000 0
DWIDTH 14 0
BBX 11 14 1 -2
BITMAP
0400
0800
1FE0
3040
D080
1980
0E00
0C00
7FE0
D020
1020
1020
1FE0
1020
ENDCHAR
STARTCHAR uni540E
ENCODING 21518
SWIDTH 1000 0
DWIDTH 14 0
BBX 13 14 0 -2
BITMAP
0070
3F80
2000
2000
3FF8
2000
2000
2000
2FF0
2810
2810
4810
4FF0
4810
ENDCHAR
STARTCHAR uni540F
ENCODING 21519
SWIDTH 1000 0
DWIDTH 14 0
BBX 13 14 1 -2
BITMAP
0600
0600
FFF0
0600
7FE0
4620
4620
7FE0
2400
2400
1400
1800
3700
C0F0
ENDCHAR
STARTCHAR uni5410
ENCODING 21520
SWIDTH 1000 0
DWIDTH 14 0
BBX 12 12 1 -1
BITMAP
0080
F080
9080
9080
97F0
9080
9080
9080
F080
8080
0080
0FF0
ENDCHAR
STARTCHAR uni5411
ENCODING 21521
SWIDTH 1000 0
DWIDTH 14 0
BBX 12 14 1 -2
BITMAP
0400
0400
0C00
FFF0
8010
8010
9F90
9090
9090
9090
9F90
9010
8010
80E0
ENDCHAR
STARTCHAR uni5412
ENCODING 21522
SWIDTH 1000 0
DWIDTH 14 0
BBX 13 12 1 -1
BITMAP
01E0
F780
9100
9100
9100
97F0
9900
9100
F100
8110
0110
00F0
ENDCHAR
STARTCHAR uni5413
ENCODING 21523
SWIDTH 1000 0
DWIDTH 14 0
BBX 12 13 1 -2
BITMAP
FFF0
9100
9100
9100
9140
9120
9110
9100
F100
8100
0100
0100
0100
ENDCHAR
STARTCHAR uni5415
ENCODING 21525
SWIDTH 1000 0
DWIDTH 14 0
BBX 10 13 2 -2
BITMAP
7F80
4080
4080
4080
7F80
0000
0000
FFC0
8040
8040
8040
FFC0
8040
ENDCHAR
STARTCHAR uni5416
ENCODING 21526
SWIDTH 1000 0
DWIDTH 14 0
BBX 12 14 1 -2
BITMAP
0810
F410
9220
9340
9140
9080
9080
9080
9080
F080
8080
0080
0080
0080
ENDCHAR
STARTCHAR uni5417
ENCODING 21527
SWIDTH 1000 0
DWIDTH 14 0
BBX 12 13 1 -2
BITMAP
07E0
F020
9420
9420
9420
9440
97F0
9010
F010
8FD0
0010
0020
00E0
ENDCHAR
STARTCHAR uni541B
ENCODING 21531
SWIDTH 1000 0
DWIDTH 14 0
BBX 12 13 1 -2
BITMAP
7FE0
0420
FFF0
0820
0820
7FE0
1000
3000
3FE0
D020
1020
1FE0
1020
ENDCHAR
STARTCHAR uni541D
ENCODING 21533
SWIDTH 1000 0
DWIDTH 14 0
BBX 13 14 0 -2
BITMAP
0200
0100
7FF8
0860
04C0
0300
1CE0
6018
1FF0
1010
1010
1010
1FF0
1010
ENDCHAR
STARTCHAR uni541E
ENCODING 21534
SWIDTH 1000 0
DWIDTH 14 0
BBX 13 13 1 -2
BITMAP
7FE0
0400
0C00
FFF0
1900
1080
2040
7FF0
A050
2040
2040
3FC0
2040
ENDCHAR
STARTCHAR uni541F
ENCODING 21535
SWIDTH 1000 0
DWIDTH 14 0
BBX 12 14 1 -2
BITMAP
0080
0180
F180
9240
9530
9890
9080
97E0
9020
F040
8040
00C0
0080
0080
ENDCHAR
STARTCHAR uni5420
ENCODING 21536
SWIDTH 1000 0
DWIDTH 14 0
BBX 13 13 1 -2
BITMAP
01E0
F1A0
9190
9180
9FF0
9180
9180
9180
F140
8240
0660
0C30
0010
ENDCHAR
STARTCHAR uni5421
ENCODING 21537
SWIDTH 1000 0
DWIDTH 14 0
BBX 12 12 1 -1
BITMAP
0480
F480
9480
9490
97E0
94C0
9480
9480
F480
8490
0790
0CF0
ENDCHAR
STARTCHAR uni5423
ENCODING 21539
SWIDTH 1000 0
DWIDTH 14 0
BBX 13 14 1 -2
BITMAP
0100
0080
F0C0
9240
9200
9610
9A10
9A10
9A10
FA10
8A20
8220
0220
01E0
ENDCHAR
STARTCHAR uni5426
ENCODING 21542
SWIDTH 1000 0
DWIDTH 14 0
BBX 12 13 1 -2
BITMAP
FFF0
0200
0600
1EC0
6630
C610
0600
3FE0
2060
2060
2060
3FE0
2060
ENDCHAR
STARTCHAR uni5427
ENCODING 21543
SWIDTH 1000 0
DWIDTH 14 0
BBX 12 13 1 -2
BITMAP
07F0
F490
9490
9490
9490
9490
97F0
9410
F400
8400
8410
0410
07F0
ENDCHAR
STARTCHAR uni5428
ENCODING 21544
SWIDTH 1000 0
DWIDTH 14 0
BBX 12 14 1 -2
BITMAP
0080
0080
FFF0
9080
94B0
94B0
94B0
94B0
94B0
F7F0
80B0
0090
0090
00F0
ENDCHAR
STARTCHAR uni5429
ENCODING 21545
SWIDTH 1000 0
DWIDTH 14 0
BBX 13 13 1 -2
BITMAP
0140
F240
9220
9620
9410
9FE0
9120
9120
F220
8220
8620
0420
08C0
ENDCHAR
STARTCHAR uni542B
ENCODING 21547
SWIDTH 1000 0
DWIDTH 14 0
BBX 13 14 1 -2
BITMAP
0200
0600
0900
1080
6660
8210
3FC0
0080
0100
3FC0
2040
2040
3FC0
2040
ENDCHAR
STARTCHAR uni542C
ENCODING 21548
SWIDTH 1000 0
DWIDTH 14 0
BBX 12 14 1 -2
BITMAP
0000
00F0
F380
9200
9200
93F0
9240
9240
9640
F440
8440
0440
0C40
0040
ENDCHAR
STARTCHAR uni542D
ENCODING 21549
SWIDTH 1000 0
DWIDTH 14 0
BBX 12 14 1 -2
BITMAP
0100
F100
9080
9FF0
9000
93C0
9240
9240
9240
F240
8440
0450
0C50
0870
ENDCHAR
STARTCHAR uni542E
ENCODING 21550
SWIDTH 1000 0
DWIDTH 14 0
BBX 12 14 1 -2
BITMAP
0100
0100
F200
9240
9420
95F0
9E50
9240
9240
F240
8640
0450
0C50
1870
ENDCHAR
STARTCHAR uni542F
ENCODING 21551
SWIDTH 1000 0
DWIDTH 14 0
BBX 11 14 1 -2
BITMAP
0400
0200
7FE0
4020
4020
7FE0
4000
4000
5FE0
5020
5020
D020
9FE0
9020
ENDCHAR
STARTCHAR uni5431
ENCODING 21553
SWIDTH 1000 0
DWIDTH 14 0
BBX 13 14 1 -2
BITMAP
0080
0080
F080
9FF0
9080
9080
97E0
9420
9260
F340
8180
03C0
0E70
0810
ENDCHAR
STARTCHAR uni5432
ENCODING 21554
SWIDTH 1000 0
DWIDTH 14 0
BBX 12 13 1 -2
BITMAP
0790
F090
9090
9790
9410
9410
9790
9090
F090
8090
8090
0110
0710
ENDCHAR
STARTCHAR uni5434
ENCODING 21556
SWIDTH 1000 0
DWIDTH 14 0
BBX 12 13 1 -2
BITMAP
7FE0
4020
4020
7FE0
0000
7FE0
0400
0400
FFF0
0600
0900
30C0
C030
ENDCHAR
STARTCHAR uni5435
ENCODING 21557
SWIDTH 1000 0
DWIDTH 14 0
BBX 12 14 1 -2
BITMAP
0080
0080
F080
94A0
94A0
9490
9490
9080
90A0
F060
8040
0180
0700
0800
ENDCHAR
STARTCHAR uni5438
ENCODING 21560
SWIDTH 1000 0
DWIDTH 14 0
BBX 13 13 1 -2
BITMAP
0FC0
F240
9240
9240
96F0
9610
9620
9520
F560
88C0
08C0
1930
1210
ENDCHAR
STARTCHAR uni5439
ENCODING 21561
SWIDTH 1000 0
DWIDTH 14 0
BBX 12 14 1 -2
BITMAP
0200
F200
9200
97F0
9410
9490
98A0
9080
9180
F180
8340
0260
0C30
0810
ENDCHAR
STARTCHAR uni543B
ENCODING 21563
SWIDTH 1000 0
DWIDTH 14 0
BBX 12 14 1 -2
BITMAP
0200
0400
F400
97F0
9550
9950
9A50
9290
9490
FC90
8910
0320
0220
00E0
ENDCHAR
STARTCHAR uni543C
ENCODING 21564
SWIDTH 1000 0
DWIDTH 14 0
BBX 12 14 1 -2
BITMAP
0040
EF40
A140
A240
A640
A440
A540
AE40
AC40
A440
E440
8450
0450
0C70
ENDCHAR
ENDFONT
